999
dxfrw 0.6.3
  0
SECTION
  2
HEADER
  9
$ACADVER
  1
AC1021
  9
$DWGCODEPAGE
  3
ANSI_1252
  9
$INSBASE
 10
0
 20
0
 30
0
  9
$EXTMIN
 10
-52
 20
-3.400000000000001
 30
0
  9
$EXTMAX
 10
59.4000000499917
 20
79.40000000000001
 30
0
  9
$LIMMIN
 10
0
 20
0
  9
$LIMMAX
 10
420
 20
297
  9
$ORTHOMODE
 70
    0
  9
$REGENMODE
 70
    1
  9
$FILLMODE
 70
    1
  9
$QTEXTMODE
 70
    0
  9
$MIRRTEXT
 70
    0
  9
$LTSCALE
 40
1
  9
$ATTMODE
 70
    0
  9
$TEXTSIZE
 40
2.5
  9
$TRACEWID
 40
15.68
  9
$TEXTSTYLE
  7
STANDARD
  9
$CLAYER
  8
construction_0
  9
$CELTYPE
  6
BYLAYER
  9
$CECOLOR
 62
  256
  9
$CELTSCALE
 40
1
  9
$DISPSILH
 70
    0
  9
$DIMSCALE
 40
2.5
  9
$DIMASZ
 40
0.1
  9
$DIMEXO
 40
0.025
  9
$DIMDLI
 40
3.75
  9
$DIMRND
 40
0
  9
$DIMDLE
 40
0
  9
$DIMEXE
 40
0.05
  9
$DIMTP
 40
0
  9
$DIMTM
 40
0
  9
$DIMTXT
 40
0.1
  9
$DIMCEN
 40
2.5
  9
$DIMTSZ
 40
0
  9
$DIMTOL
 70
    0
  9
$DIMLIM
 70
    0
  9
$DIMTIH
 70
    0
  9
$DIMTOH
 70
    0
  9
$DIMSE1
 70
    0
  9
$DIMSE2
 70
    0
  9
$DIMTAD
 70
    1
  9
$DIMZIN
 70
    8
  9
$DIMBLK
  1

  9
$DIMASO
 70
    1
  9
$DIMSHO
 70
    1
  9
$DIMPOST
  1

  9
$DIMAPOST
  1

  9
$DIMALT
 70
    0
  9
$DIMALTD
 70
    3
  9
$DIMALTF
 40
0.03937
  9
$DIMLFAC
 40
1
  9
$DIMTOFL
 70
    1
  9
$DIMTVP
 40
0
  9
$DIMTIX
 70
    0
  9
$DIMSOXD
 70
    0
  9
$DIMSAH
 70
    0
  9
$DIMBLK1
  1

  9
$DIMBLK2
  1

  9
$DIMSTYLE
  2
STANDARD
  9
$DIMCLRD
 70
    0
  9
$DIMCLRE
 70
    0
  9
$DIMCLRT
 70
    0
  9
$DIMTFAC
 40
1
  9
$DIMGAP
 40
0.025
  9
$DIMJUST
 70
    0
  9
$DIMSD1
 70
    0
  9
$DIMSD2
 70
    0
  9
$DIMTOLJ
 70
    0
  9
$DIMTZIN
 70
    8
  9
$DIMALTZ
 70
    0
  9
$DIMALTTZ
 70
    0
  9
$DIMUPT
 70
    0
  9
$DIMDEC
 70
    2
  9
$DIMTDEC
 70
    2
  9
$DIMALTU
 70
    2
  9
$DIMALTTD
 70
    3
  9
$DIMTXSTY
  7
STANDARD
  9
$DIMAUNIT
 70
    0
  9
$DIMADEC
 70
    0
  9
$DIMALTRND
 40
0
  9
$DIMAZIN
 70
    0
  9
$DIMDSEP
 70
   44
  9
$DIMATFIT
 70
    3
  9
$DIMFRAC
 70
    0
  9
$DIMLDRBLK
  1
STANDARD
  9
$DIMLUNIT
 70
    2
  9
$DIMLWD
 70
   -2
  9
$DIMLWE
 70
   -2
  9
$DIMTMOVE
 70
    0
  9
$DIMFXL
 40
1
  9
$DIMFXLON
 70
    0
  9
$DIMJOGANG
 40
0.7854
  9
$DIMTFILL
 70
    0
  9
$DIMTFILLCLR
 70
    0
  9
$DIMARCSYM
 70
    0
  9
$DIMLTYPE
  6

  9
$DIMLTEX1
  6

  9
$DIMLTEX2
  6

  9
$LUNITS
 70
    2
  9
$LUPREC
 70
    4
  9
$SKETCHINC
 40
1
  9
$FILLETRAD
 40
0
  9
$AUNITS
 70
    0
  9
$AUPREC
 70
    2
  9
$MENU
  1
.
  9
$ELEVATION
 40
0
  9
$PELEVATION
 40
0
  9
$THICKNESS
 40
0
  9
$LIMCHECK
 70
    0
  9
$CHAMFERA
 40
0
  9
$CHAMFERB
 40
0
  9
$CHAMFERC
 40
0
  9
$CHAMFERD
 40
0
  9
$SKPOLY
 70
    0
  9
$USRTIMER
 70
    1
  9
$ANGBASE
 50
0
  9
$ANGDIR
 70
    0
  9
$PDMODE
 70
   34
  9
$PDSIZE
 40
0
  9
$PLINEWID
 40
0
  9
$SPLFRAME
 70
    0
  9
$SPLINETYPE
 70
    2
  9
$SPLINESEGS
 70
    8
  9
$HANDSEED
  5
20000
  9
$SURFTAB1
 70
    6
  9
$SURFTAB2
 70
    6
  9
$SURFTYPE
 70
    6
  9
$SURFU
 70
    6
  9
$SURFV
 70
    6
  9
$UCSBASE
  2

  9
$UCSNAME
  2

  9
$UCSORG
 10
0
 20
0
 30
0
  9
$UCSXDIR
 10
1
 20
0
 30
0
  9
$UCSYDIR
 10
0
 20
1
 30
0
  9
$UCSORTHOREF
  2

  9
$UCSORTHOVIEW
 70
    0
  9
$UCSORGTOP
 10
0
 20
0
 30
0
  9
$UCSORGBOTTOM
 10
0
 20
0
 30
0
  9
$UCSORGLEFT
 10
0
 20
0
 30
0
  9
$UCSORGRIGHT
 10
0
 20
0
 30
0
  9
$UCSORGFRONT
 10
0
 20
0
 30
0
  9
$UCSORGBACK
 10
0
 20
0
 30
0
  9
$PUCSBASE
  2

  9
$PUCSNAME
  2

  9
$PUCSORG
 10
0
 20
0
 30
0
  9
$PUCSXDIR
 10
1
 20
0
 30
0
  9
$PUCSYDIR
 10
0
 20
1
 30
0
  9
$PUCSORTHOREF
  2

  9
$PUCSORTHOVIEW
 70
    0
  9
$PUCSORGTOP
 10
0
 20
0
 30
0
  9
$PUCSORGBOTTOM
 10
0
 20
0
 30
0
  9
$PUCSORGLEFT
 10
0
 20
0
 30
0
  9
$PUCSORGRIGHT
 10
0
 20
0
 30
0
  9
$PUCSORGFRONT
 10
0
 20
0
 30
0
  9
$PUCSORGBACK
 10
0
 20
0
 30
0
  9
$USERI1
 70
    0
  9
$USERI2
 70
    0
  9
$USERI3
 70
    0
  9
$USERI4
 70
    0
  9
$USERI5
 70
    0
  9
$USERR1
 40
0
  9
$USERR2
 40
0
  9
$USERR3
 40
0
  9
$USERR4
 40
0
  9
$USERR5
 40
0
  9
$WORLDVIEW
 70
    1
  9
$SHADEDGE
 70
    3
  9
$SHADEDIF
 70
   70
  9
$TILEMODE
 70
    1
  9
$MAXACTVP
 70
   64
  9
$PINSBASE
 10
0
 20
0
 30
0
  9
$PLIMCHECK
 70
    0
  9
$PEXTMIN
 10
0
 20
0
 30
0
  9
$PEXTMAX
 10
0
 20
0
 30
0
  9
$GRIDMODE
 70
    1
  9
$SNAPSTYLE
 70
    0
  9
$PLIMMIN
 10
0
 20
0
  9
$PLIMMAX
 10
0.0005045270181060545
 20
0.0007135453541785627
  9
$UNITMODE
 70
    0
  9
$VISRETAIN
 70
    1
  9
$PLINEGEN
 70
    0
  9
$PSLTSCALE
 70
    1
  9
$TREEDEPTH
 70
 3020
  9
$CMLSTYLE
  2
Standard
  9
$CMLJUST
 70
    0
  9
$CMLSCALE
 40
20
  9
$PROXYGRAPHICS
 70
    1
  9
$MEASUREMENT
 70
    1
  9
$CELWEIGHT
370
   -1
  9
$ENDCAPS
280
    0
  9
$JOINSTYLE
280
    0
  9
$LWDISPLAY
290
    0
  9
$INSUNITS
 70
    1
  9
$HYPERLINKBASE
  1

  9
$STYLESHEET
  1

  9
$XEDIT
290
    1
  9
$CEPSNTYPE
380
    0
  9
$PSTYLEMODE
290
    1
  9
$EXTNAMES
290
    1
  9
$PSVPSCALE
 40
1
  9
$OLESTARTUP
290
    0
  9
$SORTENTS
280
  127
  9
$INDEXCTL
280
    0
  9
$HIDETEXT
280
    1
  9
$XCLIPFRAME
290
    0
  9
$HALOGAP
280
    0
  9
$OBSCOLOR
 70
  257
  9
$OBSLTYPE
280
    0
  9
$INTERSECTIONDISPLAY
280
    0
  9
$INTERSECTIONCOLOR
 70
  257
  9
$DIMASSOC
280
    1
  9
$PROJECTNAME
  1

  9
$CAMERADISPLAY
290
    0
  9
$LENSLENGTH
 40
50
  9
$CAMERAHEIGHT
 40
0
  9
$STEPSPERSEC
 40
2
  9
$STEPSIZE
 40
50
  9
$3DDWFPREC
 40
2
  9
$PSOLWIDTH
 40
5
  9
$PSOLHEIGHT
 40
80
  9
$LOFTANG1
 40
1.570796326794897
  9
$LOFTANG2
 40
1.570796326794897
  9
$LOFTMAG1
 40
0
  9
$LOFTMAG2
 40
0
  9
$LOFTPARAM
 70
    7
  9
$LOFTNORMALS
280
    1
  9
$LATITUDE
 40
1
  9
$LONGITUDE
 40
1
  9
$NORTHDIRECTION
 40
0
  9
$TIMEZONE
 70
-8000
  9
$LIGHTGLYPHDISPLAY
280
    1
  9
$TILEMODELIGHTSYNCH
280
    1
  9
$SOLIDHIST
280
    1
  9
$SHOWHIST
280
    1
  9
$DWFFRAME
280
    2
  9
$DGNFRAME
280
    0
  9
$REALWORLDSCALE
290
    1
  9
$INTERFERECOLOR
 62
    1
  9
$CSHADOW
280
    0
  9
$SHADOWPLANELOCATION
 40
0
  0
ENDSEC
  0
SECTION
  2
CLASSES
  0
ENDSEC
  0
SECTION
  2
TABLES
  0
TABLE
  2
VPORT
  5
8
330
0
100
AcDbSymbolTable
 70
    1
  0
VPORT
  5
31
330
2
100
AcDbSymbolTableRecord
100
AcDbViewportTableRecord
  2
*ACTIVE
 70
    0
 10
0
 20
0
 11
1
 21
1
 12
61.8248440863014
 22
40.64962238411564
 13
0
 23
0
 14
10
 24
10
 15
10
 25
10
 16
0
 26
0
 36
1
 17
0
 27
0
 37
0
 40
113.7849262551187
 41
1.899850523168909
 42
50
 43
0
 44
0
 50
0
 51
0
 71
    0
 72
  100
 73
    1
 74
    3
 75
    0
 76
    1
 77
    0
 78
    0
281
    0
 65
    1
110
0
120
0
130
0
111
1
121
0
131
0
112
0
122
1
132
0
 79
    0
146
0
348
10020
 60
    7
 61
    5
292
1
282
    1
141
0
142
0
 63
  250
421
3358443
  0
ENDTAB
  0
TABLE
  2
LTYPE
  5
5
330
0
100
AcDbSymbolTable
 70
    4
  0
LTYPE
  5
14
330
5
100
AcDbSymbolTableRecord
100
AcDbLinetypeTableRecord
  2
ByBlock
 70
    0
  3

 72
   65
 73
    0
 40
0
  0
LTYPE
  5
15
330
5
100
AcDbSymbolTableRecord
100
AcDbLinetypeTableRecord
  2
ByLayer
 70
    0
  3

 72
   65
 73
    0
 40
0
  0
LTYPE
  5
16
330
5
100
AcDbSymbolTableRecord
100
AcDbLinetypeTableRecord
  2
Continuous
 70
    0
  3
Solid line
 72
   65
 73
    0
 40
0
  0
LTYPE
  5
32
330
5
100
AcDbSymbolTableRecord
100
AcDbLinetypeTableRecord
  2
DOT
 70
    0
  3
Dot . . . . . . . . . . . . . . . . . . . . . .
 72
   65
 73
    2
 40
6.35
 49
0
 74
    0
 49
-6.35
 74
    0
  0
LTYPE
  5
33
330
5
100
AcDbSymbolTableRecord
100
AcDbLinetypeTableRecord
  2
DOTTINY
 70
    0
  3
Dot (.15x) .....................................
 72
   65
 73
    2
 40
0.9525
 49
0
 74
    0
 49
-0.9525
 74
    0
  0
LTYPE
  5
34
330
5
100
AcDbSymbolTableRecord
100
AcDbLinetypeTableRecord
  2
DOT2
 70
    0
  3
Dot (.5x) .....................................
 72
   65
 73
    2
 40
3.175
 49
0
 74
    0
 49
-3.175
 74
    0
  0
LTYPE
  5
35
330
5
100
AcDbSymbolTableRecord
100
AcDbLinetypeTableRecord
  2
DOTX2
 70
    0
  3
Dot (2x) .  .  .  .  .  .  .  .  .  .  .  .  .
 72
   65
 73
    2
 40
12.7
 49
0
 74
    0
 49
-12.7
 74
    0
  0
LTYPE
  5
36
330
5
100
AcDbSymbolTableRecord
100
AcDbLinetypeTableRecord
  2
DASHED
 70
    0
  3
Dashed _ _ _ _ _ _ _ _ _ _ _ _ _ _ _ _ _
 72
   65
 73
    2
 40
19.05
 49
12.7
 74
    0
 49
-6.35
 74
    0
  0
LTYPE
  5
37
330
5
100
AcDbSymbolTableRecord
100
AcDbLinetypeTableRecord
  2
DASHEDTINY
 70
    0
  3
Dashed (.15x) _ _ _ _ _ _ _ _ _ _ _ _ _ _ _ _ _
 72
   65
 73
    2
 40
2.8575
 49
1.905
 74
    0
 49
-0.9525
 74
    0
  0
LTYPE
  5
38
330
5
100
AcDbSymbolTableRecord
100
AcDbLinetypeTableRecord
  2
DASHED2
 70
    0
  3
Dashed (.5x) _ _ _ _ _ _ _ _ _ _ _ _ _ _ _ _ _
 72
   65
 73
    2
 40
9.524999999999999
 49
6.35
 74
    0
 49
-3.175
 74
    0
  0
LTYPE
  5
39
330
5
100
AcDbSymbolTableRecord
100
AcDbLinetypeTableRecord
  2
DASHEDX2
 70
    0
  3
Dashed (2x) ____  ____  ____  ____  ____  ___
 72
   65
 73
    2
 40
38.09999999999999
 49
25.4
 74
    0
 49
-12.7
 74
    0
  0
LTYPE
  5
3A
330
5
100
AcDbSymbolTableRecord
100
AcDbLinetypeTableRecord
  2
DASHDOT
 70
    0
  3
Dash dot __ . __ . __ . __ . __ . __ . __ . __
 72
   65
 73
    4
 40
25.4
 49
12.7
 74
    0
 49
-6.35
 74
    0
 49
0
 74
    0
 49
-6.35
 74
    0
  0
LTYPE
  5
3B
330
5
100
AcDbSymbolTableRecord
100
AcDbLinetypeTableRecord
  2
DASHDOTTINY
 70
    0
  3
Dash dot (.15x) _._._._._._._._._._._._._._._.
 72
   65
 73
    4
 40
3.81
 49
1.905
 74
    0
 49
-0.9525
 74
    0
 49
0
 74
    0
 49
-0.9525
 74
    0
  0
LTYPE
  5
3C
330
5
100
AcDbSymbolTableRecord
100
AcDbLinetypeTableRecord
  2
DASHDOT2
 70
    0
  3
Dash dot (.5x) _._._._._._._._._._._._._._._.
 72
   65
 73
    4
 40
12.7
 49
6.35
 74
    0
 49
-3.175
 74
    0
 49
0
 74
    0
 49
-3.175
 74
    0
  0
LTYPE
  5
3D
330
5
100
AcDbSymbolTableRecord
100
AcDbLinetypeTableRecord
  2
DASHDOTX2
 70
    0
  3
Dash dot (2x) ____  .  ____  .  ____  .  ___
 72
   65
 73
    4
 40
50.8
 49
25.4
 74
    0
 49
-12.7
 74
    0
 49
0
 74
    0
 49
-12.7
 74
    0
  0
LTYPE
  5
3E
330
5
100
AcDbSymbolTableRecord
100
AcDbLinetypeTableRecord
  2
DIVIDE
 70
    0
  3
Divide ____ . . ____ . . ____ . . ____ . . ____
 72
   65
 73
    6
 40
31.75
 49
12.7
 74
    0
 49
-6.35
 74
    0
 49
0
 74
    0
 49
-6.35
 74
    0
 49
0
 74
    0
 49
-6.35
 74
    0
  0
LTYPE
  5
3F
330
5
100
AcDbSymbolTableRecord
100
AcDbLinetypeTableRecord
  2
DIVIDETINY
 70
    0
  3
Divide (.15x) __..__..__..__..__..__..__..__.._
 72
   65
 73
    6
 40
4.7625
 49
1.905
 74
    0
 49
-0.9525
 74
    0
 49
0
 74
    0
 49
-0.9525
 74
    0
 49
0
 74
    0
 49
-0.9525
 74
    0
  0
LTYPE
  5
40
330
5
100
AcDbSymbolTableRecord
100
AcDbLinetypeTableRecord
  2
DIVIDE2
 70
    0
  3
Divide (.5x) __..__..__..__..__..__..__..__.._
 72
   65
 73
    6
 40
15.875
 49
6.35
 74
    0
 49
-3.175
 74
    0
 49
0
 74
    0
 49
-3.175
 74
    0
 49
0
 74
    0
 49
-3.175
 74
    0
  0
LTYPE
  5
41
330
5
100
AcDbSymbolTableRecord
100
AcDbLinetypeTableRecord
  2
DIVIDEX2
 70
    0
  3
Divide (2x) ________  .  .  ________  .  .  _
 72
   65
 73
    6
 40
63.5
 49
25.4
 74
    0
 49
-12.7
 74
    0
 49
0
 74
    0
 49
-12.7
 74
    0
 49
0
 74
    0
 49
-12.7
 74
    0
  0
LTYPE
  5
42
330
5
100
AcDbSymbolTableRecord
100
AcDbLinetypeTableRecord
  2
BORDER
 70
    0
  3
Border __ __ . __ __ . __ __ . __ __ . __ __ .
 72
   65
 73
    6
 40
44.45
 49
12.7
 74
    0
 49
-6.35
 74
    0
 49
12.7
 74
    0
 49
-6.35
 74
    0
 49
0
 74
    0
 49
-6.35
 74
    0
  0
LTYPE
  5
43
330
5
100
AcDbSymbolTableRecord
100
AcDbLinetypeTableRecord
  2
BORDERTINY
 70
    0
  3
Border (.15x) __.__.__.__.__.__.__.__.__.__.__.
 72
   65
 73
    6
 40
6.6675
 49
1.905
 74
    0
 49
-0.9525
 74
    0
 49
1.905
 74
    0
 49
-0.9525
 74
    0
 49
0
 74
    0
 49
-0.9525
 74
    0
  0
LTYPE
  5
44
330
5
100
AcDbSymbolTableRecord
100
AcDbLinetypeTableRecord
  2
BORDER2
 70
    0
  3
Border (.5x) __.__.__.__.__.__.__.__.__.__.__.
 72
   65
 73
    6
 40
22.225
 49
6.35
 74
    0
 49
-3.175
 74
    0
 49
6.35
 74
    0
 49
-3.175
 74
    0
 49
0
 74
    0
 49
-3.175
 74
    0
  0
LTYPE
  5
45
330
5
100
AcDbSymbolTableRecord
100
AcDbLinetypeTableRecord
  2
BORDERX2
 70
    0
  3
Border (2x) ____  ____  .  ____  ____  .  ___
 72
   65
 73
    6
 40
88.89999999999999
 49
25.4
 74
    0
 49
-12.7
 74
    0
 49
25.4
 74
    0
 49
-12.7
 74
    0
 49
0
 74
    0
 49
-12.7
 74
    0
  0
LTYPE
  5
46
330
5
100
AcDbSymbolTableRecord
100
AcDbLinetypeTableRecord
  2
CENTER
 70
    0
  3
Center ____ _ ____ _ ____ _ ____ _ ____ _ ____
 72
   65
 73
    4
 40
50.8
 49
31.75
 74
    0
 49
-6.35
 74
    0
 49
6.35
 74
    0
 49
-6.35
 74
    0
  0
LTYPE
  5
47
330
5
100
AcDbSymbolTableRecord
100
AcDbLinetypeTableRecord
  2
CENTERTINY
 70
    0
  3
Center (.15x) ___ _ ___ _ ___ _ ___ _ ___ _ ___
 72
   65
 73
    4
 40
7.619999999999999
 49
4.7625
 74
    0
 49
-0.9525
 74
    0
 49
0.9525
 74
    0
 49
-0.9525
 74
    0
  0
LTYPE
  5
48
330
5
100
AcDbSymbolTableRecord
100
AcDbLinetypeTableRecord
  2
CENTER2
 70
    0
  3
Center (.5x) ___ _ ___ _ ___ _ ___ _ ___ _ ___
 72
   65
 73
    4
 40
28.575
 49
19.05
 74
    0
 49
-3.175
 74
    0
 49
3.175
 74
    0
 49
-3.175
 74
    0
  0
LTYPE
  5
49
330
5
100
AcDbSymbolTableRecord
100
AcDbLinetypeTableRecord
  2
CENTERX2
 70
    0
  3
Center (2x) ________  __  ________  __  _____
 72
   65
 73
    4
 40
101.6
 49
63.5
 74
    0
 49
-12.7
 74
    0
 49
12.7
 74
    0
 49
-12.7
 74
    0
  0
ENDTAB
  0
TABLE
  2
LAYER
  5
2
330
0
100
AcDbSymbolTable
 70
    1
  0
LAYER
  5
10
330
2
100
AcDbSymbolTableRecord
100
AcDbLayerTableRecord
  2
0
 70
    0
 62
    7
  6
CONTINUOUS
370
    0
390
F
  0
LAYER
  5
4A
330
2
100
AcDbSymbolTableRecord
100
AcDbLayerTableRecord
  2
construction_0
 70
    0
 62
    7
  6
CONTINUOUS
370
    0
390
F
  0
LAYER
  5
4B
330
2
100
AcDbSymbolTableRecord
100
AcDbLayerTableRecord
  2
construction_1
 70
    0
 62
  253
420
10526884
  6
CONTINUOUS
370
    0
390
F
  0
LAYER
  5
4C
330
2
100
AcDbSymbolTableRecord
100
AcDbLayerTableRecord
  2
inner_frame_1
 70
    0
 62
    3
  6
CONTINUOUS
370
    0
390
F
  0
LAYER
  5
4D
330
2
100
AcDbSymbolTableRecord
100
AcDbLayerTableRecord
  2
inner_frame_2
 70
    0
 62
    6
  6
CONTINUOUS
370
    0
390
F
  0
LAYER
  5
4E
330
2
100
AcDbSymbolTableRecord
100
AcDbLayerTableRecord
  2
light_plate
 70
    0
 62
    4
  6
CONTINUOUS
370
    0
390
F
  0
LAYER
  5
4F
330
2
100
AcDbSymbolTableRecord
100
AcDbLayerTableRecord
  2
outer_frame
 70
    0
 62
    2
  6
CONTINUOUS
370
    0
390
F
  0
ENDTAB
  0
TABLE
  2
STYLE
  5
3
330
0
100
AcDbSymbolTable
 70
    3
  0
STYLE
  5
50
330
2
100
AcDbSymbolTableRecord
100
AcDbTextStyleTableRecord
  2
Standard
 70
    0
 40
0
 41
1
 50
0
 71
    0
 42
1
  3
txt
  4

  0
ENDTAB
  0
TABLE
  2
VIEW
  5
6
330
0
100
AcDbSymbolTable
 70
    0
  0
ENDTAB
  0
TABLE
  2
UCS
  5
7
330
0
100
AcDbSymbolTable
 70
    0
  0
ENDTAB
  0
TABLE
  2
APPID
  5
9
330
0
100
AcDbSymbolTable
 70
    1
  0
APPID
  5
12
330
9
100
AcDbSymbolTableRecord
100
AcDbRegAppTableRecord
  2
ACAD
 70
    0
  0
APPID
  5
51
330
9
100
AcDbSymbolTableRecord
100
AcDbRegAppTableRecord
  2
LibreCad
 70
    0
  0
ENDTAB
  0
TABLE
  2
DIMSTYLE
  5
A
330
0
100
AcDbSymbolTable
 70
    1
100
AcDbDimStyleTable
 71
    1
  0
DIMSTYLE
105
52
330
A
100
AcDbSymbolTableRecord
100
AcDbDimStyleTableRecord
  2
Standard
 70
    0
 40
2.5
 41
0.1
 42
0.025
 43
0.38
 44
0.05
 45
0
 46
0
 47
0
 48
0
 49
1
140
0.1
141
0.09
142
0
143
25.4
144
1
145
0
146
1
147
0.025
148
0
 71
    0
 72
    0
 73
    0
 74
    1
 75
    0
 76
    0
 77
    0
 78
    8
 79
    0
170
    0
171
    2
172
    0
173
    0
174
    0
175
    0
176
    0
177
    0
178
    0
179
    0
271
    2
272
    4
273
    2
274
    2
275
    0
276
    0
277
    2
278
   44
279
    0
280
    0
281
    0
282
    0
283
    1
284
    0
285
    0
286
    0
288
    0
289
    3
340
STANDARD
341

371
   -2
372
   -2
  0
ENDTAB
  0
TABLE
  2
BLOCK_RECORD
  5
1
330
0
100
AcDbSymbolTable
 70
    2
  0
BLOCK_RECORD
  5
1F
330
1
100
AcDbSymbolTableRecord
100
AcDbBlockTableRecord
  2
*Model_Space
 70
    0
280
    1
281
    0
  0
BLOCK_RECORD
  5
1E
330
1
100
AcDbSymbolTableRecord
100
AcDbBlockTableRecord
  2
*Paper_Space
 70
    0
280
    1
281
    0
  0
ENDTAB
  0
ENDSEC
  0
SECTION
  2
BLOCKS
  0
BLOCK
  5
20
330
1F
100
AcDbEntity
  8
0
100
AcDbBlockBegin
  2
*Model_Space
 70
    0
 10
0
 20
0
 30
0
  3
*Model_Space
  1

  0
ENDBLK
  5
21
330
1F
100
AcDbEntity
  8
0
100
AcDbBlockEnd
  0
BLOCK
  5
1C
330
1B
100
AcDbEntity
  8
0
100
AcDbBlockBegin
  2
*Paper_Space
 70
    0
 10
0
 20
0
 30
0
  3
*Paper_Space
  1

  0
ENDBLK
  5
1D
330
1F
100
AcDbEntity
  8
0
100
AcDbBlockEnd
  0
ENDSEC
  0
SECTION
  2
ENTITIES
  0
LINE
  5
53
100
AcDbEntity
  8
construction_0
  6
ByLayer
 62
  256
370
   -1
100
AcDbLine
 10
-10
 20
3
 11
-10
 21
-3
  0
LINE
  5
54
100
AcDbEntity
  8
inner_frame_1
  6
ByLayer
 62
  256
370
   -1
100
AcDbLine
 10
-7
 20
-3
 11
-7
 21
-3.399999999999999
  0
LINE
  5
55
100
AcDbEntity
  8
inner_frame_1
  6
ByLayer
 62
  256
370
   -1
100
AcDbLine
 10
-7.069999999999993
 20
-3
 11
-7.069999999999993
 21
-3.399999999999999
  0
ARC
  5
56
100
AcDbEntity
  8
inner_frame_1
  6
ByLayer
 62
  256
370
   -1
100
AcDbCircle
 10
-12.7
 20
2.699999999999999
 40
0.3
100
AcDbArc
 50
90.00000000000034
 51
180
  0
ARC
  5
57
100
AcDbEntity
  8
inner_frame_1
  6
ByLayer
 62
  256
370
   -1
100
AcDbCircle
 10
-7.299999999999997
 20
2.699999999999999
 40
0.3
100
AcDbArc
 50
0
 51
90
  0
ARC
  5
58
100
AcDbEntity
  8
inner_frame_1
  6
ByLayer
 62
  256
370
   -1
100
AcDbCircle
 10
-12.7
 20
-2.699999999999999
 40
0.3
100
AcDbArc
 50
180
 51
270
  0
ARC
  5
59
100
AcDbEntity
  8
inner_frame_1
  6
ByLayer
 62
  256
370
   -1
100
AcDbCircle
 10
-13.09999999999999
 20
-3.100000000000001
 40
0.3
100
AcDbArc
 50
180
 51
270
  0
ARC
  5
5A
100
AcDbEntity
  8
inner_frame_1
  6
ByLayer
 62
  256
370
   -1
100
AcDbCircle
 10
-6.900000000000006
 20
-3.100000000000001
 40
0.3
100
AcDbArc
 50
270
 51
0
  0
ARC
  5
5B
100
AcDbEntity
  8
inner_frame_1
  6
ByLayer
 62
  256
370
   -1
100
AcDbCircle
 10
-6.900000000000006
 20
3.100000000000001
 40
0.3
100
AcDbArc
 50
7.63333123551244e-14
 51
90
  0
ARC
  5
5C
100
AcDbEntity
  8
inner_frame_1
  6
ByLayer
 62
  256
370
   -1
100
AcDbCircle
 10
-13.09999999999999
 20
3.100000000000001
 40
0.3
100
AcDbArc
 50
90.00000000000034
 51
180
  0
LINE
  5
5D
100
AcDbEntity
  8
construction_0
  6
ByLayer
 62
  256
370
   -1
100
AcDbLine
 10
-6.599999999999994
 20
-3.399999999999999
 11
-6.599999999999994
 21
3.399999999999999
  0
LINE
  5
5E
100
AcDbEntity
  8
construction_0
  6
ByLayer
 62
  256
370
   -1
100
AcDbLine
 10
-6.599999999999994
 20
3.399999999999999
 11
-13.40000000000001
 21
3.399999999999999
  0
LINE
  5
5F
100
AcDbEntity
  8
construction_0
  6
ByLayer
 62
  256
370
   -1
100
AcDbLine
 10
-13.40000000000001
 20
3.399999999999999
 11
-13.40000000000001
 21
-3.399999999999999
  0
LINE
  5
60
100
AcDbEntity
  8
construction_0
  6
ByLayer
 62
  256
370
   -1
100
AcDbLine
 10
-7
 20
-3
 11
-7
 21
3
  0
LINE
  5
61
100
AcDbEntity
  8
construction_0
  6
ByLayer
 62
  256
370
   -1
100
AcDbLine
 10
-7
 20
3
 11
-13
 21
3
  0
LINE
  5
62
100
AcDbEntity
  8
construction_0
  6
ByLayer
 62
  256
370
   -1
100
AcDbLine
 10
-13
 20
3
 11
-13
 21
-3
  0
LINE
  5
63
100
AcDbEntity
  8
construction_0
  6
ByLayer
 62
  256
370
   -1
100
AcDbLine
 10
-13
 20
-3
 11
-7.069999999999993
 21
-3
  0
LINE
  5
64
100
AcDbEntity
  8
construction_0
  6
ByLayer
 62
  256
370
   -1
100
AcDbLine
 10
-13.40000000000001
 20
-3.399999999999999
 11
-7.069999999999993
 21
-3.399999999999999
  0
LINE
  5
65
100
AcDbEntity
  8
inner_frame_1
  6
ByLayer
 62
  256
370
   -1
100
AcDbLine
 10
-13.09999999999999
 20
3.399999999999999
 11
-6.900000000000006
 21
3.399999999999999
  0
LINE
  5
66
100
AcDbEntity
  8
inner_frame_1
  6
ByLayer
 62
  256
370
   -1
100
AcDbLine
 10
-6.599999999999994
 20
3.100000000000001
 11
-6.599999999999994
 21
-3.100000000000001
  0
LINE
  5
67
100
AcDbEntity
  8
inner_frame_1
  6
ByLayer
 62
  256
370
   -1
100
AcDbLine
 10
-7
 20
2.699999999999999
 11
-7
 21
-3
  0
LINE
  5
68
100
AcDbEntity
  8
inner_frame_1
  6
ByLayer
 62
  256
370
   -1
100
AcDbLine
 10
-7.069999999999993
 20
-3
 11
-12.7
 21
-3
  0
LINE
  5
69
100
AcDbEntity
  8
inner_frame_1
  6
ByLayer
 62
  256
370
   -1
100
AcDbLine
 10
-13.09999999999999
 20
-3.399999999999999
 11
-7.069999999999993
 21
-3.399999999999999
  0
LINE
  5
6A
100
AcDbEntity
  8
inner_frame_1
  6
ByLayer
 62
  256
370
   -1
100
AcDbLine
 10
-13.40000000000001
 20
-3.100000000000001
 11
-13.40000000000001
 21
3.100000000000001
  0
LINE
  5
6B
100
AcDbEntity
  8
inner_frame_1
  6
ByLayer
 62
  256
370
   -1
100
AcDbLine
 10
-13
 20
2.699999999999999
 11
-13
 21
-2.699999999999999
  0
LINE
  5
6C
100
AcDbEntity
  8
inner_frame_1
  6
ByLayer
 62
  256
370
   -1
100
AcDbLine
 10
-12.7
 20
3
 11
-7.299999999999997
 21
3
  0
LINE
  5
6D
100
AcDbEntity
  8
construction_0
  6
ByLayer
 62
  256
370
   -1
100
AcDbLine
 10
-7
 20
-3.399999999999999
 11
-6.599999999999994
 21
-3.399999999999999
  0
LINE
  5
6E
100
AcDbEntity
  8
inner_frame_1
  6
ByLayer
 62
  256
370
   -1
100
AcDbLine
 10
-7
 20
-3.399999999999999
 11
-6.900000000000006
 21
-3.399999999999999
  0
CIRCLE
  5
6F
100
AcDbEntity
  8
construction_0
  6
ByLayer
 62
  256
370
   -1
100
AcDbCircle
 10
-13.2
 20
3.199999999999999
 40
0.058
  0
CIRCLE
  5
70
100
AcDbEntity
  8
construction_0
  6
ByLayer
 62
  256
370
   -1
100
AcDbCircle
 10
-6.799999999999997
 20
3.199999999999999
 40
0.058
  0
CIRCLE
  5
71
100
AcDbEntity
  8
construction_0
  6
ByLayer
 62
  256
370
   -1
100
AcDbCircle
 10
-13.2
 20
-3.199999999999999
 40
0.058
  0
CIRCLE
  5
72
100
AcDbEntity
  8
construction_0
  6
ByLayer
 62
  256
370
   -1
100
AcDbCircle
 10
-6.799999999999997
 20
-3.199999999999999
 40
0.058
  0
LWPOLYLINE
  5
73
100
AcDbEntity
  8
construction_1
  6
ByLayer
 62
  256
370
   -1
100
AcDbPolyline
 90
    4
 70
    1
 43
0
 10
-13.2
 20
3.199999999999999
 10
-6.799999999999997
 20
3.199999999999999
 10
-6.799999999999997
 20
-3.199999999999999
 10
-13.2
 20
-3.199999999999999
  0
LWPOLYLINE
  5
74
100
AcDbEntity
  8
construction_0
  6
ByLayer
 62
  256
370
   -1
100
AcDbPolyline
 90
    4
 70
    1
 43
0
 10
-13.2
 20
2.899999999999999
 10
-6.799999999999997
 20
2.899999999999999
 10
-6.799999999999997
 20
-2.899999999999999
 10
-13.2
 20
-2.899999999999999
  0
CIRCLE
  5
75
100
AcDbEntity
  8
construction_0
  6
ByLayer
 62
  256
370
   -1
100
AcDbCircle
 10
-13.2
 20
2.899999999999999
 40
0.058
  0
CIRCLE
  5
76
100
AcDbEntity
  8
construction_0
  6
ByLayer
 62
  256
370
   -1
100
AcDbCircle
 10
-6.799999999999997
 20
2.899999999999999
 40
0.058
  0
CIRCLE
  5
77
100
AcDbEntity
  8
construction_0
  6
ByLayer
 62
  256
370
   -1
100
AcDbCircle
 10
-6.799999999999997
 20
-2.899999999999999
 40
0.058
  0
CIRCLE
  5
78
100
AcDbEntity
  8
construction_0
  6
ByLayer
 62
  256
370
   -1
100
AcDbCircle
 10
-13.2
 20
-2.899999999999999
 40
0.058
  0
LINE
  5
79
100
AcDbEntity
  8
construction_0
  6
ByLayer
 62
  256
370
   -1
100
AcDbLine
 10
-10
 20
2.93
 11
-10
 21
-2.93
  0
ARC
  5
7A
100
AcDbEntity
  8
light_plate
  6
ByLayer
 62
  256
370
   -1
100
AcDbCircle
 10
-12.63
 20
2.629999999999999
 40
0.3
100
AcDbArc
 50
89.99999999999986
 51
180
  0
ARC
  5
7B
100
AcDbEntity
  8
light_plate
  6
ByLayer
 62
  256
370
   -1
100
AcDbCircle
 10
-7.369999999999997
 20
2.629999999999999
 40
0.3
100
AcDbArc
 50
0
 51
90
  0
ARC
  5
7C
100
AcDbEntity
  8
light_plate
  6
ByLayer
 62
  256
370
   -1
100
AcDbCircle
 10
-12.63
 20
-2.629999999999999
 40
0.3
100
AcDbArc
 50
179.9999999999999
 51
270
  0
LINE
  5
7D
100
AcDbEntity
  8
construction_0
  6
ByLayer
 62
  256
370
   -1
100
AcDbLine
 10
-7.07
 20
2.93
 11
-12.93
 21
2.93
  0
LINE
  5
7E
100
AcDbEntity
  8
construction_0
  6
ByLayer
 62
  256
370
   -1
100
AcDbLine
 10
-12.93
 20
2.93
 11
-12.93
 21
-2.93
  0
LINE
  5
7F
100
AcDbEntity
  8
light_plate
  6
ByLayer
 62
  256
370
   -1
100
AcDbLine
 10
-12.93
 20
-2.629999999999999
 11
-12.93
 21
2.629999999999999
  0
LINE
  5
80
100
AcDbEntity
  8
light_plate
  6
ByLayer
 62
  256
370
   -1
100
AcDbLine
 10
-12.63
 20
2.93
 11
-7.369999999999997
 21
2.93
  0
LWPOLYLINE
  5
81
100
AcDbEntity
  8
construction_1
  6
ByLayer
 62
  256
370
   -1
100
AcDbPolyline
 90
    4
 70
    1
 43
0
 10
-7.270000000000003
 20
2.73
 10
-12.73
 20
2.73
 10
-12.73
 20
-2.73
 10
-7.270000000000003
 20
-2.73
  0
CIRCLE
  5
82
100
AcDbEntity
  8
construction_0
  6
ByLayer
 62
  256
370
   -1
100
AcDbCircle
 10
-12.73
 20
2.73
 40
0.058
  0
CIRCLE
  5
83
100
AcDbEntity
  8
construction_0
  6
ByLayer
 62
  256
370
   -1
100
AcDbCircle
 10
-7.270000000000003
 20
2.73
 40
0.058
  0
CIRCLE
  5
84
100
AcDbEntity
  8
construction_0
  6
ByLayer
 62
  256
370
   -1
100
AcDbCircle
 10
-7.270000000000003
 20
-2.73
 40
0.058
  0
CIRCLE
  5
85
100
AcDbEntity
  8
construction_0
  6
ByLayer
 62
  256
370
   -1
100
AcDbCircle
 10
-12.73
 20
-2.73
 40
0.058
  0
LINE
  5
86
100
AcDbEntity
  8
light_plate
  6
ByLayer
 62
  256
370
   -1
100
AcDbLine
 10
-7.07
 20
-2.93
 11
-7.07
 21
2.629999999999999
  0
LINE
  5
87
100
AcDbEntity
  8
light_plate
  6
ByLayer
 62
  256
370
   -1
100
AcDbLine
 10
-12.63
 20
-2.93
 11
-7.07
 21
-2.93
  0
LINE
  5
88
100
AcDbEntity
  8
construction_0
  6
ByLayer
 62
  256
370
   -1
100
AcDbLine
 10
-10
 20
2.93
 11
-10
 21
-2.93
  0
LINE
  5
89
100
AcDbEntity
  8
construction_0
  6
ByLayer
 62
  256
370
   -1
100
AcDbLine
 10
-10
 20
2.529999999999999
 11
-10
 21
-2.530000000000001
  0
ARC
  5
8A
100
AcDbEntity
  8
inner_frame_2
  6
ByLayer
 62
  256
370
   -1
100
AcDbCircle
 10
-12.63
 20
2.630000000000003
 40
0.3
100
AcDbArc
 50
89.99999999999983
 51
180
  0
ARC
  5
8B
100
AcDbEntity
  8
inner_frame_2
  6
ByLayer
 62
  256
370
   -1
100
AcDbCircle
 10
-12.23
 20
2.229999999999999
 40
0.3
100
AcDbArc
 50
90
 51
180
  0
ARC
  5
8C
100
AcDbEntity
  8
inner_frame_2
  6
ByLayer
 62
  256
370
   -1
100
AcDbCircle
 10
-7.769999999999996
 20
2.229999999999999
 40
0.3
100
AcDbArc
 50
1.781110621619569e-13
 51
90
  0
ARC
  5
8D
100
AcDbEntity
  8
inner_frame_2
  6
ByLayer
 62
  256
370
   -1
100
AcDbCircle
 10
-7.369999999999997
 20
2.630000000000003
 40
0.3
100
AcDbArc
 50
0
 51
90
  0
ARC
  5
8E
100
AcDbEntity
  8
inner_frame_2
  6
ByLayer
 62
  256
370
   -1
100
AcDbCircle
 10
-12.23
 20
-2.23
 40
0.3
100
AcDbArc
 50
180
 51
270
  0
ARC
  5
8F
100
AcDbEntity
  8
inner_frame_2
  6
ByLayer
 62
  256
370
   -1
100
AcDbCircle
 10
-12.63
 20
-2.629999999999999
 40
0.3
100
AcDbArc
 50
180
 51
270
  0
ARC
  5
90
100
AcDbEntity
  8
inner_frame_2
  6
ByLayer
 62
  256
370
   -1
100
AcDbCircle
 10
-7.769999999999996
 20
-2.23
 40
0.3
100
AcDbArc
 50
270
 51
0
  0
LINE
  5
91
100
AcDbEntity
  8
construction_0
  6
ByLayer
 62
  256
370
   -1
100
AcDbLine
 10
-7.07
 20
2.93
 11
-12.93
 21
2.93
  0
LINE
  5
92
100
AcDbEntity
  8
construction_0
  6
ByLayer
 62
  256
370
   -1
100
AcDbLine
 10
-12.93
 20
2.93
 11
-12.93
 21
-2.93
  0
LINE
  5
93
100
AcDbEntity
  8
construction_0
  6
ByLayer
 62
  256
370
   -1
100
AcDbLine
 10
-12.53
 20
-2.530000000000001
 11
-7.469999999999999
 21
-2.530000000000001
  0
LINE
  5
94
100
AcDbEntity
  8
construction_0
  6
ByLayer
 62
  256
370
   -1
100
AcDbLine
 10
-7.469999999999999
 20
-2.530000000000001
 11
-7.469999999999999
 21
2.529999999999999
  0
LINE
  5
95
100
AcDbEntity
  8
construction_0
  6
ByLayer
 62
  256
370
   -1
100
AcDbLine
 10
-7.469999999999999
 20
2.529999999999999
 11
-12.53
 21
2.529999999999999
  0
LINE
  5
96
100
AcDbEntity
  8
construction_0
  6
ByLayer
 62
  256
370
   -1
100
AcDbLine
 10
-12.53
 20
2.529999999999999
 11
-12.53
 21
-2.530000000000001
  0
LINE
  5
97
100
AcDbEntity
  8
inner_frame_2
  6
ByLayer
 62
  256
370
   -1
100
AcDbLine
 10
-12.93
 20
-2.629999999999999
 11
-12.93
 21
2.630000000000003
  0
LINE
  5
98
100
AcDbEntity
  8
inner_frame_2
  6
ByLayer
 62
  256
370
   -1
100
AcDbLine
 10
-12.63
 20
2.930000000000001
 11
-7.369999999999997
 21
2.930000000000001
  0
LINE
  5
99
100
AcDbEntity
  8
inner_frame_2
  6
ByLayer
 62
  256
370
   -1
100
AcDbLine
 10
-7.769999999999996
 20
2.529999999999998
 11
-12.23
 21
2.529999999999998
  0
LINE
  5
9A
100
AcDbEntity
  8
inner_frame_2
  6
ByLayer
 62
  256
370
   -1
100
AcDbLine
 10
-12.53
 20
2.229999999999999
 11
-12.53
 21
-2.23
  0
LINE
  5
9B
100
AcDbEntity
  8
inner_frame_2
  6
ByLayer
 62
  256
370
   -1
100
AcDbLine
 10
-12.23
 20
-2.530000000000001
 11
-7.769999999999996
 21
-2.530000000000001
  0
LINE
  5
9C
100
AcDbEntity
  8
inner_frame_2
  6
ByLayer
 62
  256
370
   -1
100
AcDbLine
 10
-7.469999999999999
 20
-2.23
 11
-7.469999999999999
 21
2.23
  0
LINE
  5
9D
100
AcDbEntity
  8
construction_1
  6
ByLayer
 62
  256
370
   -1
100
AcDbLine
 10
-12.93
 20
-2.93
 11
-12.53
 21
-2.530000000000001
  0
LINE
  5
9E
100
AcDbEntity
  8
construction_1
  6
ByLayer
 62
  256
370
   -1
100
AcDbLine
 10
-7.469999999999999
 20
2.529999999999999
 11
-7.07
 21
2.93
  0
LWPOLYLINE
  5
9F
100
AcDbEntity
  8
construction_1
  6
ByLayer
 62
  256
370
   -1
100
AcDbPolyline
 90
    4
 70
    1
 43
0
 10
-7.269999999999996
 20
2.73
 10
-12.73
 20
2.73
 10
-12.73
 20
-2.73
 10
-7.269999999999996
 20
-2.73
  0
CIRCLE
  5
A0
100
AcDbEntity
  8
construction_0
  6
ByLayer
 62
  256
370
   -1
100
AcDbCircle
 10
-12.73
 20
2.73
 40
0.058
  0
CIRCLE
  5
A1
100
AcDbEntity
  8
construction_0
  6
ByLayer
 62
  256
370
   -1
100
AcDbCircle
 10
-7.269999999999996
 20
2.73
 40
0.058
  0
CIRCLE
  5
A2
100
AcDbEntity
  8
construction_0
  6
ByLayer
 62
  256
370
   -1
100
AcDbCircle
 10
-7.269999999999996
 20
-2.73
 40
0.058
  0
CIRCLE
  5
A3
100
AcDbEntity
  8
construction_0
  6
ByLayer
 62
  256
370
   -1
100
AcDbCircle
 10
-12.73
 20
-2.73
 40
0.058
  0
LINE
  5
A4
100
AcDbEntity
  8
inner_frame_2
  6
ByLayer
 62
  256
370
   -1
100
AcDbLine
 10
-7.07
 20
-2.93
 11
-7.07
 21
2.630000000000003
  0
LINE
  5
A5
100
AcDbEntity
  8
inner_frame_2
  6
ByLayer
 62
  256
370
   -1
100
AcDbLine
 10
-12.63
 20
-2.929999999999999
 11
-7.07
 21
-2.93
  0
LINE
  5
A6
100
AcDbEntity
  8
construction_0
  6
ByLayer
 62
  256
370
   -1
100
AcDbLine
 10
-10
 20
3.399999999999999
 11
-10
 21
-3.399999999999999
  0
LINE
  5
A7
100
AcDbEntity
  8
construction_0
  6
ByLayer
 62
  256
370
   -1
100
AcDbLine
 10
-10
 20
2.530000000000001
 11
-10
 21
2.530000000000001
  0
LINE
  5
A8
100
AcDbEntity
  8
construction_0
  6
ByLayer
 62
  256
370
   -1
100
AcDbLine
 10
-10
 20
2.530000000000001
 11
-10
 21
-2.530000000000001
  0
LINE
  5
A9
100
AcDbEntity
  8
construction_0
  6
ByLayer
 62
  256
370
   -1
100
AcDbLine
 10
-10
 20
-2.530000000000001
 11
-10
 21
-2.530000000000001
  0
LINE
  5
AA
100
AcDbEntity
  8
construction_0
  6
ByLayer
 62
  256
370
   -1
100
AcDbLine
 10
-10
 20
-2.530000000000001
 11
-10
 21
2.530000000000001
  0
ARC
  5
AB
100
AcDbEntity
  8
outer_frame
  6
ByLayer
 62
  256
370
   -1
100
AcDbCircle
 10
-13.09999999999999
 20
3.100000000000001
 40
0.3
100
AcDbArc
 50
90
 51
180
  0
ARC
  5
AC
100
AcDbEntity
  8
outer_frame
  6
ByLayer
 62
  256
370
   -1
100
AcDbCircle
 10
-6.899999999999999
 20
3.100000000000001
 40
0.3
100
AcDbArc
 50
0
 51
90
  0
ARC
  5
AD
100
AcDbEntity
  8
outer_frame
  6
ByLayer
 62
  256
370
   -1
100
AcDbCircle
 10
-12.23
 20
2.23
 40
0.3
100
AcDbArc
 50
90
 51
180
  0
ARC
  5
AE
100
AcDbEntity
  8
outer_frame
  6
ByLayer
 62
  256
370
   -1
100
AcDbCircle
 10
-7.770000000000003
 20
2.23
 40
0.3
100
AcDbArc
 50
0
 51
90
  0
ARC
  5
AF
100
AcDbEntity
  8
outer_frame
  6
ByLayer
 62
  256
370
   -1
100
AcDbCircle
 10
-7.770000000000003
 20
-2.23
 40
0.3
100
AcDbArc
 50
270
 51
0
  0
ARC
  5
B0
100
AcDbEntity
  8
outer_frame
  6
ByLayer
 62
  256
370
   -1
100
AcDbCircle
 10
-12.23
 20
-2.23
 40
0.3
100
AcDbArc
 50
180
 51
270
  0
ARC
  5
B1
100
AcDbEntity
  8
outer_frame
  6
ByLayer
 62
  256
370
   -1
100
AcDbCircle
 10
-6.899999999999999
 20
-3.100000000000001
 40
0.3
100
AcDbArc
 50
270
 51
0
  0
ARC
  5
B2
100
AcDbEntity
  8
outer_frame
  6
ByLayer
 62
  256
370
   -1
100
AcDbCircle
 10
-13.09999999999999
 20
-3.100000000000001
 40
0.3
100
AcDbArc
 50
180
 51
270
  0
LINE
  5
B3
100
AcDbEntity
  8
construction_0
  6
ByLayer
 62
  256
370
   -1
100
AcDbLine
 10
-13.4
 20
-3.399999999999999
 11
-6.599999999999994
 21
-3.399999999999999
  0
LINE
  5
B4
100
AcDbEntity
  8
construction_0
  6
ByLayer
 62
  256
370
   -1
100
AcDbLine
 10
-6.599999999999994
 20
-3.399999999999999
 11
-6.599999999999994
 21
3.399999999999999
  0
LINE
  5
B5
100
AcDbEntity
  8
construction_0
  6
ByLayer
 62
  256
370
   -1
100
AcDbLine
 10
-6.599999999999994
 20
3.399999999999999
 11
-13.4
 21
3.399999999999999
  0
LINE
  5
B6
100
AcDbEntity
  8
construction_0
  6
ByLayer
 62
  256
370
   -1
100
AcDbLine
 10
-13.4
 20
3.399999999999999
 11
-13.4
 21
-3.399999999999999
  0
LINE
  5
B7
100
AcDbEntity
  8
construction_0
  6
ByLayer
 62
  256
370
   -1
100
AcDbLine
 10
-12.53
 20
-2.530000000000001
 11
-7.469999999999999
 21
-2.530000000000001
  0
LINE
  5
B8
100
AcDbEntity
  8
construction_0
  6
ByLayer
 62
  256
370
   -1
100
AcDbLine
 10
-7.469999999999999
 20
-2.530000000000001
 11
-7.469999999999999
 21
2.530000000000001
  0
LINE
  5
B9
100
AcDbEntity
  8
construction_0
  6
ByLayer
 62
  256
370
   -1
100
AcDbLine
 10
-7.469999999999999
 20
2.530000000000001
 11
-12.53
 21
2.530000000000001
  0
LINE
  5
BA
100
AcDbEntity
  8
construction_0
  6
ByLayer
 62
  256
370
   -1
100
AcDbLine
 10
-12.53
 20
2.530000000000001
 11
-12.53
 21
-2.530000000000001
  0
LINE
  5
BB
100
AcDbEntity
  8
outer_frame
  6
ByLayer
 62
  256
370
   -1
100
AcDbLine
 10
-13.09999999999999
 20
3.399999999999999
 11
-6.899999999999999
 21
3.399999999999999
  0
LINE
  5
BC
100
AcDbEntity
  8
outer_frame
  6
ByLayer
 62
  256
370
   -1
100
AcDbLine
 10
-13.4
 20
3.100000000000001
 11
-13.4
 21
-3.100000000000001
  0
LINE
  5
BD
100
AcDbEntity
  8
outer_frame
  6
ByLayer
 62
  256
370
   -1
100
AcDbLine
 10
-13.09999999999999
 20
-3.399999999999999
 11
-6.899999999999999
 21
-3.399999999999999
  0
LINE
  5
BE
100
AcDbEntity
  8
outer_frame
  6
ByLayer
 62
  256
370
   -1
100
AcDbLine
 10
-12.23
 20
-2.530000000000001
 11
-7.770000000000003
 21
-2.530000000000001
  0
LINE
  5
BF
100
AcDbEntity
  8
outer_frame
  6
ByLayer
 62
  256
370
   -1
100
AcDbLine
 10
-12.53
 20
2.23
 11
-12.53
 21
-2.23
  0
LINE
  5
C0
100
AcDbEntity
  8
outer_frame
  6
ByLayer
 62
  256
370
   -1
100
AcDbLine
 10
-7.770000000000003
 20
2.530000000000001
 11
-12.23
 21
2.530000000000001
  0
LINE
  5
C1
100
AcDbEntity
  8
outer_frame
  6
ByLayer
 62
  256
370
   -1
100
AcDbLine
 10
-7.469999999999999
 20
2.23
 11
-7.469999999999999
 21
-2.23
  0
LINE
  5
C2
100
AcDbEntity
  8
outer_frame
  6
ByLayer
 62
  256
370
   -1
100
AcDbLine
 10
-6.599999999999994
 20
-3.100000000000001
 11
-6.599999999999994
 21
3.100000000000001
  0
CIRCLE
  5
C3
100
AcDbEntity
  8
construction_0
  6
ByLayer
 62
  256
370
   -1
100
AcDbCircle
 10
-13.2
 20
3.199999999999999
 40
0.058
  0
CIRCLE
  5
C4
100
AcDbEntity
  8
construction_0
  6
ByLayer
 62
  256
370
   -1
100
AcDbCircle
 10
-6.799999999999997
 20
3.199999999999999
 40
0.058
  0
CIRCLE
  5
C5
100
AcDbEntity
  8
construction_0
  6
ByLayer
 62
  256
370
   -1
100
AcDbCircle
 10
-13.2
 20
-3.199999999999999
 40
0.058
  0
CIRCLE
  5
C6
100
AcDbEntity
  8
construction_0
  6
ByLayer
 62
  256
370
   -1
100
AcDbCircle
 10
-6.799999999999997
 20
-3.199999999999999
 40
0.058
  0
LWPOLYLINE
  5
C7
100
AcDbEntity
  8
construction_1
  6
ByLayer
 62
  256
370
   -1
100
AcDbPolyline
 90
    4
 70
    1
 43
0
 10
-13.2
 20
3.199999999999999
 10
-6.799999999999997
 20
3.199999999999999
 10
-6.799999999999997
 20
-3.199999999999999
 10
-13.2
 20
-3.199999999999999
  0
LWPOLYLINE
  5
C8
100
AcDbEntity
  8
construction_0
  6
ByLayer
 62
  256
370
   -1
100
AcDbPolyline
 90
    4
 70
    1
 43
0
 10
-13.2
 20
2.899999999999999
 10
-6.799999999999997
 20
2.899999999999999
 10
-6.799999999999997
 20
-2.899999999999999
 10
-13.2
 20
-2.899999999999999
  0
CIRCLE
  5
C9
100
AcDbEntity
  8
construction_0
  6
ByLayer
 62
  256
370
   -1
100
AcDbCircle
 10
-13.2
 20
2.899999999999999
 40
0.058
  0
CIRCLE
  5
CA
100
AcDbEntity
  8
construction_0
  6
ByLayer
 62
  256
370
   -1
100
AcDbCircle
 10
-6.799999999999997
 20
2.899999999999999
 40
0.058
  0
CIRCLE
  5
CB
100
AcDbEntity
  8
construction_0
  6
ByLayer
 62
  256
370
   -1
100
AcDbCircle
 10
-6.799999999999997
 20
-2.899999999999999
 40
0.058
  0
CIRCLE
  5
CC
100
AcDbEntity
  8
construction_0
  6
ByLayer
 62
  256
370
   -1
100
AcDbCircle
 10
-13.2
 20
-2.899999999999999
 40
0.058
  0
LWPOLYLINE
  5
CD
100
AcDbEntity
  8
construction_1
  6
ByLayer
 62
  256
370
   -1
100
AcDbPolyline
 90
    4
 70
    1
 43
0
 10
-7.269999999999996
 20
2.73
 10
-12.73
 20
2.73
 10
-12.73
 20
-2.73
 10
-7.269999999999996
 20
-2.73
  0
CIRCLE
  5
CE
100
AcDbEntity
  8
construction_0
  6
ByLayer
 62
  256
370
   -1
100
AcDbCircle
 10
-12.73
 20
2.73
 40
0.058
  0
CIRCLE
  5
CF
100
AcDbEntity
  8
construction_0
  6
ByLayer
 62
  256
370
   -1
100
AcDbCircle
 10
-7.269999999999996
 20
2.73
 40
0.058
  0
CIRCLE
  5
D0
100
AcDbEntity
  8
construction_0
  6
ByLayer
 62
  256
370
   -1
100
AcDbCircle
 10
-7.269999999999996
 20
-2.73
 40
0.058
  0
CIRCLE
  5
D1
100
AcDbEntity
  8
construction_0
  6
ByLayer
 62
  256
370
   -1
100
AcDbCircle
 10
-12.73
 20
-2.73
 40
0.058
  0
LINE
  5
D2
100
AcDbEntity
  8
construction_0
  6
ByLayer
 62
  256
370
   -1
100
AcDbLine
 10
-48.59999999999999
 20
6.399999999999999
 11
-48.59999999999999
 21
0.3999999999999986
  0
LINE
  5
D3
100
AcDbEntity
  8
inner_frame_1
  6
ByLayer
 62
  256
370
   -1
100
AcDbLine
 10
-45.59999999999999
 20
0.3999999999999986
 11
-45.59999999999999
 21
0
  0
LINE
  5
D4
100
AcDbEntity
  8
inner_frame_1
  6
ByLayer
 62
  256
370
   -1
100
AcDbLine
 10
-45.66999999999999
 20
0.3999999999999986
 11
-45.66999999999999
 21
0
  0
ARC
  5
D5
100
AcDbEntity
  8
inner_frame_1
  6
ByLayer
 62
  256
370
   -1
100
AcDbCircle
 10
-51.3
 20
6.099999999999998
 40
0.3
100
AcDbArc
 50
90.00000000000034
 51
180
  0
ARC
  5
D6
100
AcDbEntity
  8
inner_frame_1
  6
ByLayer
 62
  256
370
   -1
100
AcDbCircle
 10
-45.89999999999999
 20
6.099999999999998
 40
0.3
100
AcDbArc
 50
0
 51
90
  0
ARC
  5
D7
100
AcDbEntity
  8
inner_frame_1
  6
ByLayer
 62
  256
370
   -1
100
AcDbCircle
 10
-51.3
 20
0.6999999999999993
 40
0.3
100
AcDbArc
 50
180
 51
270
  0
ARC
  5
D8
100
AcDbEntity
  8
inner_frame_1
  6
ByLayer
 62
  256
370
   -1
100
AcDbCircle
 10
-51.69999999999999
 20
0.2999999999999972
 40
0.3
100
AcDbArc
 50
180
 51
270
  0
ARC
  5
D9
100
AcDbEntity
  8
inner_frame_1
  6
ByLayer
 62
  256
370
   -1
100
AcDbCircle
 10
-45.5
 20
0.2999999999999972
 40
0.3
100
AcDbArc
 50
270
 51
0
  0
ARC
  5
DA
100
AcDbEntity
  8
inner_frame_1
  6
ByLayer
 62
  256
370
   -1
100
AcDbCircle
 10
-45.5
 20
6.5
 40
0.3
100
AcDbArc
 50
7.63333123551244e-14
 51
90
  0
ARC
  5
DB
100
AcDbEntity
  8
inner_frame_1
  6
ByLayer
 62
  256
370
   -1
100
AcDbCircle
 10
-51.69999999999999
 20
6.5
 40
0.3
100
AcDbArc
 50
90.00000000000034
 51
180
  0
LINE
  5
DC
100
AcDbEntity
  8
construction_0
  6
ByLayer
 62
  256
370
   -1
100
AcDbLine
 10
-45.19999999999999
 20
0
 11
-45.19999999999999
 21
6.799999999999997
  0
LINE
  5
DD
100
AcDbEntity
  8
construction_0
  6
ByLayer
 62
  256
370
   -1
100
AcDbLine
 10
-45.19999999999999
 20
6.799999999999997
 11
-52
 21
6.799999999999997
  0
LINE
  5
DE
100
AcDbEntity
  8
construction_0
  6
ByLayer
 62
  256
370
   -1
100
AcDbLine
 10
-52
 20
6.799999999999997
 11
-52
 21
0
  0
LINE
  5
DF
100
AcDbEntity
  8
construction_0
  6
ByLayer
 62
  256
370
   -1
100
AcDbLine
 10
-45.59999999999999
 20
0.3999999999999986
 11
-45.59999999999999
 21
6.399999999999999
  0
LINE
  5
E0
100
AcDbEntity
  8
construction_0
  6
ByLayer
 62
  256
370
   -1
100
AcDbLine
 10
-45.59999999999999
 20
6.399999999999999
 11
-51.59999999999999
 21
6.399999999999999
  0
LINE
  5
E1
100
AcDbEntity
  8
construction_0
  6
ByLayer
 62
  256
370
   -1
100
AcDbLine
 10
-51.59999999999999
 20
6.399999999999999
 11
-51.59999999999999
 21
0.3999999999999986
  0
LINE
  5
E2
100
AcDbEntity
  8
construction_0
  6
ByLayer
 62
  256
370
   -1
100
AcDbLine
 10
-51.59999999999999
 20
0.3999999999999986
 11
-45.66999999999999
 21
0.3999999999999986
  0
LINE
  5
E3
100
AcDbEntity
  8
construction_0
  6
ByLayer
 62
  256
370
   -1
100
AcDbLine
 10
-52
 20
0
 11
-45.66999999999999
 21
0
  0
LINE
  5
E4
100
AcDbEntity
  8
inner_frame_1
  6
ByLayer
 62
  256
370
   -1
100
AcDbLine
 10
-51.69999999999999
 20
6.799999999999997
 11
-45.5
 21
6.799999999999997
  0
LINE
  5
E5
100
AcDbEntity
  8
inner_frame_1
  6
ByLayer
 62
  256
370
   -1
100
AcDbLine
 10
-45.19999999999999
 20
6.5
 11
-45.19999999999999
 21
0.2999999999999972
  0
LINE
  5
E6
100
AcDbEntity
  8
inner_frame_1
  6
ByLayer
 62
  256
370
   -1
100
AcDbLine
 10
-45.59999999999999
 20
6.099999999999998
 11
-45.59999999999999
 21
0.3999999999999986
  0
LINE
  5
E7
100
AcDbEntity
  8
inner_frame_1
  6
ByLayer
 62
  256
370
   -1
100
AcDbLine
 10
-45.66999999999999
 20
0.3999999999999986
 11
-51.3
 21
0.3999999999999986
  0
LINE
  5
E8
100
AcDbEntity
  8
inner_frame_1
  6
ByLayer
 62
  256
370
   -1
100
AcDbLine
 10
-51.69999999999999
 20
0
 11
-45.66999999999999
 21
0
  0
LINE
  5
E9
100
AcDbEntity
  8
inner_frame_1
  6
ByLayer
 62
  256
370
   -1
100
AcDbLine
 10
-52
 20
0.2999999999999972
 11
-52
 21
6.5
  0
LINE
  5
EA
100
AcDbEntity
  8
inner_frame_1
  6
ByLayer
 62
  256
370
   -1
100
AcDbLine
 10
-51.59999999999999
 20
6.099999999999998
 11
-51.59999999999999
 21
0.6999999999999993
  0
LINE
  5
EB
100
AcDbEntity
  8
inner_frame_1
  6
ByLayer
 62
  256
370
   -1
100
AcDbLine
 10
-51.3
 20
6.399999999999999
 11
-45.89999999999999
 21
6.399999999999999
  0
LINE
  5
EC
100
AcDbEntity
  8
construction_0
  6
ByLayer
 62
  256
370
   -1
100
AcDbLine
 10
-45.59999999999999
 20
0
 11
-45.19999999999999
 21
0
  0
LINE
  5
ED
100
AcDbEntity
  8
inner_frame_1
  6
ByLayer
 62
  256
370
   -1
100
AcDbLine
 10
-45.59999999999999
 20
0
 11
-45.5
 21
0
  0
CIRCLE
  5
EE
100
AcDbEntity
  8
construction_0
  6
ByLayer
 62
  256
370
   -1
100
AcDbCircle
 10
-51.8
 20
6.599999999999998
 40
0.058
  0
CIRCLE
  5
EF
100
AcDbEntity
  8
construction_0
  6
ByLayer
 62
  256
370
   -1
100
AcDbCircle
 10
-45.39999999999999
 20
6.599999999999998
 40
0.058
  0
CIRCLE
  5
F0
100
AcDbEntity
  8
construction_0
  6
ByLayer
 62
  256
370
   -1
100
AcDbCircle
 10
-51.8
 20
0.1999999999999993
 40
0.058
  0
CIRCLE
  5
F1
100
AcDbEntity
  8
construction_0
  6
ByLayer
 62
  256
370
   -1
100
AcDbCircle
 10
-45.39999999999999
 20
0.1999999999999993
 40
0.058
  0
LWPOLYLINE
  5
F2
100
AcDbEntity
  8
construction_1
  6
ByLayer
 62
  256
370
   -1
100
AcDbPolyline
 90
    4
 70
    1
 43
0
 10
-51.8
 20
6.599999999999998
 10
-45.39999999999999
 20
6.599999999999998
 10
-45.39999999999999
 20
0.1999999999999993
 10
-51.8
 20
0.1999999999999993
  0
LWPOLYLINE
  5
F3
100
AcDbEntity
  8
construction_0
  6
ByLayer
 62
  256
370
   -1
100
AcDbPolyline
 90
    4
 70
    1
 43
0
 10
-51.8
 20
6.299999999999997
 10
-45.39999999999999
 20
6.299999999999997
 10
-45.39999999999999
 20
0.5
 10
-51.8
 20
0.5
  0
CIRCLE
  5
F4
100
AcDbEntity
  8
construction_0
  6
ByLayer
 62
  256
370
   -1
100
AcDbCircle
 10
-51.8
 20
6.299999999999997
 40
0.058
  0
CIRCLE
  5
F5
100
AcDbEntity
  8
construction_0
  6
ByLayer
 62
  256
370
   -1
100
AcDbCircle
 10
-45.39999999999999
 20
6.299999999999997
 40
0.058
  0
CIRCLE
  5
F6
100
AcDbEntity
  8
construction_0
  6
ByLayer
 62
  256
370
   -1
100
AcDbCircle
 10
-45.39999999999999
 20
0.5
 40
0.058
  0
CIRCLE
  5
F7
100
AcDbEntity
  8
construction_0
  6
ByLayer
 62
  256
370
   -1
100
AcDbCircle
 10
-51.8
 20
0.5
 40
0.058
  0
LINE
  5
F8
100
AcDbEntity
  8
construction_0
  6
ByLayer
 62
  256
370
   -1
100
AcDbLine
 10
-40.6
 20
6.799999999999997
 11
-40.6
 21
0
  0
LINE
  5
F9
100
AcDbEntity
  8
construction_0
  6
ByLayer
 62
  256
370
   -1
100
AcDbLine
 10
-40.6
 20
5.93
 11
-40.6
 21
5.93
  0
LINE
  5
FA
100
AcDbEntity
  8
construction_0
  6
ByLayer
 62
  256
370
   -1
100
AcDbLine
 10
-40.6
 20
5.93
 11
-40.6
 21
0.8699999999999974
  0
LINE
  5
FB
100
AcDbEntity
  8
construction_0
  6
ByLayer
 62
  256
370
   -1
100
AcDbLine
 10
-40.6
 20
0.8699999999999974
 11
-40.6
 21
0.8699999999999974
  0
LINE
  5
FC
100
AcDbEntity
  8
construction_0
  6
ByLayer
 62
  256
370
   -1
100
AcDbLine
 10
-40.6
 20
0.8699999999999974
 11
-40.6
 21
5.93
  0
ARC
  5
FD
100
AcDbEntity
  8
outer_frame
  6
ByLayer
 62
  256
370
   -1
100
AcDbCircle
 10
-43.7
 20
6.5
 40
0.3
100
AcDbArc
 50
90
 51
180
  0
ARC
  5
FE
100
AcDbEntity
  8
outer_frame
  6
ByLayer
 62
  256
370
   -1
100
AcDbCircle
 10
-37.5
 20
6.5
 40
0.3
100
AcDbArc
 50
0
 51
90
  0
ARC
  5
FF
100
AcDbEntity
  8
outer_frame
  6
ByLayer
 62
  256
370
   -1
100
AcDbCircle
 10
-42.83000000000001
 20
5.629999999999999
 40
0.3
100
AcDbArc
 50
90
 51
180
  0
ARC
  5
100
100
AcDbEntity
  8
outer_frame
  6
ByLayer
 62
  256
370
   -1
100
AcDbCircle
 10
-38.37
 20
5.629999999999999
 40
0.3
100
AcDbArc
 50
0
 51
90
  0
ARC
  5
101
100
AcDbEntity
  8
outer_frame
  6
ByLayer
 62
  256
370
   -1
100
AcDbCircle
 10
-38.37
 20
1.169999999999998
 40
0.3
100
AcDbArc
 50
270
 51
0
  0
ARC
  5
102
100
AcDbEntity
  8
outer_frame
  6
ByLayer
 62
  256
370
   -1
100
AcDbCircle
 10
-42.83000000000001
 20
1.169999999999998
 40
0.3
100
AcDbArc
 50
180
 51
270
  0
ARC
  5
103
100
AcDbEntity
  8
outer_frame
  6
ByLayer
 62
  256
370
   -1
100
AcDbCircle
 10
-37.5
 20
0.2999999999999972
 40
0.3
100
AcDbArc
 50
270
 51
0
  0
ARC
  5
104
100
AcDbEntity
  8
outer_frame
  6
ByLayer
 62
  256
370
   -1
100
AcDbCircle
 10
-43.7
 20
0.2999999999999972
 40
0.3
100
AcDbArc
 50
180
 51
270
  0
LINE
  5
105
100
AcDbEntity
  8
construction_0
  6
ByLayer
 62
  256
370
   -1
100
AcDbLine
 10
-44
 20
0
 11
-37.2
 21
0
  0
LINE
  5
106
100
AcDbEntity
  8
construction_0
  6
ByLayer
 62
  256
370
   -1
100
AcDbLine
 10
-37.2
 20
0
 11
-37.2
 21
6.799999999999997
  0
LINE
  5
107
100
AcDbEntity
  8
construction_0
  6
ByLayer
 62
  256
370
   -1
100
AcDbLine
 10
-37.2
 20
6.799999999999997
 11
-44
 21
6.799999999999997
  0
LINE
  5
108
100
AcDbEntity
  8
construction_0
  6
ByLayer
 62
  256
370
   -1
100
AcDbLine
 10
-44
 20
6.799999999999997
 11
-44
 21
0
  0
LINE
  5
109
100
AcDbEntity
  8
construction_0
  6
ByLayer
 62
  256
370
   -1
100
AcDbLine
 10
-43.13
 20
0.8699999999999974
 11
-38.07
 21
0.8699999999999974
  0
LINE
  5
10A
100
AcDbEntity
  8
construction_0
  6
ByLayer
 62
  256
370
   -1
100
AcDbLine
 10
-38.07
 20
0.8699999999999974
 11
-38.07
 21
5.93
  0
LINE
  5
10B
100
AcDbEntity
  8
construction_0
  6
ByLayer
 62
  256
370
   -1
100
AcDbLine
 10
-38.07
 20
5.93
 11
-43.13
 21
5.93
  0
LINE
  5
10C
100
AcDbEntity
  8
construction_0
  6
ByLayer
 62
  256
370
   -1
100
AcDbLine
 10
-43.13
 20
5.93
 11
-43.13
 21
0.8699999999999974
  0
LINE
  5
10D
100
AcDbEntity
  8
outer_frame
  6
ByLayer
 62
  256
370
   -1
100
AcDbLine
 10
-43.7
 20
6.799999999999997
 11
-37.5
 21
6.799999999999997
  0
LINE
  5
10E
100
AcDbEntity
  8
outer_frame
  6
ByLayer
 62
  256
370
   -1
100
AcDbLine
 10
-44
 20
6.5
 11
-44
 21
0.2999999999999972
  0
LINE
  5
10F
100
AcDbEntity
  8
outer_frame
  6
ByLayer
 62
  256
370
   -1
100
AcDbLine
 10
-43.7
 20
0
 11
-37.5
 21
0
  0
LINE
  5
110
100
AcDbEntity
  8
outer_frame
  6
ByLayer
 62
  256
370
   -1
100
AcDbLine
 10
-42.83000000000001
 20
0.8699999999999974
 11
-38.37
 21
0.8699999999999974
  0
LINE
  5
111
100
AcDbEntity
  8
outer_frame
  6
ByLayer
 62
  256
370
   -1
100
AcDbLine
 10
-43.13
 20
5.629999999999999
 11
-43.13
 21
1.169999999999998
  0
LINE
  5
112
100
AcDbEntity
  8
outer_frame
  6
ByLayer
 62
  256
370
   -1
100
AcDbLine
 10
-38.37
 20
5.93
 11
-42.83000000000001
 21
5.93
  0
LINE
  5
113
100
AcDbEntity
  8
outer_frame
  6
ByLayer
 62
  256
370
   -1
100
AcDbLine
 10
-38.07
 20
5.629999999999999
 11
-38.07
 21
1.169999999999998
  0
LINE
  5
114
100
AcDbEntity
  8
outer_frame
  6
ByLayer
 62
  256
370
   -1
100
AcDbLine
 10
-37.2
 20
0.2999999999999972
 11
-37.2
 21
6.5
  0
CIRCLE
  5
115
100
AcDbEntity
  8
construction_0
  6
ByLayer
 62
  256
370
   -1
100
AcDbCircle
 10
-43.8
 20
6.599999999999998
 40
0.058
  0
CIRCLE
  5
116
100
AcDbEntity
  8
construction_0
  6
ByLayer
 62
  256
370
   -1
100
AcDbCircle
 10
-37.4
 20
6.599999999999998
 40
0.058
  0
CIRCLE
  5
117
100
AcDbEntity
  8
construction_0
  6
ByLayer
 62
  256
370
   -1
100
AcDbCircle
 10
-43.8
 20
0.1999999999999993
 40
0.058
  0
CIRCLE
  5
118
100
AcDbEntity
  8
construction_0
  6
ByLayer
 62
  256
370
   -1
100
AcDbCircle
 10
-37.4
 20
0.1999999999999993
 40
0.058
  0
LWPOLYLINE
  5
119
100
AcDbEntity
  8
construction_1
  6
ByLayer
 62
  256
370
   -1
100
AcDbPolyline
 90
    4
 70
    1
 43
0
 10
-43.8
 20
6.599999999999998
 10
-37.4
 20
6.599999999999998
 10
-37.4
 20
0.1999999999999993
 10
-43.8
 20
0.1999999999999993
  0
LWPOLYLINE
  5
11A
100
AcDbEntity
  8
construction_0
  6
ByLayer
 62
  256
370
   -1
100
AcDbPolyline
 90
    4
 70
    1
 43
0
 10
-43.8
 20
6.299999999999997
 10
-37.4
 20
6.299999999999997
 10
-37.4
 20
0.5
 10
-43.8
 20
0.5
  0
CIRCLE
  5
11B
100
AcDbEntity
  8
construction_0
  6
ByLayer
 62
  256
370
   -1
100
AcDbCircle
 10
-43.8
 20
6.299999999999997
 40
0.058
  0
CIRCLE
  5
11C
100
AcDbEntity
  8
construction_0
  6
ByLayer
 62
  256
370
   -1
100
AcDbCircle
 10
-37.4
 20
6.299999999999997
 40
0.058
  0
CIRCLE
  5
11D
100
AcDbEntity
  8
construction_0
  6
ByLayer
 62
  256
370
   -1
100
AcDbCircle
 10
-37.4
 20
0.5
 40
0.058
  0
CIRCLE
  5
11E
100
AcDbEntity
  8
construction_0
  6
ByLayer
 62
  256
370
   -1
100
AcDbCircle
 10
-43.8
 20
0.5
 40
0.058
  0
LWPOLYLINE
  5
11F
100
AcDbEntity
  8
construction_1
  6
ByLayer
 62
  256
370
   -1
100
AcDbPolyline
 90
    4
 70
    1
 43
0
 10
-37.87
 20
6.129999999999999
 10
-43.33000000000001
 20
6.129999999999999
 10
-43.33000000000001
 20
0.6699999999999982
 10
-37.87
 20
0.6699999999999982
  0
CIRCLE
  5
120
100
AcDbEntity
  8
construction_0
  6
ByLayer
 62
  256
370
   -1
100
AcDbCircle
 10
-43.33000000000001
 20
6.129999999999999
 40
0.058
  0
CIRCLE
  5
121
100
AcDbEntity
  8
construction_0
  6
ByLayer
 62
  256
370
   -1
100
AcDbCircle
 10
-37.87
 20
6.129999999999999
 40
0.058
  0
CIRCLE
  5
122
100
AcDbEntity
  8
construction_0
  6
ByLayer
 62
  256
370
   -1
100
AcDbCircle
 10
-37.87
 20
0.6699999999999982
 40
0.058
  0
CIRCLE
  5
123
100
AcDbEntity
  8
construction_0
  6
ByLayer
 62
  256
370
   -1
100
AcDbCircle
 10
-43.33000000000001
 20
0.6699999999999982
 40
0.058
  0
LINE
  5
124
100
AcDbEntity
  8
construction_0
  6
ByLayer
 62
  256
370
   -1
100
AcDbLine
 10
-33.07
 20
5.859999999999999
 11
-33.07
 21
0
  0
ARC
  5
125
100
AcDbEntity
  8
light_plate
  6
ByLayer
 62
  256
370
   -1
100
AcDbCircle
 10
-35.7
 20
5.559999999999999
 40
0.3
100
AcDbArc
 50
89.99999999999986
 51
180
  0
ARC
  5
126
100
AcDbEntity
  8
light_plate
  6
ByLayer
 62
  256
370
   -1
100
AcDbCircle
 10
-30.44
 20
5.559999999999999
 40
0.3
100
AcDbArc
 50
0
 51
90
  0
ARC
  5
127
100
AcDbEntity
  8
light_plate
  6
ByLayer
 62
  256
370
   -1
100
AcDbCircle
 10
-35.7
 20
0.3000000000000007
 40
0.3
100
AcDbArc
 50
179.9999999999999
 51
270
  0
LINE
  5
128
100
AcDbEntity
  8
construction_0
  6
ByLayer
 62
  256
370
   -1
100
AcDbLine
 10
-30.14
 20
5.859999999999999
 11
-36
 21
5.859999999999999
  0
LINE
  5
129
100
AcDbEntity
  8
construction_0
  6
ByLayer
 62
  256
370
   -1
100
AcDbLine
 10
-36
 20
5.859999999999999
 11
-36
 21
0
  0
LINE
  5
12A
100
AcDbEntity
  8
light_plate
  6
ByLayer
 62
  256
370
   -1
100
AcDbLine
 10
-36
 20
0.3000000000000007
 11
-36
 21
5.559999999999999
  0
LINE
  5
12B
100
AcDbEntity
  8
light_plate
  6
ByLayer
 62
  256
370
   -1
100
AcDbLine
 10
-35.7
 20
5.859999999999999
 11
-30.44
 21
5.859999999999999
  0
LWPOLYLINE
  5
12C
100
AcDbEntity
  8
construction_1
  6
ByLayer
 62
  256
370
   -1
100
AcDbPolyline
 90
    4
 70
    1
 43
0
 10
-30.34
 20
5.66
 10
-35.8
 20
5.66
 10
-35.8
 20
0.1999999999999993
 10
-30.34
 20
0.1999999999999993
  0
CIRCLE
  5
12D
100
AcDbEntity
  8
construction_0
  6
ByLayer
 62
  256
370
   -1
100
AcDbCircle
 10
-35.8
 20
5.66
 40
0.058
  0
CIRCLE
  5
12E
100
AcDbEntity
  8
construction_0
  6
ByLayer
 62
  256
370
   -1
100
AcDbCircle
 10
-30.34
 20
5.66
 40
0.058
  0
CIRCLE
  5
12F
100
AcDbEntity
  8
construction_0
  6
ByLayer
 62
  256
370
   -1
100
AcDbCircle
 10
-30.34
 20
0.1999999999999993
 40
0.058
  0
CIRCLE
  5
130
100
AcDbEntity
  8
construction_0
  6
ByLayer
 62
  256
370
   -1
100
AcDbCircle
 10
-35.8
 20
0.1999999999999993
 40
0.058
  0
LINE
  5
131
100
AcDbEntity
  8
light_plate
  6
ByLayer
 62
  256
370
   -1
100
AcDbLine
 10
-30.14
 20
0
 11
-30.14
 21
5.559999999999999
  0
LINE
  5
132
100
AcDbEntity
  8
light_plate
  6
ByLayer
 62
  256
370
   -1
100
AcDbLine
 10
-35.7
 20
0
 11
-30.14
 21
0
  0
LINE
  5
133
100
AcDbEntity
  8
construction_0
  6
ByLayer
 62
  256
370
   -1
100
AcDbLine
 10
-26.07
 20
5.859999999999999
 11
-26.07
 21
0
  0
LINE
  5
134
100
AcDbEntity
  8
construction_0
  6
ByLayer
 62
  256
370
   -1
100
AcDbLine
 10
-26.07
 20
5.459999999999999
 11
-26.07
 21
0.3999999999999986
  0
ARC
  5
135
100
AcDbEntity
  8
inner_frame_2
  6
ByLayer
 62
  256
370
   -1
100
AcDbCircle
 10
-28.7
 20
5.560000000000002
 40
0.3
100
AcDbArc
 50
89.99999999999983
 51
180
  0
ARC
  5
136
100
AcDbEntity
  8
inner_frame_2
  6
ByLayer
 62
  256
370
   -1
100
AcDbCircle
 10
-28.3
 20
5.159999999999998
 40
0.3
100
AcDbArc
 50
90
 51
180
  0
ARC
  5
137
100
AcDbEntity
  8
inner_frame_2
  6
ByLayer
 62
  256
370
   -1
100
AcDbCircle
 10
-23.84
 20
5.159999999999998
 40
0.3
100
AcDbArc
 50
1.781110621619569e-13
 51
90
  0
ARC
  5
138
100
AcDbEntity
  8
inner_frame_2
  6
ByLayer
 62
  256
370
   -1
100
AcDbCircle
 10
-23.44
 20
5.560000000000002
 40
0.3
100
AcDbArc
 50
0
 51
90
  0
ARC
  5
139
100
AcDbEntity
  8
inner_frame_2
  6
ByLayer
 62
  256
370
   -1
100
AcDbCircle
 10
-28.3
 20
0.6999999999999993
 40
0.3
100
AcDbArc
 50
180
 51
270
  0
ARC
  5
13A
100
AcDbEntity
  8
inner_frame_2
  6
ByLayer
 62
  256
370
   -1
100
AcDbCircle
 10
-28.7
 20
0.3000000000000007
 40
0.3
100
AcDbArc
 50
180
 51
270
  0
ARC
  5
13B
100
AcDbEntity
  8
inner_frame_2
  6
ByLayer
 62
  256
370
   -1
100
AcDbCircle
 10
-23.84
 20
0.6999999999999993
 40
0.3
100
AcDbArc
 50
270
 51
0
  0
LINE
  5
13C
100
AcDbEntity
  8
construction_0
  6
ByLayer
 62
  256
370
   -1
100
AcDbLine
 10
-23.14
 20
5.859999999999999
 11
-29
 21
5.859999999999999
  0
LINE
  5
13D
100
AcDbEntity
  8
construction_0
  6
ByLayer
 62
  256
370
   -1
100
AcDbLine
 10
-29
 20
5.859999999999999
 11
-29
 21
0
  0
LINE
  5
13E
100
AcDbEntity
  8
construction_0
  6
ByLayer
 62
  256
370
   -1
100
AcDbLine
 10
-28.6
 20
0.3999999999999986
 11
-23.54
 21
0.3999999999999986
  0
LINE
  5
13F
100
AcDbEntity
  8
construction_0
  6
ByLayer
 62
  256
370
   -1
100
AcDbLine
 10
-23.54
 20
0.3999999999999986
 11
-23.54
 21
5.459999999999999
  0
LINE
  5
140
100
AcDbEntity
  8
construction_0
  6
ByLayer
 62
  256
370
   -1
100
AcDbLine
 10
-23.54
 20
5.459999999999999
 11
-28.6
 21
5.459999999999999
  0
LINE
  5
141
100
AcDbEntity
  8
construction_0
  6
ByLayer
 62
  256
370
   -1
100
AcDbLine
 10
-28.6
 20
5.459999999999999
 11
-28.6
 21
0.3999999999999986
  0
LINE
  5
142
100
AcDbEntity
  8
inner_frame_2
  6
ByLayer
 62
  256
370
   -1
100
AcDbLine
 10
-29
 20
0.3000000000000007
 11
-29
 21
5.560000000000002
  0
LINE
  5
143
100
AcDbEntity
  8
inner_frame_2
  6
ByLayer
 62
  256
370
   -1
100
AcDbLine
 10
-28.7
 20
5.860000000000001
 11
-23.44
 21
5.860000000000001
  0
LINE
  5
144
100
AcDbEntity
  8
inner_frame_2
  6
ByLayer
 62
  256
370
   -1
100
AcDbLine
 10
-23.84
 20
5.459999999999997
 11
-28.3
 21
5.459999999999997
  0
LINE
  5
145
100
AcDbEntity
  8
inner_frame_2
  6
ByLayer
 62
  256
370
   -1
100
AcDbLine
 10
-28.6
 20
5.159999999999998
 11
-28.6
 21
0.6999999999999993
  0
LINE
  5
146
100
AcDbEntity
  8
inner_frame_2
  6
ByLayer
 62
  256
370
   -1
100
AcDbLine
 10
-28.3
 20
0.3999999999999986
 11
-23.84
 21
0.3999999999999986
  0
LINE
  5
147
100
AcDbEntity
  8
inner_frame_2
  6
ByLayer
 62
  256
370
   -1
100
AcDbLine
 10
-23.54
 20
0.6999999999999993
 11
-23.54
 21
5.16
  0
LINE
  5
148
100
AcDbEntity
  8
construction_1
  6
ByLayer
 62
  256
370
   -1
100
AcDbLine
 10
-29
 20
0
 11
-28.6
 21
0.3999999999999986
  0
LINE
  5
149
100
AcDbEntity
  8
construction_1
  6
ByLayer
 62
  256
370
   -1
100
AcDbLine
 10
-23.54
 20
5.459999999999999
 11
-23.14
 21
5.859999999999999
  0
LWPOLYLINE
  5
14A
100
AcDbEntity
  8
construction_1
  6
ByLayer
 62
  256
370
   -1
100
AcDbPolyline
 90
    4
 70
    1
 43
0
 10
-23.34
 20
5.66
 10
-28.8
 20
5.66
 10
-28.8
 20
0.1999999999999993
 10
-23.34
 20
0.1999999999999993
  0
CIRCLE
  5
14B
100
AcDbEntity
  8
construction_0
  6
ByLayer
 62
  256
370
   -1
100
AcDbCircle
 10
-28.8
 20
5.66
 40
0.058
  0
CIRCLE
  5
14C
100
AcDbEntity
  8
construction_0
  6
ByLayer
 62
  256
370
   -1
100
AcDbCircle
 10
-23.34
 20
5.66
 40
0.058
  0
CIRCLE
  5
14D
100
AcDbEntity
  8
construction_0
  6
ByLayer
 62
  256
370
   -1
100
AcDbCircle
 10
-23.34
 20
0.1999999999999993
 40
0.058
  0
CIRCLE
  5
14E
100
AcDbEntity
  8
construction_0
  6
ByLayer
 62
  256
370
   -1
100
AcDbCircle
 10
-28.8
 20
0.1999999999999993
 40
0.058
  0
LINE
  5
14F
100
AcDbEntity
  8
inner_frame_2
  6
ByLayer
 62
  256
370
   -1
100
AcDbLine
 10
-23.14
 20
0
 11
-23.14
 21
5.560000000000002
  0
LINE
  5
150
100
AcDbEntity
  8
inner_frame_2
  6
ByLayer
 62
  256
370
   -1
100
AcDbLine
 10
-28.7
 20
8.881784197001252e-16
 11
-23.14
 21
0
  0
LINE
  5
151
100
AcDbEntity
  8
inner_frame_1
  6
ByLayer
 62
  256
370
   -1
100
AcDbLine
 10
7.400000000000006
 20
0.3999999999999986
 11
7.400000000000006
 21
0
  0
LINE
  5
152
100
AcDbEntity
  8
inner_frame_1
  6
ByLayer
 62
  256
370
   -1
100
AcDbLine
 10
7.330000000000013
 20
0.3999999999999986
 11
7.330000000000013
 21
0
  0
ARC
  5
153
100
AcDbEntity
  8
inner_frame_1
  6
ByLayer
 62
  256
370
   -1
100
AcDbCircle
 10
1.700000000000003
 20
6.099999999999998
 40
0.3
100
AcDbArc
 50
90.00000000000034
 51
180
  0
ARC
  5
154
100
AcDbEntity
  8
inner_frame_1
  6
ByLayer
 62
  256
370
   -1
100
AcDbCircle
 10
7.100000000000009
 20
6.099999999999998
 40
0.3
100
AcDbArc
 50
0
 51
90
  0
ARC
  5
155
100
AcDbEntity
  8
inner_frame_1
  6
ByLayer
 62
  256
370
   -1
100
AcDbCircle
 10
1.700000000000003
 20
0.6999999999999993
 40
0.3
100
AcDbArc
 50
180
 51
270
  0
ARC
  5
156
100
AcDbEntity
  8
inner_frame_1
  6
ByLayer
 62
  256
370
   -1
100
AcDbCircle
 10
1.300000000000011
 20
0.2999999999999972
 40
0.3
100
AcDbArc
 50
180
 51
270
  0
ARC
  5
157
100
AcDbEntity
  8
inner_frame_1
  6
ByLayer
 62
  256
370
   -1
100
AcDbCircle
 10
7.5
 20
0.2999999999999972
 40
0.3
100
AcDbArc
 50
270
 51
0
  0
ARC
  5
158
100
AcDbEntity
  8
inner_frame_1
  6
ByLayer
 62
  256
370
   -1
100
AcDbCircle
 10
7.5
 20
6.5
 40
0.3
100
AcDbArc
 50
7.63333123551244e-14
 51
90
  0
ARC
  5
159
100
AcDbEntity
  8
inner_frame_1
  6
ByLayer
 62
  256
370
   -1
100
AcDbCircle
 10
1.300000000000011
 20
6.5
 40
0.3
100
AcDbArc
 50
90.00000000000034
 51
180
  0
LINE
  5
15A
100
AcDbEntity
  8
inner_frame_1
  6
ByLayer
 62
  256
370
   -1
100
AcDbLine
 10
1.300000000000011
 20
6.799999999999997
 11
7.5
 21
6.799999999999997
  0
LINE
  5
15B
100
AcDbEntity
  8
inner_frame_1
  6
ByLayer
 62
  256
370
   -1
100
AcDbLine
 10
7.800000000000011
 20
6.5
 11
7.800000000000011
 21
0.2999999999999972
  0
LINE
  5
15C
100
AcDbEntity
  8
inner_frame_1
  6
ByLayer
 62
  256
370
   -1
100
AcDbLine
 10
7.400000000000006
 20
6.099999999999998
 11
7.400000000000006
 21
0.3999999999999986
  0
LINE
  5
15D
100
AcDbEntity
  8
inner_frame_1
  6
ByLayer
 62
  256
370
   -1
100
AcDbLine
 10
7.330000000000013
 20
0.3999999999999986
 11
1.700000000000003
 21
0.3999999999999986
  0
LINE
  5
15E
100
AcDbEntity
  8
inner_frame_1
  6
ByLayer
 62
  256
370
   -1
100
AcDbLine
 10
1.300000000000011
 20
0
 11
7.330000000000013
 21
0
  0
LINE
  5
15F
100
AcDbEntity
  8
inner_frame_1
  6
ByLayer
 62
  256
370
   -1
100
AcDbLine
 10
1
 20
0.2999999999999972
 11
1
 21
6.5
  0
LINE
  5
160
100
AcDbEntity
  8
inner_frame_1
  6
ByLayer
 62
  256
370
   -1
100
AcDbLine
 10
1.400000000000006
 20
6.099999999999998
 11
1.400000000000006
 21
0.6999999999999993
  0
LINE
  5
161
100
AcDbEntity
  8
inner_frame_1
  6
ByLayer
 62
  256
370
   -1
100
AcDbLine
 10
1.700000000000003
 20
6.399999999999999
 11
7.100000000000009
 21
6.399999999999999
  0
LINE
  5
162
100
AcDbEntity
  8
inner_frame_1
  6
ByLayer
 62
  256
370
   -1
100
AcDbLine
 10
7.400000000000006
 20
0
 11
7.5
 21
0
  0
CIRCLE
  5
163
100
AcDbEntity
  8
inner_frame_1
  6
ByLayer
 62
  256
370
   -1
100
AcDbCircle
 10
1.200000000000003
 20
6.599999999999998
 40
0.058
  0
CIRCLE
  5
164
100
AcDbEntity
  8
inner_frame_1
  6
ByLayer
 62
  256
370
   -1
100
AcDbCircle
 10
7.600000000000009
 20
6.599999999999998
 40
0.058
  0
CIRCLE
  5
165
100
AcDbEntity
  8
inner_frame_1
  6
ByLayer
 62
  256
370
   -1
100
AcDbCircle
 10
1.200000000000003
 20
0.1999999999999993
 40
0.058
  0
CIRCLE
  5
166
100
AcDbEntity
  8
inner_frame_1
  6
ByLayer
 62
  256
370
   -1
100
AcDbCircle
 10
7.600000000000009
 20
0.1999999999999993
 40
0.058
  0
LINE
  5
167
100
AcDbEntity
  8
inner_frame_1
  6
ByLayer
 62
  256
370
   -1
100
AcDbLine
 10
7.400000000000006
 20
8.4
 11
7.400000000000006
 21
8.000000000000002
  0
LINE
  5
168
100
AcDbEntity
  8
inner_frame_1
  6
ByLayer
 62
  256
370
   -1
100
AcDbLine
 10
7.330000000000013
 20
8.4
 11
7.330000000000013
 21
8.000000000000002
  0
ARC
  5
169
100
AcDbEntity
  8
inner_frame_1
  6
ByLayer
 62
  256
370
   -1
100
AcDbCircle
 10
1.700000000000003
 20
14.1
 40
0.3
100
AcDbArc
 50
90.00000000000034
 51
180
  0
ARC
  5
16A
100
AcDbEntity
  8
inner_frame_1
  6
ByLayer
 62
  256
370
   -1
100
AcDbCircle
 10
7.100000000000009
 20
14.1
 40
0.3
100
AcDbArc
 50
0
 51
90
  0
ARC
  5
16B
100
AcDbEntity
  8
inner_frame_1
  6
ByLayer
 62
  256
370
   -1
100
AcDbCircle
 10
1.700000000000003
 20
8.700000000000001
 40
0.3
100
AcDbArc
 50
180
 51
270
  0
ARC
  5
16C
100
AcDbEntity
  8
inner_frame_1
  6
ByLayer
 62
  256
370
   -1
100
AcDbCircle
 10
1.300000000000011
 20
8.299999999999999
 40
0.3
100
AcDbArc
 50
180
 51
270
  0
ARC
  5
16D
100
AcDbEntity
  8
inner_frame_1
  6
ByLayer
 62
  256
370
   -1
100
AcDbCircle
 10
7.5
 20
8.299999999999999
 40
0.3
100
AcDbArc
 50
270
 51
0
  0
ARC
  5
16E
100
AcDbEntity
  8
inner_frame_1
  6
ByLayer
 62
  256
370
   -1
100
AcDbCircle
 10
7.5
 20
14.5
 40
0.3
100
AcDbArc
 50
7.63333123551244e-14
 51
90
  0
ARC
  5
16F
100
AcDbEntity
  8
inner_frame_1
  6
ByLayer
 62
  256
370
   -1
100
AcDbCircle
 10
1.300000000000011
 20
14.5
 40
0.3
100
AcDbArc
 50
90.00000000000034
 51
180
  0
LINE
  5
170
100
AcDbEntity
  8
inner_frame_1
  6
ByLayer
 62
  256
370
   -1
100
AcDbLine
 10
1.300000000000011
 20
14.8
 11
7.5
 21
14.8
  0
LINE
  5
171
100
AcDbEntity
  8
inner_frame_1
  6
ByLayer
 62
  256
370
   -1
100
AcDbLine
 10
7.800000000000011
 20
14.5
 11
7.800000000000011
 21
8.299999999999999
  0
LINE
  5
172
100
AcDbEntity
  8
inner_frame_1
  6
ByLayer
 62
  256
370
   -1
100
AcDbLine
 10
7.400000000000006
 20
14.1
 11
7.400000000000006
 21
8.4
  0
LINE
  5
173
100
AcDbEntity
  8
inner_frame_1
  6
ByLayer
 62
  256
370
   -1
100
AcDbLine
 10
7.330000000000013
 20
8.4
 11
1.700000000000003
 21
8.4
  0
LINE
  5
174
100
AcDbEntity
  8
inner_frame_1
  6
ByLayer
 62
  256
370
   -1
100
AcDbLine
 10
1.300000000000011
 20
8.000000000000002
 11
7.330000000000013
 21
8.000000000000002
  0
LINE
  5
175
100
AcDbEntity
  8
inner_frame_1
  6
ByLayer
 62
  256
370
   -1
100
AcDbLine
 10
1
 20
8.299999999999999
 11
1
 21
14.5
  0
LINE
  5
176
100
AcDbEntity
  8
inner_frame_1
  6
ByLayer
 62
  256
370
   -1
100
AcDbLine
 10
1.400000000000006
 20
14.1
 11
1.400000000000006
 21
8.700000000000001
  0
LINE
  5
177
100
AcDbEntity
  8
inner_frame_1
  6
ByLayer
 62
  256
370
   -1
100
AcDbLine
 10
1.700000000000003
 20
14.4
 11
7.100000000000009
 21
14.4
  0
LINE
  5
178
100
AcDbEntity
  8
inner_frame_1
  6
ByLayer
 62
  256
370
   -1
100
AcDbLine
 10
7.400000000000006
 20
8.000000000000002
 11
7.5
 21
8.000000000000002
  0
CIRCLE
  5
179
100
AcDbEntity
  8
inner_frame_1
  6
ByLayer
 62
  256
370
   -1
100
AcDbCircle
 10
1.200000000000003
 20
14.6
 40
0.058
  0
CIRCLE
  5
17A
100
AcDbEntity
  8
inner_frame_1
  6
ByLayer
 62
  256
370
   -1
100
AcDbCircle
 10
7.600000000000009
 20
14.6
 40
0.058
  0
CIRCLE
  5
17B
100
AcDbEntity
  8
inner_frame_1
  6
ByLayer
 62
  256
370
   -1
100
AcDbCircle
 10
1.200000000000003
 20
8.200000000000001
 40
0.058
  0
CIRCLE
  5
17C
100
AcDbEntity
  8
inner_frame_1
  6
ByLayer
 62
  256
370
   -1
100
AcDbCircle
 10
7.600000000000009
 20
8.200000000000001
 40
0.058
  0
LINE
  5
17D
100
AcDbEntity
  8
inner_frame_1
  6
ByLayer
 62
  256
370
   -1
100
AcDbLine
 10
7.400000000000006
 20
16.4
 11
7.400000000000006
 21
16
  0
LINE
  5
17E
100
AcDbEntity
  8
inner_frame_1
  6
ByLayer
 62
  256
370
   -1
100
AcDbLine
 10
7.330000000000013
 20
16.4
 11
7.330000000000013
 21
16
  0
ARC
  5
17F
100
AcDbEntity
  8
inner_frame_1
  6
ByLayer
 62
  256
370
   -1
100
AcDbCircle
 10
1.700000000000003
 20
22.1
 40
0.3
100
AcDbArc
 50
90.00000000000034
 51
180
  0
ARC
  5
180
100
AcDbEntity
  8
inner_frame_1
  6
ByLayer
 62
  256
370
   -1
100
AcDbCircle
 10
7.100000000000009
 20
22.1
 40
0.3
100
AcDbArc
 50
0
 51
90
  0
ARC
  5
181
100
AcDbEntity
  8
inner_frame_1
  6
ByLayer
 62
  256
370
   -1
100
AcDbCircle
 10
1.700000000000003
 20
16.7
 40
0.3
100
AcDbArc
 50
180
 51
270
  0
ARC
  5
182
100
AcDbEntity
  8
inner_frame_1
  6
ByLayer
 62
  256
370
   -1
100
AcDbCircle
 10
1.300000000000011
 20
16.3
 40
0.3
100
AcDbArc
 50
180
 51
270
  0
ARC
  5
183
100
AcDbEntity
  8
inner_frame_1
  6
ByLayer
 62
  256
370
   -1
100
AcDbCircle
 10
7.5
 20
16.3
 40
0.3
100
AcDbArc
 50
270
 51
0
  0
ARC
  5
184
100
AcDbEntity
  8
inner_frame_1
  6
ByLayer
 62
  256
370
   -1
100
AcDbCircle
 10
7.5
 20
22.5
 40
0.3
100
AcDbArc
 50
7.63333123551244e-14
 51
90
  0
ARC
  5
185
100
AcDbEntity
  8
inner_frame_1
  6
ByLayer
 62
  256
370
   -1
100
AcDbCircle
 10
1.300000000000011
 20
22.5
 40
0.3
100
AcDbArc
 50
90.00000000000034
 51
180
  0
LINE
  5
186
100
AcDbEntity
  8
inner_frame_1
  6
ByLayer
 62
  256
370
   -1
100
AcDbLine
 10
1.300000000000011
 20
22.8
 11
7.5
 21
22.8
  0
LINE
  5
187
100
AcDbEntity
  8
inner_frame_1
  6
ByLayer
 62
  256
370
   -1
100
AcDbLine
 10
7.800000000000011
 20
22.5
 11
7.800000000000011
 21
16.3
  0
LINE
  5
188
100
AcDbEntity
  8
inner_frame_1
  6
ByLayer
 62
  256
370
   -1
100
AcDbLine
 10
7.400000000000006
 20
22.1
 11
7.400000000000006
 21
16.4
  0
LINE
  5
189
100
AcDbEntity
  8
inner_frame_1
  6
ByLayer
 62
  256
370
   -1
100
AcDbLine
 10
7.330000000000013
 20
16.4
 11
1.700000000000003
 21
16.4
  0
LINE
  5
18A
100
AcDbEntity
  8
inner_frame_1
  6
ByLayer
 62
  256
370
   -1
100
AcDbLine
 10
1.300000000000011
 20
16
 11
7.330000000000013
 21
16
  0
LINE
  5
18B
100
AcDbEntity
  8
inner_frame_1
  6
ByLayer
 62
  256
370
   -1
100
AcDbLine
 10
1
 20
16.3
 11
1
 21
22.5
  0
LINE
  5
18C
100
AcDbEntity
  8
inner_frame_1
  6
ByLayer
 62
  256
370
   -1
100
AcDbLine
 10
1.400000000000006
 20
22.1
 11
1.400000000000006
 21
16.7
  0
LINE
  5
18D
100
AcDbEntity
  8
inner_frame_1
  6
ByLayer
 62
  256
370
   -1
100
AcDbLine
 10
1.700000000000003
 20
22.4
 11
7.100000000000009
 21
22.4
  0
LINE
  5
18E
100
AcDbEntity
  8
inner_frame_1
  6
ByLayer
 62
  256
370
   -1
100
AcDbLine
 10
7.400000000000006
 20
16
 11
7.5
 21
16
  0
CIRCLE
  5
18F
100
AcDbEntity
  8
inner_frame_1
  6
ByLayer
 62
  256
370
   -1
100
AcDbCircle
 10
1.2
 20
22.6
 40
0.044
  0
CIRCLE
  5
190
100
AcDbEntity
  8
inner_frame_1
  6
ByLayer
 62
  256
370
   -1
100
AcDbCircle
 10
1.2
 20
22.3
 40
0.044
  0
CIRCLE
  5
191
100
AcDbEntity
  8
inner_frame_1
  6
ByLayer
 62
  256
370
   -1
100
AcDbCircle
 10
7.6
 20
22.6
 40
0.044
  0
CIRCLE
  5
192
100
AcDbEntity
  8
inner_frame_1
  6
ByLayer
 62
  256
370
   -1
100
AcDbCircle
 10
7.6
 20
22.3
 40
0.044
  0
CIRCLE
  5
193
100
AcDbEntity
  8
inner_frame_1
  6
ByLayer
 62
  256
370
   -1
100
AcDbCircle
 10
7.6
 20
16.5
 40
0.044
  0
CIRCLE
  5
194
100
AcDbEntity
  8
inner_frame_1
  6
ByLayer
 62
  256
370
   -1
100
AcDbCircle
 10
7.6
 20
16.2
 40
0.044
  0
CIRCLE
  5
195
100
AcDbEntity
  8
inner_frame_1
  6
ByLayer
 62
  256
370
   -1
100
AcDbCircle
 10
1.2
 20
16.5
 40
0.044
  0
CIRCLE
  5
196
100
AcDbEntity
  8
inner_frame_1
  6
ByLayer
 62
  256
370
   -1
100
AcDbCircle
 10
1.2
 20
16.2
 40
0.044
  0
ARC
  5
197
100
AcDbEntity
  8
inner_frame_2
  6
ByLayer
 62
  256
370
   -1
100
AcDbCircle
 10
9.299999999999997
 20
5.560000000000002
 40
0.3
100
AcDbArc
 50
89.99999999999983
 51
180
  0
ARC
  5
198
100
AcDbEntity
  8
inner_frame_2
  6
ByLayer
 62
  256
370
   -1
100
AcDbCircle
 10
9.699999999999996
 20
5.159999999999998
 40
0.3
100
AcDbArc
 50
90
 51
180
  0
ARC
  5
199
100
AcDbEntity
  8
inner_frame_2
  6
ByLayer
 62
  256
370
   -1
100
AcDbCircle
 10
14.16
 20
5.159999999999998
 40
0.3
100
AcDbArc
 50
1.781110621619569e-13
 51
90
  0
ARC
  5
19A
100
AcDbEntity
  8
inner_frame_2
  6
ByLayer
 62
  256
370
   -1
100
AcDbCircle
 10
14.56
 20
5.560000000000002
 40
0.3
100
AcDbArc
 50
0
 51
90
  0
ARC
  5
19B
100
AcDbEntity
  8
inner_frame_2
  6
ByLayer
 62
  256
370
   -1
100
AcDbCircle
 10
9.699999999999996
 20
0.6999999999999993
 40
0.3
100
AcDbArc
 50
180
 51
270
  0
ARC
  5
19C
100
AcDbEntity
  8
inner_frame_2
  6
ByLayer
 62
  256
370
   -1
100
AcDbCircle
 10
9.299999999999997
 20
0.3000000000000007
 40
0.3
100
AcDbArc
 50
180
 51
270
  0
ARC
  5
19D
100
AcDbEntity
  8
inner_frame_2
  6
ByLayer
 62
  256
370
   -1
100
AcDbCircle
 10
14.16
 20
0.6999999999999993
 40
0.3
100
AcDbArc
 50
270
 51
0
  0
LINE
  5
19E
100
AcDbEntity
  8
inner_frame_2
  6
ByLayer
 62
  256
370
   -1
100
AcDbLine
 10
9
 20
0.3000000000000007
 11
9
 21
5.560000000000002
  0
LINE
  5
19F
100
AcDbEntity
  8
inner_frame_2
  6
ByLayer
 62
  256
370
   -1
100
AcDbLine
 10
9.299999999999997
 20
5.860000000000001
 11
14.56
 21
5.860000000000001
  0
LINE
  5
1A0
100
AcDbEntity
  8
inner_frame_2
  6
ByLayer
 62
  256
370
   -1
100
AcDbLine
 10
14.16
 20
5.459999999999997
 11
9.699999999999996
 21
5.459999999999997
  0
LINE
  5
1A1
100
AcDbEntity
  8
inner_frame_2
  6
ByLayer
 62
  256
370
   -1
100
AcDbLine
 10
9.399999999999999
 20
5.159999999999998
 11
9.399999999999999
 21
0.6999999999999993
  0
LINE
  5
1A2
100
AcDbEntity
  8
inner_frame_2
  6
ByLayer
 62
  256
370
   -1
100
AcDbLine
 10
9.699999999999996
 20
0.3999999999999986
 11
14.16
 21
0.3999999999999986
  0
LINE
  5
1A3
100
AcDbEntity
  8
inner_frame_2
  6
ByLayer
 62
  256
370
   -1
100
AcDbLine
 10
14.46
 20
0.6999999999999993
 11
14.46
 21
5.16
  0
CIRCLE
  5
1A4
100
AcDbEntity
  8
inner_frame_2
  6
ByLayer
 62
  256
370
   -1
100
AcDbCircle
 10
9.199999999999996
 20
5.66
 40
0.058
  0
CIRCLE
  5
1A5
100
AcDbEntity
  8
inner_frame_2
  6
ByLayer
 62
  256
370
   -1
100
AcDbCircle
 10
14.66
 20
5.66
 40
0.058
  0
CIRCLE
  5
1A6
100
AcDbEntity
  8
inner_frame_2
  6
ByLayer
 62
  256
370
   -1
100
AcDbCircle
 10
14.66
 20
0.1999999999999993
 40
0.058
  0
CIRCLE
  5
1A7
100
AcDbEntity
  8
inner_frame_2
  6
ByLayer
 62
  256
370
   -1
100
AcDbCircle
 10
9.199999999999996
 20
0.1999999999999993
 40
0.058
  0
LINE
  5
1A8
100
AcDbEntity
  8
inner_frame_2
  6
ByLayer
 62
  256
370
   -1
100
AcDbLine
 10
14.86
 20
0
 11
14.86
 21
5.560000000000002
  0
LINE
  5
1A9
100
AcDbEntity
  8
inner_frame_2
  6
ByLayer
 62
  256
370
   -1
100
AcDbLine
 10
9.299999999999997
 20
8.881784197001252e-16
 11
14.86
 21
0
  0
ARC
  5
1AA
100
AcDbEntity
  8
inner_frame_2
  6
ByLayer
 62
  256
370
   -1
100
AcDbCircle
 10
9.299999999999997
 20
13.56
 40
0.3
100
AcDbArc
 50
89.99999999999983
 51
180
  0
ARC
  5
1AB
100
AcDbEntity
  8
inner_frame_2
  6
ByLayer
 62
  256
370
   -1
100
AcDbCircle
 10
9.699999999999996
 20
13.16
 40
0.3
100
AcDbArc
 50
90
 51
180
  0
ARC
  5
1AC
100
AcDbEntity
  8
inner_frame_2
  6
ByLayer
 62
  256
370
   -1
100
AcDbCircle
 10
14.16
 20
13.16
 40
0.3
100
AcDbArc
 50
1.781110621619569e-13
 51
90
  0
ARC
  5
1AD
100
AcDbEntity
  8
inner_frame_2
  6
ByLayer
 62
  256
370
   -1
100
AcDbCircle
 10
14.56
 20
13.56
 40
0.3
100
AcDbArc
 50
0
 51
90
  0
ARC
  5
1AE
100
AcDbEntity
  8
inner_frame_2
  6
ByLayer
 62
  256
370
   -1
100
AcDbCircle
 10
9.699999999999996
 20
8.699999999999999
 40
0.3
100
AcDbArc
 50
180
 51
270
  0
ARC
  5
1AF
100
AcDbEntity
  8
inner_frame_2
  6
ByLayer
 62
  256
370
   -1
100
AcDbCircle
 10
9.299999999999997
 20
8.300000000000001
 40
0.3
100
AcDbArc
 50
180
 51
270
  0
ARC
  5
1B0
100
AcDbEntity
  8
inner_frame_2
  6
ByLayer
 62
  256
370
   -1
100
AcDbCircle
 10
14.16
 20
8.699999999999999
 40
0.3
100
AcDbArc
 50
270
 51
0
  0
LINE
  5
1B1
100
AcDbEntity
  8
inner_frame_2
  6
ByLayer
 62
  256
370
   -1
100
AcDbLine
 10
9
 20
8.300000000000001
 11
9
 21
13.56
  0
LINE
  5
1B2
100
AcDbEntity
  8
inner_frame_2
  6
ByLayer
 62
  256
370
   -1
100
AcDbLine
 10
9.299999999999997
 20
13.86
 11
14.56
 21
13.86
  0
LINE
  5
1B3
100
AcDbEntity
  8
inner_frame_2
  6
ByLayer
 62
  256
370
   -1
100
AcDbLine
 10
14.16
 20
13.46
 11
9.699999999999996
 21
13.46
  0
LINE
  5
1B4
100
AcDbEntity
  8
inner_frame_2
  6
ByLayer
 62
  256
370
   -1
100
AcDbLine
 10
9.399999999999999
 20
13.16
 11
9.399999999999999
 21
8.699999999999999
  0
LINE
  5
1B5
100
AcDbEntity
  8
inner_frame_2
  6
ByLayer
 62
  256
370
   -1
100
AcDbLine
 10
9.699999999999996
 20
8.399999999999999
 11
14.16
 21
8.399999999999999
  0
LINE
  5
1B6
100
AcDbEntity
  8
inner_frame_2
  6
ByLayer
 62
  256
370
   -1
100
AcDbLine
 10
14.46
 20
8.699999999999999
 11
14.46
 21
13.16
  0
LINE
  5
1B7
100
AcDbEntity
  8
inner_frame_2
  6
ByLayer
 62
  256
370
   -1
100
AcDbLine
 10
14.86
 20
8
 11
14.86
 21
13.56
  0
LINE
  5
1B8
100
AcDbEntity
  8
inner_frame_2
  6
ByLayer
 62
  256
370
   -1
100
AcDbLine
 10
9.299999999999997
 20
8
 11
14.86
 21
8
  0
CIRCLE
  5
1B9
100
AcDbEntity
  8
inner_frame_2
  6
ByLayer
 62
  256
370
   -1
100
AcDbCircle
 10
9.199999999999999
 20
13.66
 40
0.044
  0
CIRCLE
  5
1BA
100
AcDbEntity
  8
inner_frame_2
  6
ByLayer
 62
  256
370
   -1
100
AcDbCircle
 10
14.66
 20
13.66
 40
0.044
  0
CIRCLE
  5
1BB
100
AcDbEntity
  8
inner_frame_2
  6
ByLayer
 62
  256
370
   -1
100
AcDbCircle
 10
9.199999999999999
 20
8.199999999999999
 40
0.044
  0
CIRCLE
  5
1BC
100
AcDbEntity
  8
inner_frame_2
  6
ByLayer
 62
  256
370
   -1
100
AcDbCircle
 10
14.66
 20
8.199999999999999
 40
0.044
  0
LINE
  5
1BD
100
AcDbEntity
  8
outer_frame
  6
ByLayer
 62
  256
370
   -1
100
AcDbLine
 10
19.4
 20
5.93
 11
19.4
 21
5.93
  0
LINE
  5
1BE
100
AcDbEntity
  8
outer_frame
  6
ByLayer
 62
  256
370
   -1
100
AcDbLine
 10
19.4
 20
0.8699999999999974
 11
19.4
 21
0.8699999999999974
  0
ARC
  5
1BF
100
AcDbEntity
  8
outer_frame
  6
ByLayer
 62
  256
370
   -1
100
AcDbCircle
 10
16.3
 20
6.5
 40
0.3
100
AcDbArc
 50
90
 51
180
  0
ARC
  5
1C0
100
AcDbEntity
  8
outer_frame
  6
ByLayer
 62
  256
370
   -1
100
AcDbCircle
 10
22.5
 20
6.5
 40
0.3
100
AcDbArc
 50
0
 51
90
  0
ARC
  5
1C1
100
AcDbEntity
  8
outer_frame
  6
ByLayer
 62
  256
370
   -1
100
AcDbCircle
 10
17.16999999999999
 20
5.629999999999999
 40
0.3
100
AcDbArc
 50
90
 51
180
  0
ARC
  5
1C2
100
AcDbEntity
  8
outer_frame
  6
ByLayer
 62
  256
370
   -1
100
AcDbCircle
 10
21.63
 20
5.629999999999999
 40
0.3
100
AcDbArc
 50
0
 51
90
  0
ARC
  5
1C3
100
AcDbEntity
  8
outer_frame
  6
ByLayer
 62
  256
370
   -1
100
AcDbCircle
 10
21.63
 20
1.169999999999998
 40
0.3
100
AcDbArc
 50
270
 51
0
  0
ARC
  5
1C4
100
AcDbEntity
  8
outer_frame
  6
ByLayer
 62
  256
370
   -1
100
AcDbCircle
 10
17.16999999999999
 20
1.169999999999998
 40
0.3
100
AcDbArc
 50
180
 51
270
  0
ARC
  5
1C5
100
AcDbEntity
  8
outer_frame
  6
ByLayer
 62
  256
370
   -1
100
AcDbCircle
 10
22.5
 20
0.2999999999999972
 40
0.3
100
AcDbArc
 50
270
 51
0
  0
ARC
  5
1C6
100
AcDbEntity
  8
outer_frame
  6
ByLayer
 62
  256
370
   -1
100
AcDbCircle
 10
16.3
 20
0.2999999999999972
 40
0.3
100
AcDbArc
 50
180
 51
270
  0
LINE
  5
1C7
100
AcDbEntity
  8
outer_frame
  6
ByLayer
 62
  256
370
   -1
100
AcDbLine
 10
16.3
 20
6.799999999999997
 11
22.5
 21
6.799999999999997
  0
LINE
  5
1C8
100
AcDbEntity
  8
outer_frame
  6
ByLayer
 62
  256
370
   -1
100
AcDbLine
 10
16
 20
6.5
 11
16
 21
0.2999999999999972
  0
LINE
  5
1C9
100
AcDbEntity
  8
outer_frame
  6
ByLayer
 62
  256
370
   -1
100
AcDbLine
 10
16.3
 20
0
 11
22.5
 21
0
  0
LINE
  5
1CA
100
AcDbEntity
  8
outer_frame
  6
ByLayer
 62
  256
370
   -1
100
AcDbLine
 10
17.16999999999999
 20
0.8699999999999974
 11
21.63
 21
0.8699999999999974
  0
LINE
  5
1CB
100
AcDbEntity
  8
outer_frame
  6
ByLayer
 62
  256
370
   -1
100
AcDbLine
 10
16.87
 20
5.629999999999999
 11
16.87
 21
1.169999999999998
  0
LINE
  5
1CC
100
AcDbEntity
  8
outer_frame
  6
ByLayer
 62
  256
370
   -1
100
AcDbLine
 10
21.63
 20
5.93
 11
17.16999999999999
 21
5.93
  0
LINE
  5
1CD
100
AcDbEntity
  8
outer_frame
  6
ByLayer
 62
  256
370
   -1
100
AcDbLine
 10
21.93
 20
5.629999999999999
 11
21.93
 21
1.169999999999998
  0
LINE
  5
1CE
100
AcDbEntity
  8
outer_frame
  6
ByLayer
 62
  256
370
   -1
100
AcDbLine
 10
22.8
 20
0.2999999999999972
 11
22.8
 21
6.5
  0
CIRCLE
  5
1CF
100
AcDbEntity
  8
outer_frame
  6
ByLayer
 62
  256
370
   -1
100
AcDbCircle
 10
16.2
 20
6.299999999999997
 40
0.058
  0
CIRCLE
  5
1D0
100
AcDbEntity
  8
outer_frame
  6
ByLayer
 62
  256
370
   -1
100
AcDbCircle
 10
22.6
 20
6.299999999999997
 40
0.058
  0
CIRCLE
  5
1D1
100
AcDbEntity
  8
outer_frame
  6
ByLayer
 62
  256
370
   -1
100
AcDbCircle
 10
22.6
 20
0.5
 40
0.058
  0
CIRCLE
  5
1D2
100
AcDbEntity
  8
outer_frame
  6
ByLayer
 62
  256
370
   -1
100
AcDbCircle
 10
16.2
 20
0.5
 40
0.058
  0
LINE
  5
1D3
100
AcDbEntity
  8
outer_frame
  6
ByLayer
 62
  256
370
   -1
100
AcDbLine
 10
19.4
 20
13.93
 11
19.4
 21
13.93
  0
LINE
  5
1D4
100
AcDbEntity
  8
outer_frame
  6
ByLayer
 62
  256
370
   -1
100
AcDbLine
 10
19.4
 20
8.869999999999997
 11
19.4
 21
8.869999999999997
  0
ARC
  5
1D5
100
AcDbEntity
  8
outer_frame
  6
ByLayer
 62
  256
370
   -1
100
AcDbCircle
 10
16.3
 20
14.5
 40
0.3
100
AcDbArc
 50
90
 51
180
  0
ARC
  5
1D6
100
AcDbEntity
  8
outer_frame
  6
ByLayer
 62
  256
370
   -1
100
AcDbCircle
 10
22.5
 20
14.5
 40
0.3
100
AcDbArc
 50
0
 51
90
  0
ARC
  5
1D7
100
AcDbEntity
  8
outer_frame
  6
ByLayer
 62
  256
370
   -1
100
AcDbCircle
 10
17.16999999999999
 20
13.63
 40
0.3
100
AcDbArc
 50
90
 51
180
  0
ARC
  5
1D8
100
AcDbEntity
  8
outer_frame
  6
ByLayer
 62
  256
370
   -1
100
AcDbCircle
 10
21.63
 20
13.63
 40
0.3
100
AcDbArc
 50
0
 51
90
  0
ARC
  5
1D9
100
AcDbEntity
  8
outer_frame
  6
ByLayer
 62
  256
370
   -1
100
AcDbCircle
 10
21.63
 20
9.169999999999998
 40
0.3
100
AcDbArc
 50
270
 51
0
  0
ARC
  5
1DA
100
AcDbEntity
  8
outer_frame
  6
ByLayer
 62
  256
370
   -1
100
AcDbCircle
 10
17.16999999999999
 20
9.169999999999998
 40
0.3
100
AcDbArc
 50
180
 51
270
  0
ARC
  5
1DB
100
AcDbEntity
  8
outer_frame
  6
ByLayer
 62
  256
370
   -1
100
AcDbCircle
 10
22.5
 20
8.299999999999997
 40
0.3
100
AcDbArc
 50
270
 51
0
  0
ARC
  5
1DC
100
AcDbEntity
  8
outer_frame
  6
ByLayer
 62
  256
370
   -1
100
AcDbCircle
 10
16.3
 20
8.299999999999997
 40
0.3
100
AcDbArc
 50
180
 51
270
  0
LINE
  5
1DD
100
AcDbEntity
  8
outer_frame
  6
ByLayer
 62
  256
370
   -1
100
AcDbLine
 10
16.3
 20
14.8
 11
22.5
 21
14.8
  0
LINE
  5
1DE
100
AcDbEntity
  8
outer_frame
  6
ByLayer
 62
  256
370
   -1
100
AcDbLine
 10
16
 20
14.5
 11
16
 21
8.299999999999997
  0
LINE
  5
1DF
100
AcDbEntity
  8
outer_frame
  6
ByLayer
 62
  256
370
   -1
100
AcDbLine
 10
16.3
 20
8
 11
22.5
 21
8
  0
LINE
  5
1E0
100
AcDbEntity
  8
outer_frame
  6
ByLayer
 62
  256
370
   -1
100
AcDbLine
 10
17.16999999999999
 20
8.869999999999997
 11
21.63
 21
8.869999999999997
  0
LINE
  5
1E1
100
AcDbEntity
  8
outer_frame
  6
ByLayer
 62
  256
370
   -1
100
AcDbLine
 10
16.87
 20
13.63
 11
16.87
 21
9.169999999999998
  0
LINE
  5
1E2
100
AcDbEntity
  8
outer_frame
  6
ByLayer
 62
  256
370
   -1
100
AcDbLine
 10
21.63
 20
13.93
 11
17.16999999999999
 21
13.93
  0
LINE
  5
1E3
100
AcDbEntity
  8
outer_frame
  6
ByLayer
 62
  256
370
   -1
100
AcDbLine
 10
21.93
 20
13.63
 11
21.93
 21
9.169999999999998
  0
LINE
  5
1E4
100
AcDbEntity
  8
outer_frame
  6
ByLayer
 62
  256
370
   -1
100
AcDbLine
 10
22.8
 20
8.299999999999997
 11
22.8
 21
14.5
  0
CIRCLE
  5
1E5
100
AcDbEntity
  8
outer_frame
  6
ByLayer
 62
  256
370
   -1
100
AcDbCircle
 10
16.2
 20
14.6
 40
0.058
  0
CIRCLE
  5
1E6
100
AcDbEntity
  8
outer_frame
  6
ByLayer
 62
  256
370
   -1
100
AcDbCircle
 10
22.6
 20
14.6
 40
0.058
  0
CIRCLE
  5
1E7
100
AcDbEntity
  8
outer_frame
  6
ByLayer
 62
  256
370
   -1
100
AcDbCircle
 10
16.2
 20
8.199999999999999
 40
0.058
  0
CIRCLE
  5
1E8
100
AcDbEntity
  8
outer_frame
  6
ByLayer
 62
  256
370
   -1
100
AcDbCircle
 10
22.6
 20
8.199999999999999
 40
0.058
  0
CIRCLE
  5
1E9
100
AcDbEntity
  8
outer_frame
  6
ByLayer
 62
  256
370
   -1
100
AcDbCircle
 10
16.66999999999999
 20
14.13
 40
0.058
  0
CIRCLE
  5
1EA
100
AcDbEntity
  8
outer_frame
  6
ByLayer
 62
  256
370
   -1
100
AcDbCircle
 10
22.13
 20
14.13
 40
0.058
  0
CIRCLE
  5
1EB
100
AcDbEntity
  8
outer_frame
  6
ByLayer
 62
  256
370
   -1
100
AcDbCircle
 10
22.13
 20
8.669999999999998
 40
0.058
  0
CIRCLE
  5
1EC
100
AcDbEntity
  8
outer_frame
  6
ByLayer
 62
  256
370
   -1
100
AcDbCircle
 10
16.66999999999999
 20
8.669999999999998
 40
0.058
  0
ARC
  5
1ED
100
AcDbEntity
  8
light_plate
  6
ByLayer
 62
  256
370
   -1
100
AcDbCircle
 10
24.3
 20
5.559999999999999
 40
0.3
100
AcDbArc
 50
89.99999999999986
 51
180
  0
ARC
  5
1EE
100
AcDbEntity
  8
light_plate
  6
ByLayer
 62
  256
370
   -1
100
AcDbCircle
 10
29.56
 20
5.559999999999999
 40
0.3
100
AcDbArc
 50
0
 51
90
  0
ARC
  5
1EF
100
AcDbEntity
  8
light_plate
  6
ByLayer
 62
  256
370
   -1
100
AcDbCircle
 10
24.3
 20
0.3000000000000007
 40
0.3
100
AcDbArc
 50
179.9999999999999
 51
270
  0
LINE
  5
1F0
100
AcDbEntity
  8
light_plate
  6
ByLayer
 62
  256
370
   -1
100
AcDbLine
 10
24
 20
0.3000000000000007
 11
24
 21
5.559999999999999
  0
LINE
  5
1F1
100
AcDbEntity
  8
light_plate
  6
ByLayer
 62
  256
370
   -1
100
AcDbLine
 10
24.3
 20
5.859999999999999
 11
29.56
 21
5.859999999999999
  0
CIRCLE
  5
1F2
100
AcDbEntity
  8
light_plate
  6
ByLayer
 62
  256
370
   -1
100
AcDbCircle
 10
24.2
 20
5.66
 40
0.058
  0
CIRCLE
  5
1F3
100
AcDbEntity
  8
light_plate
  6
ByLayer
 62
  256
370
   -1
100
AcDbCircle
 10
29.66
 20
5.66
 40
0.058
  0
CIRCLE
  5
1F4
100
AcDbEntity
  8
light_plate
  6
ByLayer
 62
  256
370
   -1
100
AcDbCircle
 10
29.66
 20
0.1999999999999993
 40
0.058
  0
CIRCLE
  5
1F5
100
AcDbEntity
  8
light_plate
  6
ByLayer
 62
  256
370
   -1
100
AcDbCircle
 10
24.2
 20
0.1999999999999993
 40
0.058
  0
LINE
  5
1F6
100
AcDbEntity
  8
light_plate
  6
ByLayer
 62
  256
370
   -1
100
AcDbLine
 10
29.86
 20
0
 11
29.86
 21
5.559999999999999
  0
LINE
  5
1F7
100
AcDbEntity
  8
light_plate
  6
ByLayer
 62
  256
370
   -1
100
AcDbLine
 10
24.3
 20
0
 11
29.86
 21
0
  0
ENDSEC
  0
SECTION
  2
OBJECTS
  0
DICTIONARY
  5
C
330
0
100
AcDbDictionary
281
    1
  3
ACAD_GROUP
350
D
  0
DICTIONARY
  5
D
330
C
100
AcDbDictionary
281
    1
  0
ENDSEC
  0
EOF
