999
dxfrw 0.6.3
  0
SECTION
  2
HEADER
  9
$ACADVER
  1
AC1021
  9
$DWGCODEPAGE
  3
ANSI_1252
  9
$INSBASE
 10
0
 20
0
 30
0
  9
$EXTMIN
 10
0
 20
0
 30
0
  9
$EXTMAX
 10
58.73
 20
23
 30
0
  9
$LIMMIN
 10
0
 20
0
  9
$LIMMAX
 10
420
 20
297
  9
$ORTHOMODE
 70
    0
  9
$REGENMODE
 70
    1
  9
$FILLMODE
 70
    1
  9
$QTEXTMODE
 70
    0
  9
$MIRRTEXT
 70
    0
  9
$LTSCALE
 40
1
  9
$ATTMODE
 70
    0
  9
$TEXTSIZE
 40
2.5
  9
$TRACEWID
 40
15.68
  9
$TEXTSTYLE
  7
STANDARD
  9
$CLAYER
  8
0
  9
$CELTYPE
  6
BYLAYER
  9
$CECOLOR
 62
  256
  9
$CELTSCALE
 40
1
  9
$DISPSILH
 70
    0
  9
$DIMSCALE
 40
2.5
  9
$DIMASZ
 40
0.1
  9
$DIMEXO
 40
0.625
  9
$DIMDLI
 40
3.75
  9
$DIMRND
 40
0
  9
$DIMDLE
 40
0
  9
$DIMEXE
 40
0.05
  9
$DIMTP
 40
0
  9
$DIMTM
 40
0
  9
$DIMTXT
 40
0.1
  9
$DIMCEN
 40
2.5
  9
$DIMTSZ
 40
0
  9
$DIMTOL
 70
    0
  9
$DIMLIM
 70
    0
  9
$DIMTIH
 70
    0
  9
$DIMTOH
 70
    0
  9
$DIMSE1
 70
    0
  9
$DIMSE2
 70
    0
  9
$DIMTAD
 70
    1
  9
$DIMZIN
 70
    1
  9
$DIMBLK
  1

  9
$DIMASO
 70
    1
  9
$DIMSHO
 70
    1
  9
$DIMPOST
  1

  9
$DIMAPOST
  1

  9
$DIMALT
 70
    0
  9
$DIMALTD
 70
    3
  9
$DIMALTF
 40
0.03937
  9
$DIMLFAC
 40
1
  9
$DIMTOFL
 70
    1
  9
$DIMTVP
 40
0
  9
$DIMTIX
 70
    0
  9
$DIMSOXD
 70
    0
  9
$DIMSAH
 70
    0
  9
$DIMBLK1
  1

  9
$DIMBLK2
  1

  9
$DIMSTYLE
  2
STANDARD
  9
$DIMCLRD
 70
    0
  9
$DIMCLRE
 70
    0
  9
$DIMCLRT
 70
    0
  9
$DIMTFAC
 40
1
  9
$DIMGAP
 40
0.625
  9
$DIMJUST
 70
    0
  9
$DIMSD1
 70
    0
  9
$DIMSD2
 70
    0
  9
$DIMTOLJ
 70
    0
  9
$DIMTZIN
 70
    8
  9
$DIMALTZ
 70
    0
  9
$DIMALTTZ
 70
    0
  9
$DIMUPT
 70
    0
  9
$DIMDEC
 70
    4
  9
$DIMTDEC
 70
    2
  9
$DIMALTU
 70
    2
  9
$DIMALTTD
 70
    3
  9
$DIMTXSTY
  7
standard
  9
$DIMAUNIT
 70
    0
  9
$DIMADEC
 70
    2
  9
$DIMALTRND
 40
0
  9
$DIMAZIN
 70
    0
  9
$DIMDSEP
 70
    0
  9
$DIMATFIT
 70
    3
  9
$DIMFRAC
 70
    0
  9
$DIMLDRBLK
  1
STANDARD
  9
$DIMLUNIT
 70
    2
  9
$DIMLWD
 70
   -2
  9
$DIMLWE
 70
   -2
  9
$DIMTMOVE
 70
    0
  9
$DIMFXL
 40
0.04
  9
$DIMFXLON
 70
    0
  9
$DIMJOGANG
 40
0.7854
  9
$DIMTFILL
 70
    0
  9
$DIMTFILLCLR
 70
    0
  9
$DIMARCSYM
 70
    0
  9
$DIMLTYPE
  6

  9
$DIMLTEX1
  6

  9
$DIMLTEX2
  6

  9
$LUNITS
 70
    2
  9
$LUPREC
 70
    4
  9
$SKETCHINC
 40
1
  9
$FILLETRAD
 40
0
  9
$AUNITS
 70
    0
  9
$AUPREC
 70
    2
  9
$MENU
  1
.
  9
$ELEVATION
 40
0
  9
$PELEVATION
 40
0
  9
$THICKNESS
 40
0
  9
$LIMCHECK
 70
    0
  9
$CHAMFERA
 40
0
  9
$CHAMFERB
 40
0
  9
$CHAMFERC
 40
0
  9
$CHAMFERD
 40
0
  9
$SKPOLY
 70
    0
  9
$USRTIMER
 70
    1
  9
$ANGBASE
 50
0
  9
$ANGDIR
 70
    0
  9
$PDMODE
 70
   34
  9
$PDSIZE
 40
0
  9
$PLINEWID
 40
0
  9
$SPLFRAME
 70
    0
  9
$SPLINETYPE
 70
    2
  9
$SPLINESEGS
 70
    8
  9
$HANDSEED
  5
20000
  9
$SURFTAB1
 70
    6
  9
$SURFTAB2
 70
    6
  9
$SURFTYPE
 70
    6
  9
$SURFU
 70
    6
  9
$SURFV
 70
    6
  9
$UCSBASE
  2

  9
$UCSNAME
  2

  9
$UCSORG
 10
0
 20
0
 30
0
  9
$UCSXDIR
 10
1
 20
0
 30
0
  9
$UCSYDIR
 10
0
 20
1
 30
0
  9
$UCSORTHOREF
  2

  9
$UCSORTHOVIEW
 70
    0
  9
$UCSORGTOP
 10
0
 20
0
 30
0
  9
$UCSORGBOTTOM
 10
0
 20
0
 30
0
  9
$UCSORGLEFT
 10
0
 20
0
 30
0
  9
$UCSORGRIGHT
 10
0
 20
0
 30
0
  9
$UCSORGFRONT
 10
0
 20
0
 30
0
  9
$UCSORGBACK
 10
0
 20
0
 30
0
  9
$PUCSBASE
  2

  9
$PUCSNAME
  2

  9
$PUCSORG
 10
0
 20
0
 30
0
  9
$PUCSXDIR
 10
1
 20
0
 30
0
  9
$PUCSYDIR
 10
0
 20
1
 30
0
  9
$PUCSORTHOREF
  2

  9
$PUCSORTHOVIEW
 70
    0
  9
$PUCSORGTOP
 10
0
 20
0
 30
0
  9
$PUCSORGBOTTOM
 10
0
 20
0
 30
0
  9
$PUCSORGLEFT
 10
0
 20
0
 30
0
  9
$PUCSORGRIGHT
 10
0
 20
0
 30
0
  9
$PUCSORGFRONT
 10
0
 20
0
 30
0
  9
$PUCSORGBACK
 10
0
 20
0
 30
0
  9
$USERI1
 70
    0
  9
$USERI2
 70
    0
  9
$USERI3
 70
    0
  9
$USERI4
 70
    0
  9
$USERI5
 70
    0
  9
$USERR1
 40
0
  9
$USERR2
 40
0
  9
$USERR3
 40
0
  9
$USERR4
 40
0
  9
$USERR5
 40
0
  9
$WORLDVIEW
 70
    1
  9
$SHADEDGE
 70
    3
  9
$SHADEDIF
 70
   70
  9
$TILEMODE
 70
    1
  9
$MAXACTVP
 70
   64
  9
$PINSBASE
 10
0
 20
0
 30
0
  9
$PLIMCHECK
 70
    0
  9
$PEXTMIN
 10
0
 20
0
 30
0
  9
$PEXTMAX
 10
0
 20
0
 30
0
  9
$GRIDMODE
 70
    1
  9
$SNAPSTYLE
 70
    0
  9
$PLIMMIN
 10
0
 20
0
  9
$PLIMMAX
 10
4.772152e-11
 20
6.749288e-11
  9
$UNITMODE
 70
    0
  9
$VISRETAIN
 70
    1
  9
$PLINEGEN
 70
    0
  9
$PSLTSCALE
 70
    1
  9
$TREEDEPTH
 70
 3020
  9
$CMLSTYLE
  2
Standard
  9
$CMLJUST
 70
    0
  9
$CMLSCALE
 40
20
  9
$PROXYGRAPHICS
 70
    1
  9
$MEASUREMENT
 70
    1
  9
$CELWEIGHT
370
   -1
  9
$ENDCAPS
280
    0
  9
$JOINSTYLE
280
    0
  9
$LWDISPLAY
290
    0
  9
$INSUNITS
 70
    1
  9
$HYPERLINKBASE
  1

  9
$STYLESHEET
  1

  9
$XEDIT
290
    1
  9
$CEPSNTYPE
380
    0
  9
$PSTYLEMODE
290
    1
  9
$EXTNAMES
290
    1
  9
$PSVPSCALE
 40
1
  9
$OLESTARTUP
290
    0
  9
$SORTENTS
280
  127
  9
$INDEXCTL
280
    0
  9
$HIDETEXT
280
    1
  9
$XCLIPFRAME
290
    0
  9
$HALOGAP
280
    0
  9
$OBSCOLOR
 70
  257
  9
$OBSLTYPE
280
    0
  9
$INTERSECTIONDISPLAY
280
    0
  9
$INTERSECTIONCOLOR
 70
  257
  9
$DIMASSOC
280
    1
  9
$PROJECTNAME
  1

  9
$CAMERADISPLAY
290
    0
  9
$LENSLENGTH
 40
50
  9
$CAMERAHEIGHT
 40
0
  9
$STEPSPERSEC
 40
2
  9
$STEPSIZE
 40
50
  9
$3DDWFPREC
 40
2
  9
$PSOLWIDTH
 40
5
  9
$PSOLHEIGHT
 40
80
  9
$LOFTANG1
 40
1.570796326794897
  9
$LOFTANG2
 40
1.570796326794897
  9
$LOFTMAG1
 40
0
  9
$LOFTMAG2
 40
0
  9
$LOFTPARAM
 70
    7
  9
$LOFTNORMALS
280
    1
  9
$LATITUDE
 40
1
  9
$LONGITUDE
 40
1
  9
$NORTHDIRECTION
 40
0
  9
$TIMEZONE
 70
-8000
  9
$LIGHTGLYPHDISPLAY
280
    1
  9
$TILEMODELIGHTSYNCH
280
    1
  9
$SOLIDHIST
280
    1
  9
$SHOWHIST
280
    1
  9
$DWFFRAME
280
    2
  9
$DGNFRAME
280
    0
  9
$REALWORLDSCALE
290
    1
  9
$INTERFERECOLOR
 62
    1
  9
$CSHADOW
280
    0
  9
$SHADOWPLANELOCATION
 40
0
  0
ENDSEC
  0
SECTION
  2
CLASSES
  0
ENDSEC
  0
SECTION
  2
TABLES
  0
TABLE
  2
VPORT
  5
8
330
0
100
AcDbSymbolTable
 70
    1
  0
VPORT
  5
31
330
2
100
AcDbSymbolTableRecord
100
AcDbViewportTableRecord
  2
*ACTIVE
 70
    0
 10
0
 20
0
 11
1
 21
1
 12
10.22690109910226
 22
4.701853007128955
 13
0
 23
0
 14
10
 24
10
 15
10
 25
10
 16
0
 26
0
 36
1
 17
0
 27
0
 37
0
 40
9.922838049745335
 41
1.899850523168909
 42
50
 43
0
 44
0
 50
0
 51
0
 71
    0
 72
  100
 73
    1
 74
    3
 75
    0
 76
    1
 77
    0
 78
    0
281
    0
 65
    1
110
0
120
0
130
0
111
1
121
0
131
0
112
0
122
1
132
0
 79
    0
146
0
348
10020
 60
    7
 61
    5
292
1
282
    1
141
0
142
0
 63
  250
421
3358443
  0
ENDTAB
  0
TABLE
  2
LTYPE
  5
5
330
0
100
AcDbSymbolTable
 70
    4
  0
LTYPE
  5
14
330
5
100
AcDbSymbolTableRecord
100
AcDbLinetypeTableRecord
  2
ByBlock
 70
    0
  3

 72
   65
 73
    0
 40
0
  0
LTYPE
  5
15
330
5
100
AcDbSymbolTableRecord
100
AcDbLinetypeTableRecord
  2
ByLayer
 70
    0
  3

 72
   65
 73
    0
 40
0
  0
LTYPE
  5
16
330
5
100
AcDbSymbolTableRecord
100
AcDbLinetypeTableRecord
  2
Continuous
 70
    0
  3
Solid line
 72
   65
 73
    0
 40
0
  0
LTYPE
  5
32
330
5
100
AcDbSymbolTableRecord
100
AcDbLinetypeTableRecord
  2
DOT
 70
    0
  3
Dot . . . . . . . . . . . . . . . . . . . . . .
 72
   65
 73
    2
 40
6.35
 49
0
 74
    0
 49
-6.35
 74
    0
  0
LTYPE
  5
33
330
5
100
AcDbSymbolTableRecord
100
AcDbLinetypeTableRecord
  2
DOTTINY
 70
    0
  3
Dot (.15x) .....................................
 72
   65
 73
    2
 40
0.9525
 49
0
 74
    0
 49
-0.9525
 74
    0
  0
LTYPE
  5
34
330
5
100
AcDbSymbolTableRecord
100
AcDbLinetypeTableRecord
  2
DOT2
 70
    0
  3
Dot (.5x) .....................................
 72
   65
 73
    2
 40
3.175
 49
0
 74
    0
 49
-3.175
 74
    0
  0
LTYPE
  5
35
330
5
100
AcDbSymbolTableRecord
100
AcDbLinetypeTableRecord
  2
DOTX2
 70
    0
  3
Dot (2x) .  .  .  .  .  .  .  .  .  .  .  .  .
 72
   65
 73
    2
 40
12.7
 49
0
 74
    0
 49
-12.7
 74
    0
  0
LTYPE
  5
36
330
5
100
AcDbSymbolTableRecord
100
AcDbLinetypeTableRecord
  2
DASHED
 70
    0
  3
Dashed _ _ _ _ _ _ _ _ _ _ _ _ _ _ _ _ _
 72
   65
 73
    2
 40
19.05
 49
12.7
 74
    0
 49
-6.35
 74
    0
  0
LTYPE
  5
37
330
5
100
AcDbSymbolTableRecord
100
AcDbLinetypeTableRecord
  2
DASHEDTINY
 70
    0
  3
Dashed (.15x) _ _ _ _ _ _ _ _ _ _ _ _ _ _ _ _ _
 72
   65
 73
    2
 40
2.8575
 49
1.905
 74
    0
 49
-0.9525
 74
    0
  0
LTYPE
  5
38
330
5
100
AcDbSymbolTableRecord
100
AcDbLinetypeTableRecord
  2
DASHED2
 70
    0
  3
Dashed (.5x) _ _ _ _ _ _ _ _ _ _ _ _ _ _ _ _ _
 72
   65
 73
    2
 40
9.524999999999999
 49
6.35
 74
    0
 49
-3.175
 74
    0
  0
LTYPE
  5
39
330
5
100
AcDbSymbolTableRecord
100
AcDbLinetypeTableRecord
  2
DASHEDX2
 70
    0
  3
Dashed (2x) ____  ____  ____  ____  ____  ___
 72
   65
 73
    2
 40
38.09999999999999
 49
25.4
 74
    0
 49
-12.7
 74
    0
  0
LTYPE
  5
3A
330
5
100
AcDbSymbolTableRecord
100
AcDbLinetypeTableRecord
  2
DASHDOT
 70
    0
  3
Dash dot __ . __ . __ . __ . __ . __ . __ . __
 72
   65
 73
    4
 40
25.4
 49
12.7
 74
    0
 49
-6.35
 74
    0
 49
0
 74
    0
 49
-6.35
 74
    0
  0
LTYPE
  5
3B
330
5
100
AcDbSymbolTableRecord
100
AcDbLinetypeTableRecord
  2
DASHDOTTINY
 70
    0
  3
Dash dot (.15x) _._._._._._._._._._._._._._._.
 72
   65
 73
    4
 40
3.81
 49
1.905
 74
    0
 49
-0.9525
 74
    0
 49
0
 74
    0
 49
-0.9525
 74
    0
  0
LTYPE
  5
3C
330
5
100
AcDbSymbolTableRecord
100
AcDbLinetypeTableRecord
  2
DASHDOT2
 70
    0
  3
Dash dot (.5x) _._._._._._._._._._._._._._._.
 72
   65
 73
    4
 40
12.7
 49
6.35
 74
    0
 49
-3.175
 74
    0
 49
0
 74
    0
 49
-3.175
 74
    0
  0
LTYPE
  5
3D
330
5
100
AcDbSymbolTableRecord
100
AcDbLinetypeTableRecord
  2
DASHDOTX2
 70
    0
  3
Dash dot (2x) ____  .  ____  .  ____  .  ___
 72
   65
 73
    4
 40
50.8
 49
25.4
 74
    0
 49
-12.7
 74
    0
 49
0
 74
    0
 49
-12.7
 74
    0
  0
LTYPE
  5
3E
330
5
100
AcDbSymbolTableRecord
100
AcDbLinetypeTableRecord
  2
DIVIDE
 70
    0
  3
Divide ____ . . ____ . . ____ . . ____ . . ____
 72
   65
 73
    6
 40
31.75
 49
12.7
 74
    0
 49
-6.35
 74
    0
 49
0
 74
    0
 49
-6.35
 74
    0
 49
0
 74
    0
 49
-6.35
 74
    0
  0
LTYPE
  5
3F
330
5
100
AcDbSymbolTableRecord
100
AcDbLinetypeTableRecord
  2
DIVIDETINY
 70
    0
  3
Divide (.15x) __..__..__..__..__..__..__..__.._
 72
   65
 73
    6
 40
4.7625
 49
1.905
 74
    0
 49
-0.9525
 74
    0
 49
0
 74
    0
 49
-0.9525
 74
    0
 49
0
 74
    0
 49
-0.9525
 74
    0
  0
LTYPE
  5
40
330
5
100
AcDbSymbolTableRecord
100
AcDbLinetypeTableRecord
  2
DIVIDE2
 70
    0
  3
Divide (.5x) __..__..__..__..__..__..__..__.._
 72
   65
 73
    6
 40
15.875
 49
6.35
 74
    0
 49
-3.175
 74
    0
 49
0
 74
    0
 49
-3.175
 74
    0
 49
0
 74
    0
 49
-3.175
 74
    0
  0
LTYPE
  5
41
330
5
100
AcDbSymbolTableRecord
100
AcDbLinetypeTableRecord
  2
DIVIDEX2
 70
    0
  3
Divide (2x) ________  .  .  ________  .  .  _
 72
   65
 73
    6
 40
63.5
 49
25.4
 74
    0
 49
-12.7
 74
    0
 49
0
 74
    0
 49
-12.7
 74
    0
 49
0
 74
    0
 49
-12.7
 74
    0
  0
LTYPE
  5
42
330
5
100
AcDbSymbolTableRecord
100
AcDbLinetypeTableRecord
  2
BORDER
 70
    0
  3
Border __ __ . __ __ . __ __ . __ __ . __ __ .
 72
   65
 73
    6
 40
44.45
 49
12.7
 74
    0
 49
-6.35
 74
    0
 49
12.7
 74
    0
 49
-6.35
 74
    0
 49
0
 74
    0
 49
-6.35
 74
    0
  0
LTYPE
  5
43
330
5
100
AcDbSymbolTableRecord
100
AcDbLinetypeTableRecord
  2
BORDERTINY
 70
    0
  3
Border (.15x) __.__.__.__.__.__.__.__.__.__.__.
 72
   65
 73
    6
 40
6.6675
 49
1.905
 74
    0
 49
-0.9525
 74
    0
 49
1.905
 74
    0
 49
-0.9525
 74
    0
 49
0
 74
    0
 49
-0.9525
 74
    0
  0
LTYPE
  5
44
330
5
100
AcDbSymbolTableRecord
100
AcDbLinetypeTableRecord
  2
BORDER2
 70
    0
  3
Border (.5x) __.__.__.__.__.__.__.__.__.__.__.
 72
   65
 73
    6
 40
22.225
 49
6.35
 74
    0
 49
-3.175
 74
    0
 49
6.35
 74
    0
 49
-3.175
 74
    0
 49
0
 74
    0
 49
-3.175
 74
    0
  0
LTYPE
  5
45
330
5
100
AcDbSymbolTableRecord
100
AcDbLinetypeTableRecord
  2
BORDERX2
 70
    0
  3
Border (2x) ____  ____  .  ____  ____  .  ___
 72
   65
 73
    6
 40
88.89999999999999
 49
25.4
 74
    0
 49
-12.7
 74
    0
 49
25.4
 74
    0
 49
-12.7
 74
    0
 49
0
 74
    0
 49
-12.7
 74
    0
  0
LTYPE
  5
46
330
5
100
AcDbSymbolTableRecord
100
AcDbLinetypeTableRecord
  2
CENTER
 70
    0
  3
Center ____ _ ____ _ ____ _ ____ _ ____ _ ____
 72
   65
 73
    4
 40
50.8
 49
31.75
 74
    0
 49
-6.35
 74
    0
 49
6.35
 74
    0
 49
-6.35
 74
    0
  0
LTYPE
  5
47
330
5
100
AcDbSymbolTableRecord
100
AcDbLinetypeTableRecord
  2
CENTERTINY
 70
    0
  3
Center (.15x) ___ _ ___ _ ___ _ ___ _ ___ _ ___
 72
   65
 73
    4
 40
7.619999999999999
 49
4.7625
 74
    0
 49
-0.9525
 74
    0
 49
0.9525
 74
    0
 49
-0.9525
 74
    0
  0
LTYPE
  5
48
330
5
100
AcDbSymbolTableRecord
100
AcDbLinetypeTableRecord
  2
CENTER2
 70
    0
  3
Center (.5x) ___ _ ___ _ ___ _ ___ _ ___ _ ___
 72
   65
 73
    4
 40
28.575
 49
19.05
 74
    0
 49
-3.175
 74
    0
 49
3.175
 74
    0
 49
-3.175
 74
    0
  0
LTYPE
  5
49
330
5
100
AcDbSymbolTableRecord
100
AcDbLinetypeTableRecord
  2
CENTERX2
 70
    0
  3
Center (2x) ________  __  ________  __  _____
 72
   65
 73
    4
 40
101.6
 49
63.5
 74
    0
 49
-12.7
 74
    0
 49
12.7
 74
    0
 49
-12.7
 74
    0
  0
ENDTAB
  0
TABLE
  2
LAYER
  5
2
330
0
100
AcDbSymbolTable
 70
    1
  0
LAYER
  5
10
330
2
100
AcDbSymbolTableRecord
100
AcDbLayerTableRecord
  2
0
 70
    0
 62
    7
  6
CONTINUOUS
370
    0
390
F
  0
LAYER
  5
4A
330
2
100
AcDbSymbolTableRecord
100
AcDbLayerTableRecord
  2
engrave
 70
    0
 62
    1
  6
CONTINUOUS
370
    0
390
F
  0
LAYER
  5
4B
330
2
100
AcDbSymbolTableRecord
100
AcDbLayerTableRecord
  2
lasercutter
 70
    0
 62
    5
  6
CONTINUOUS
370
    0
390
F
  0
LAYER
  5
4C
330
2
100
AcDbSymbolTableRecord
100
AcDbLayerTableRecord
  2
material
 70
    0
 62
    4
  6
CONTINUOUS
370
    0
390
F
  0
LAYER
  5
4D
330
2
100
AcDbSymbolTableRecord
100
AcDbLayerTableRecord
  2
vector
 70
    0
 62
    3
  6
CONTINUOUS
370
    0
390
F
  0
ENDTAB
  0
TABLE
  2
STYLE
  5
3
330
0
100
AcDbSymbolTable
 70
    3
  0
STYLE
  5
4E
330
2
100
AcDbSymbolTableRecord
100
AcDbTextStyleTableRecord
  2
Standard
 70
    0
 40
0
 41
1
 50
0
 71
    0
 42
1
  3
txt
  4

  0
ENDTAB
  0
TABLE
  2
VIEW
  5
6
330
0
100
AcDbSymbolTable
 70
    0
  0
ENDTAB
  0
TABLE
  2
UCS
  5
7
330
0
100
AcDbSymbolTable
 70
    0
  0
ENDTAB
  0
TABLE
  2
APPID
  5
9
330
0
100
AcDbSymbolTable
 70
    1
  0
APPID
  5
12
330
9
100
AcDbSymbolTableRecord
100
AcDbRegAppTableRecord
  2
ACAD
 70
    0
  0
APPID
  5
4F
330
9
100
AcDbSymbolTableRecord
100
AcDbRegAppTableRecord
  2
LibreCad
 70
    0
  0
ENDTAB
  0
TABLE
  2
DIMSTYLE
  5
A
330
0
100
AcDbSymbolTable
 70
    1
100
AcDbDimStyleTable
 71
    1
  0
DIMSTYLE
105
50
330
A
100
AcDbSymbolTableRecord
100
AcDbDimStyleTableRecord
  2
Standard
 70
    0
 40
2.5
 41
0.1
 42
0.625
 43
0.38
 44
0.05
 45
0
 46
0
 47
0
 48
0
 49
0.04
140
0.1
141
0.09
142
0
143
25.4
144
1
145
0
146
1
147
0.625
148
0
 71
    0
 72
    0
 73
    0
 74
    1
 75
    0
 76
    0
 77
    0
 78
    1
 79
    0
170
    0
171
    2
172
    0
173
    0
174
    0
175
    0
176
    0
177
    0
178
    0
179
    2
271
    4
272
    4
273
    2
274
    2
275
    0
276
    0
277
    2
278
    0
279
    0
280
    0
281
    0
282
    0
283
    1
284
    0
285
    0
286
    0
288
    0
289
    3
340
standard
341

371
   -2
372
   -2
  0
ENDTAB
  0
TABLE
  2
BLOCK_RECORD
  5
1
330
0
100
AcDbSymbolTable
 70
    2
  0
BLOCK_RECORD
  5
1F
330
1
100
AcDbSymbolTableRecord
100
AcDbBlockTableRecord
  2
*Model_Space
 70
    0
280
    1
281
    0
  0
BLOCK_RECORD
  5
1E
330
1
100
AcDbSymbolTableRecord
100
AcDbBlockTableRecord
  2
*Paper_Space
 70
    0
280
    1
281
    0
  0
ENDTAB
  0
ENDSEC
  0
SECTION
  2
BLOCKS
  0
BLOCK
  5
20
330
1F
100
AcDbEntity
  8
0
100
AcDbBlockBegin
  2
*Model_Space
 70
    0
 10
0
 20
0
 30
0
  3
*Model_Space
  1

  0
ENDBLK
  5
21
330
1F
100
AcDbEntity
  8
0
100
AcDbBlockEnd
  0
BLOCK
  5
1C
330
1B
100
AcDbEntity
  8
0
100
AcDbBlockBegin
  2
*Paper_Space
 70
    0
 10
0
 20
0
 30
0
  3
*Paper_Space
  1

  0
ENDBLK
  5
1D
330
1F
100
AcDbEntity
  8
0
100
AcDbBlockEnd
  0
ENDSEC
  0
SECTION
  2
ENTITIES
  0
LWPOLYLINE
  5
51
100
AcDbEntity
  8
lasercutter
  6
ByLayer
 62
  256
370
   -1
100
AcDbPolyline
 90
    4
 70
    1
 43
0
 10
0
 20
0
 10
35
 20
0
 10
35
 20
23
 10
0
 20
23
  0
LWPOLYLINE
  5
52
100
AcDbEntity
  8
material
  6
ByLayer
 62
  256
370
   -1
100
AcDbPolyline
 90
    4
 70
    1
 43
0
 10
0
 20
0
 10
24
 20
0
 10
24
 20
16
 10
0
 20
16
  0
LWPOLYLINE
  5
53
100
AcDbEntity
  8
vector
  6
ByLayer
 62
  256
370
   -1
100
AcDbPolyline
 90
    8
 70
    1
 43
0
 10
7.599999999999994
 20
8.860000000000001
 10
15.45999999999999
 20
8.859999999999998
 42
-0.4142135623730882
 10
15.75999999999999
 20
8.56
 10
15.75999999999999
 20
0.7000000000000001
 42
-0.4142135623730971
 10
15.45999999999999
 20
0.4
 10
7.599999999999994
 20
0.4
 42
-0.4142135623730971
 10
7.299999999999997
 20
0.7000000000000001
 10
7.299999999999996
 20
8.56
 42
-0.4142135623730966
  0
CIRCLE
  5
54
100
AcDbEntity
  8
vector
  6
ByLayer
 62
  256
370
   -1
100
AcDbCircle
 10
14.56
 20
8.660000000000002
 40
0.058
  0
CIRCLE
  5
55
100
AcDbEntity
  8
vector
  6
ByLayer
 62
  256
370
   -1
100
AcDbCircle
 10
15.56
 20
7.660000000000001
 40
0.058
  0
CIRCLE
  5
56
100
AcDbEntity
  8
vector
  6
ByLayer
 62
  256
370
   -1
100
AcDbCircle
 10
8.499999999999993
 20
8.660000000000002
 40
0.058
  0
CIRCLE
  5
57
100
AcDbEntity
  8
vector
  6
ByLayer
 62
  256
370
   -1
100
AcDbCircle
 10
7.499999999999993
 20
7.660000000000001
 40
0.058
  0
CIRCLE
  5
58
100
AcDbEntity
  8
vector
  6
ByLayer
 62
  256
370
   -1
100
AcDbCircle
 10
15.56
 20
1.600000000000001
 40
0.058
  0
CIRCLE
  5
59
100
AcDbEntity
  8
vector
  6
ByLayer
 62
  256
370
   -1
100
AcDbCircle
 10
14.56
 20
0.6000000000000011
 40
0.058
  0
CIRCLE
  5
5A
100
AcDbEntity
  8
vector
  6
ByLayer
 62
  256
370
   -1
100
AcDbCircle
 10
8.499999999999993
 20
0.6000000000000011
 40
0.058
  0
CIRCLE
  5
5B
100
AcDbEntity
  8
vector
  6
ByLayer
 62
  256
370
   -1
100
AcDbCircle
 10
7.499999999999993
 20
1.600000000000001
 40
0.058
  0
LINE
  5
5C
100
AcDbEntity
  8
engrave
  6
ByLayer
 62
  256
370
   -1
100
AcDbLine
 10
8.029999999999994
 20
8.130000000000001
 11
15.02999999999999
 21
8.130000000000001
  0
LINE
  5
5D
100
AcDbEntity
  8
engrave
  6
ByLayer
 62
  256
370
   -1
100
AcDbLine
 10
15.02999999999999
 20
1.13
 11
8.029999999999994
 21
1.13
  0
LINE
  5
5E
100
AcDbEntity
  8
engrave
  6
ByLayer
 62
  256
370
   -1
100
AcDbLine
 10
8.029999999999994
 20
8.120000000000001
 11
15.02999999999999
 21
8.120000000000001
  0
LINE
  5
5F
100
AcDbEntity
  8
engrave
  6
ByLayer
 62
  256
370
   -1
100
AcDbLine
 10
8.029999999999994
 20
8.110000000000001
 11
15.02999999999999
 21
8.110000000000001
  0
LINE
  5
60
100
AcDbEntity
  8
engrave
  6
ByLayer
 62
  256
370
   -1
100
AcDbLine
 10
8.029999999999994
 20
8.100000000000001
 11
15.02999999999999
 21
8.100000000000001
  0
LINE
  5
61
100
AcDbEntity
  8
engrave
  6
ByLayer
 62
  256
370
   -1
100
AcDbLine
 10
8.029999999999994
 20
8.090000000000002
 11
15.02999999999999
 21
8.090000000000002
  0
LINE
  5
62
100
AcDbEntity
  8
engrave
  6
ByLayer
 62
  256
370
   -1
100
AcDbLine
 10
8.029999999999994
 20
8.08
 11
15.02999999999999
 21
8.08
  0
LINE
  5
63
100
AcDbEntity
  8
engrave
  6
ByLayer
 62
  256
370
   -1
100
AcDbLine
 10
8.029999999999994
 20
8.07
 11
15.02999999999999
 21
8.07
  0
LINE
  5
64
100
AcDbEntity
  8
engrave
  6
ByLayer
 62
  256
370
   -1
100
AcDbLine
 10
8.029999999999994
 20
8.06
 11
15.02999999999999
 21
8.06
  0
LINE
  5
65
100
AcDbEntity
  8
engrave
  6
ByLayer
 62
  256
370
   -1
100
AcDbLine
 10
8.029999999999994
 20
8.050000000000001
 11
15.02999999999999
 21
8.050000000000001
  0
LINE
  5
66
100
AcDbEntity
  8
engrave
  6
ByLayer
 62
  256
370
   -1
100
AcDbLine
 10
8.029999999999994
 20
8.040000000000001
 11
15.02999999999999
 21
8.040000000000001
  0
LINE
  5
67
100
AcDbEntity
  8
engrave
  6
ByLayer
 62
  256
370
   -1
100
AcDbLine
 10
8.029999999999994
 20
8.030000000000001
 11
15.02999999999999
 21
8.030000000000001
  0
LINE
  5
68
100
AcDbEntity
  8
engrave
  6
ByLayer
 62
  256
370
   -1
100
AcDbLine
 10
8.029999999999994
 20
8.020000000000001
 11
15.02999999999999
 21
8.020000000000001
  0
LINE
  5
69
100
AcDbEntity
  8
engrave
  6
ByLayer
 62
  256
370
   -1
100
AcDbLine
 10
8.029999999999994
 20
8.010000000000002
 11
15.02999999999999
 21
8.010000000000002
  0
LINE
  5
6A
100
AcDbEntity
  8
engrave
  6
ByLayer
 62
  256
370
   -1
100
AcDbLine
 10
8.029999999999994
 20
8
 11
15.02999999999999
 21
8
  0
LINE
  5
6B
100
AcDbEntity
  8
engrave
  6
ByLayer
 62
  256
370
   -1
100
AcDbLine
 10
8.029999999999994
 20
7.990000000000001
 11
15.02999999999999
 21
7.990000000000001
  0
LINE
  5
6C
100
AcDbEntity
  8
engrave
  6
ByLayer
 62
  256
370
   -1
100
AcDbLine
 10
8.029999999999994
 20
7.98
 11
15.02999999999999
 21
7.98
  0
LINE
  5
6D
100
AcDbEntity
  8
engrave
  6
ByLayer
 62
  256
370
   -1
100
AcDbLine
 10
8.029999999999994
 20
7.970000000000001
 11
15.02999999999999
 21
7.970000000000001
  0
LINE
  5
6E
100
AcDbEntity
  8
engrave
  6
ByLayer
 62
  256
370
   -1
100
AcDbLine
 10
8.029999999999994
 20
7.960000000000001
 11
15.02999999999999
 21
7.960000000000001
  0
LINE
  5
6F
100
AcDbEntity
  8
engrave
  6
ByLayer
 62
  256
370
   -1
100
AcDbLine
 10
8.029999999999994
 20
7.950000000000001
 11
15.02999999999999
 21
7.950000000000001
  0
LINE
  5
70
100
AcDbEntity
  8
engrave
  6
ByLayer
 62
  256
370
   -1
100
AcDbLine
 10
8.029999999999994
 20
7.94
 11
15.02999999999999
 21
7.94
  0
LINE
  5
71
100
AcDbEntity
  8
engrave
  6
ByLayer
 62
  256
370
   -1
100
AcDbLine
 10
8.029999999999994
 20
7.930000000000001
 11
15.02999999999999
 21
7.930000000000001
  0
LINE
  5
72
100
AcDbEntity
  8
engrave
  6
ByLayer
 62
  256
370
   -1
100
AcDbLine
 10
8.029999999999994
 20
7.920000000000001
 11
15.02999999999999
 21
7.920000000000001
  0
LINE
  5
73
100
AcDbEntity
  8
engrave
  6
ByLayer
 62
  256
370
   -1
100
AcDbLine
 10
8.029999999999994
 20
7.910000000000001
 11
15.02999999999999
 21
7.910000000000001
  0
LINE
  5
74
100
AcDbEntity
  8
engrave
  6
ByLayer
 62
  256
370
   -1
100
AcDbLine
 10
8.029999999999994
 20
7.9
 11
15.02999999999999
 21
7.9
  0
LINE
  5
75
100
AcDbEntity
  8
engrave
  6
ByLayer
 62
  256
370
   -1
100
AcDbLine
 10
8.029999999999994
 20
7.890000000000001
 11
15.02999999999999
 21
7.890000000000001
  0
LINE
  5
76
100
AcDbEntity
  8
engrave
  6
ByLayer
 62
  256
370
   -1
100
AcDbLine
 10
8.029999999999994
 20
7.880000000000001
 11
15.02999999999999
 21
7.880000000000001
  0
LINE
  5
77
100
AcDbEntity
  8
engrave
  6
ByLayer
 62
  256
370
   -1
100
AcDbLine
 10
8.029999999999994
 20
7.870000000000001
 11
15.02999999999999
 21
7.870000000000001
  0
LINE
  5
78
100
AcDbEntity
  8
engrave
  6
ByLayer
 62
  256
370
   -1
100
AcDbLine
 10
8.029999999999994
 20
7.860000000000001
 11
15.02999999999999
 21
7.860000000000001
  0
LINE
  5
79
100
AcDbEntity
  8
engrave
  6
ByLayer
 62
  256
370
   -1
100
AcDbLine
 10
8.029999999999994
 20
7.850000000000001
 11
15.02999999999999
 21
7.850000000000001
  0
LINE
  5
7A
100
AcDbEntity
  8
engrave
  6
ByLayer
 62
  256
370
   -1
100
AcDbLine
 10
8.029999999999994
 20
7.840000000000001
 11
15.02999999999999
 21
7.840000000000001
  0
LINE
  5
7B
100
AcDbEntity
  8
engrave
  6
ByLayer
 62
  256
370
   -1
100
AcDbLine
 10
8.029999999999994
 20
7.830000000000001
 11
15.02999999999999
 21
7.830000000000001
  0
LINE
  5
7C
100
AcDbEntity
  8
engrave
  6
ByLayer
 62
  256
370
   -1
100
AcDbLine
 10
8.029999999999994
 20
7.820000000000001
 11
15.02999999999999
 21
7.820000000000001
  0
LINE
  5
7D
100
AcDbEntity
  8
engrave
  6
ByLayer
 62
  256
370
   -1
100
AcDbLine
 10
8.029999999999994
 20
7.81
 11
15.02999999999999
 21
7.81
  0
LINE
  5
7E
100
AcDbEntity
  8
engrave
  6
ByLayer
 62
  256
370
   -1
100
AcDbLine
 10
8.029999999999994
 20
7.800000000000001
 11
15.02999999999999
 21
7.800000000000001
  0
LINE
  5
7F
100
AcDbEntity
  8
engrave
  6
ByLayer
 62
  256
370
   -1
100
AcDbLine
 10
8.029999999999994
 20
7.790000000000001
 11
15.02999999999999
 21
7.790000000000001
  0
LINE
  5
80
100
AcDbEntity
  8
engrave
  6
ByLayer
 62
  256
370
   -1
100
AcDbLine
 10
8.029999999999994
 20
7.780000000000001
 11
15.02999999999999
 21
7.780000000000001
  0
LINE
  5
81
100
AcDbEntity
  8
engrave
  6
ByLayer
 62
  256
370
   -1
100
AcDbLine
 10
8.029999999999994
 20
7.77
 11
15.02999999999999
 21
7.77
  0
LINE
  5
82
100
AcDbEntity
  8
engrave
  6
ByLayer
 62
  256
370
   -1
100
AcDbLine
 10
8.029999999999994
 20
7.760000000000001
 11
15.02999999999999
 21
7.760000000000001
  0
LINE
  5
83
100
AcDbEntity
  8
engrave
  6
ByLayer
 62
  256
370
   -1
100
AcDbLine
 10
8.029999999999994
 20
7.750000000000001
 11
15.02999999999999
 21
7.750000000000001
  0
LINE
  5
84
100
AcDbEntity
  8
engrave
  6
ByLayer
 62
  256
370
   -1
100
AcDbLine
 10
8.029999999999994
 20
7.740000000000001
 11
15.02999999999999
 21
7.740000000000001
  0
LINE
  5
85
100
AcDbEntity
  8
engrave
  6
ByLayer
 62
  256
370
   -1
100
AcDbLine
 10
8.029999999999994
 20
7.73
 11
15.02999999999999
 21
7.73
  0
LINE
  5
86
100
AcDbEntity
  8
engrave
  6
ByLayer
 62
  256
370
   -1
100
AcDbLine
 10
8.029999999999994
 20
7.720000000000001
 11
15.02999999999999
 21
7.720000000000001
  0
LINE
  5
87
100
AcDbEntity
  8
engrave
  6
ByLayer
 62
  256
370
   -1
100
AcDbLine
 10
8.029999999999994
 20
7.710000000000001
 11
15.02999999999999
 21
7.710000000000001
  0
LINE
  5
88
100
AcDbEntity
  8
engrave
  6
ByLayer
 62
  256
370
   -1
100
AcDbLine
 10
8.029999999999994
 20
7.700000000000001
 11
15.02999999999999
 21
7.700000000000001
  0
LINE
  5
89
100
AcDbEntity
  8
engrave
  6
ByLayer
 62
  256
370
   -1
100
AcDbLine
 10
8.029999999999994
 20
7.69
 11
15.02999999999999
 21
7.69
  0
LINE
  5
8A
100
AcDbEntity
  8
engrave
  6
ByLayer
 62
  256
370
   -1
100
AcDbLine
 10
8.029999999999994
 20
7.680000000000001
 11
15.02999999999999
 21
7.680000000000001
  0
LINE
  5
8B
100
AcDbEntity
  8
engrave
  6
ByLayer
 62
  256
370
   -1
100
AcDbLine
 10
8.029999999999994
 20
7.670000000000001
 11
15.02999999999999
 21
7.670000000000001
  0
LINE
  5
8C
100
AcDbEntity
  8
engrave
  6
ByLayer
 62
  256
370
   -1
100
AcDbLine
 10
8.029999999999994
 20
7.660000000000001
 11
15.02999999999999
 21
7.660000000000001
  0
LINE
  5
8D
100
AcDbEntity
  8
engrave
  6
ByLayer
 62
  256
370
   -1
100
AcDbLine
 10
8.029999999999994
 20
7.65
 11
15.02999999999999
 21
7.65
  0
LINE
  5
8E
100
AcDbEntity
  8
engrave
  6
ByLayer
 62
  256
370
   -1
100
AcDbLine
 10
8.029999999999994
 20
7.640000000000001
 11
15.02999999999999
 21
7.640000000000001
  0
LINE
  5
8F
100
AcDbEntity
  8
engrave
  6
ByLayer
 62
  256
370
   -1
100
AcDbLine
 10
8.029999999999994
 20
7.630000000000001
 11
15.02999999999999
 21
7.630000000000001
  0
LINE
  5
90
100
AcDbEntity
  8
engrave
  6
ByLayer
 62
  256
370
   -1
100
AcDbLine
 10
8.029999999999994
 20
7.620000000000001
 11
15.02999999999999
 21
7.620000000000001
  0
LINE
  5
91
100
AcDbEntity
  8
engrave
  6
ByLayer
 62
  256
370
   -1
100
AcDbLine
 10
8.029999999999994
 20
7.610000000000001
 11
15.02999999999999
 21
7.610000000000001
  0
LINE
  5
92
100
AcDbEntity
  8
engrave
  6
ByLayer
 62
  256
370
   -1
100
AcDbLine
 10
8.029999999999994
 20
7.600000000000001
 11
15.02999999999999
 21
7.600000000000001
  0
LINE
  5
93
100
AcDbEntity
  8
engrave
  6
ByLayer
 62
  256
370
   -1
100
AcDbLine
 10
8.029999999999994
 20
7.590000000000001
 11
15.02999999999999
 21
7.590000000000001
  0
LINE
  5
94
100
AcDbEntity
  8
engrave
  6
ByLayer
 62
  256
370
   -1
100
AcDbLine
 10
8.029999999999994
 20
7.580000000000001
 11
15.02999999999999
 21
7.580000000000001
  0
LINE
  5
95
100
AcDbEntity
  8
engrave
  6
ByLayer
 62
  256
370
   -1
100
AcDbLine
 10
8.029999999999994
 20
7.57
 11
15.02999999999999
 21
7.57
  0
LINE
  5
96
100
AcDbEntity
  8
engrave
  6
ByLayer
 62
  256
370
   -1
100
AcDbLine
 10
8.029999999999994
 20
7.56
 11
15.02999999999999
 21
7.56
  0
LINE
  5
97
100
AcDbEntity
  8
engrave
  6
ByLayer
 62
  256
370
   -1
100
AcDbLine
 10
8.029999999999994
 20
7.550000000000001
 11
15.02999999999999
 21
7.550000000000001
  0
LINE
  5
98
100
AcDbEntity
  8
engrave
  6
ByLayer
 62
  256
370
   -1
100
AcDbLine
 10
8.029999999999994
 20
7.540000000000001
 11
15.02999999999999
 21
7.540000000000001
  0
LINE
  5
99
100
AcDbEntity
  8
engrave
  6
ByLayer
 62
  256
370
   -1
100
AcDbLine
 10
8.029999999999994
 20
7.530000000000001
 11
15.02999999999999
 21
7.530000000000001
  0
LINE
  5
9A
100
AcDbEntity
  8
engrave
  6
ByLayer
 62
  256
370
   -1
100
AcDbLine
 10
8.029999999999994
 20
7.52
 11
15.02999999999999
 21
7.52
  0
LINE
  5
9B
100
AcDbEntity
  8
engrave
  6
ByLayer
 62
  256
370
   -1
100
AcDbLine
 10
8.029999999999994
 20
7.510000000000001
 11
15.02999999999999
 21
7.510000000000001
  0
LINE
  5
9C
100
AcDbEntity
  8
engrave
  6
ByLayer
 62
  256
370
   -1
100
AcDbLine
 10
8.029999999999994
 20
7.500000000000001
 11
15.02999999999999
 21
7.500000000000001
  0
LINE
  5
9D
100
AcDbEntity
  8
engrave
  6
ByLayer
 62
  256
370
   -1
100
AcDbLine
 10
8.029999999999994
 20
7.490000000000001
 11
15.02999999999999
 21
7.490000000000001
  0
LINE
  5
9E
100
AcDbEntity
  8
engrave
  6
ByLayer
 62
  256
370
   -1
100
AcDbLine
 10
8.029999999999994
 20
7.48
 11
15.02999999999999
 21
7.48
  0
LINE
  5
9F
100
AcDbEntity
  8
engrave
  6
ByLayer
 62
  256
370
   -1
100
AcDbLine
 10
8.029999999999994
 20
7.470000000000001
 11
15.02999999999999
 21
7.470000000000001
  0
LINE
  5
A0
100
AcDbEntity
  8
engrave
  6
ByLayer
 62
  256
370
   -1
100
AcDbLine
 10
8.029999999999994
 20
7.460000000000001
 11
15.02999999999999
 21
7.460000000000001
  0
LINE
  5
A1
100
AcDbEntity
  8
engrave
  6
ByLayer
 62
  256
370
   -1
100
AcDbLine
 10
8.029999999999994
 20
7.450000000000001
 11
15.02999999999999
 21
7.450000000000001
  0
LINE
  5
A2
100
AcDbEntity
  8
engrave
  6
ByLayer
 62
  256
370
   -1
100
AcDbLine
 10
8.029999999999994
 20
7.44
 11
15.02999999999999
 21
7.44
  0
LINE
  5
A3
100
AcDbEntity
  8
engrave
  6
ByLayer
 62
  256
370
   -1
100
AcDbLine
 10
8.029999999999994
 20
7.430000000000001
 11
15.02999999999999
 21
7.430000000000001
  0
LINE
  5
A4
100
AcDbEntity
  8
engrave
  6
ByLayer
 62
  256
370
   -1
100
AcDbLine
 10
8.029999999999994
 20
7.420000000000001
 11
15.02999999999999
 21
7.420000000000001
  0
LINE
  5
A5
100
AcDbEntity
  8
engrave
  6
ByLayer
 62
  256
370
   -1
100
AcDbLine
 10
8.029999999999994
 20
7.410000000000001
 11
15.02999999999999
 21
7.410000000000001
  0
LINE
  5
A6
100
AcDbEntity
  8
engrave
  6
ByLayer
 62
  256
370
   -1
100
AcDbLine
 10
8.029999999999994
 20
7.4
 11
15.02999999999999
 21
7.4
  0
LINE
  5
A7
100
AcDbEntity
  8
engrave
  6
ByLayer
 62
  256
370
   -1
100
AcDbLine
 10
8.029999999999994
 20
7.390000000000001
 11
15.02999999999999
 21
7.390000000000001
  0
LINE
  5
A8
100
AcDbEntity
  8
engrave
  6
ByLayer
 62
  256
370
   -1
100
AcDbLine
 10
8.029999999999994
 20
7.380000000000001
 11
15.02999999999999
 21
7.380000000000001
  0
LINE
  5
A9
100
AcDbEntity
  8
engrave
  6
ByLayer
 62
  256
370
   -1
100
AcDbLine
 10
8.029999999999994
 20
7.370000000000001
 11
15.02999999999999
 21
7.370000000000001
  0
LINE
  5
AA
100
AcDbEntity
  8
engrave
  6
ByLayer
 62
  256
370
   -1
100
AcDbLine
 10
8.029999999999994
 20
7.360000000000001
 11
15.02999999999999
 21
7.360000000000001
  0
LINE
  5
AB
100
AcDbEntity
  8
engrave
  6
ByLayer
 62
  256
370
   -1
100
AcDbLine
 10
8.029999999999994
 20
7.350000000000001
 11
15.02999999999999
 21
7.350000000000001
  0
LINE
  5
AC
100
AcDbEntity
  8
engrave
  6
ByLayer
 62
  256
370
   -1
100
AcDbLine
 10
8.029999999999994
 20
7.340000000000001
 11
15.02999999999999
 21
7.340000000000001
  0
LINE
  5
AD
100
AcDbEntity
  8
engrave
  6
ByLayer
 62
  256
370
   -1
100
AcDbLine
 10
8.029999999999994
 20
7.330000000000001
 11
15.02999999999999
 21
7.330000000000001
  0
LINE
  5
AE
100
AcDbEntity
  8
engrave
  6
ByLayer
 62
  256
370
   -1
100
AcDbLine
 10
8.029999999999994
 20
7.32
 11
15.02999999999999
 21
7.32
  0
LINE
  5
AF
100
AcDbEntity
  8
engrave
  6
ByLayer
 62
  256
370
   -1
100
AcDbLine
 10
8.029999999999994
 20
7.31
 11
15.02999999999999
 21
7.31
  0
LINE
  5
B0
100
AcDbEntity
  8
engrave
  6
ByLayer
 62
  256
370
   -1
100
AcDbLine
 10
8.029999999999994
 20
7.300000000000001
 11
15.02999999999999
 21
7.300000000000001
  0
LINE
  5
B1
100
AcDbEntity
  8
engrave
  6
ByLayer
 62
  256
370
   -1
100
AcDbLine
 10
8.029999999999994
 20
7.290000000000001
 11
15.02999999999999
 21
7.290000000000001
  0
LINE
  5
B2
100
AcDbEntity
  8
engrave
  6
ByLayer
 62
  256
370
   -1
100
AcDbLine
 10
8.029999999999994
 20
7.280000000000001
 11
15.02999999999999
 21
7.280000000000001
  0
LINE
  5
B3
100
AcDbEntity
  8
engrave
  6
ByLayer
 62
  256
370
   -1
100
AcDbLine
 10
8.029999999999994
 20
7.27
 11
15.02999999999999
 21
7.27
  0
LINE
  5
B4
100
AcDbEntity
  8
engrave
  6
ByLayer
 62
  256
370
   -1
100
AcDbLine
 10
8.029999999999994
 20
7.260000000000001
 11
15.02999999999999
 21
7.260000000000001
  0
LINE
  5
B5
100
AcDbEntity
  8
engrave
  6
ByLayer
 62
  256
370
   -1
100
AcDbLine
 10
8.029999999999994
 20
7.250000000000001
 11
15.02999999999999
 21
7.250000000000001
  0
LINE
  5
B6
100
AcDbEntity
  8
engrave
  6
ByLayer
 62
  256
370
   -1
100
AcDbLine
 10
8.029999999999994
 20
7.240000000000001
 11
15.02999999999999
 21
7.240000000000001
  0
LINE
  5
B7
100
AcDbEntity
  8
engrave
  6
ByLayer
 62
  256
370
   -1
100
AcDbLine
 10
8.029999999999994
 20
7.23
 11
15.02999999999999
 21
7.23
  0
LINE
  5
B8
100
AcDbEntity
  8
engrave
  6
ByLayer
 62
  256
370
   -1
100
AcDbLine
 10
8.029999999999994
 20
7.220000000000001
 11
15.02999999999999
 21
7.220000000000001
  0
LINE
  5
B9
100
AcDbEntity
  8
engrave
  6
ByLayer
 62
  256
370
   -1
100
AcDbLine
 10
8.029999999999994
 20
7.210000000000001
 11
15.02999999999999
 21
7.210000000000001
  0
LINE
  5
BA
100
AcDbEntity
  8
engrave
  6
ByLayer
 62
  256
370
   -1
100
AcDbLine
 10
8.029999999999994
 20
7.200000000000001
 11
15.02999999999999
 21
7.200000000000001
  0
LINE
  5
BB
100
AcDbEntity
  8
engrave
  6
ByLayer
 62
  256
370
   -1
100
AcDbLine
 10
8.029999999999994
 20
7.19
 11
15.02999999999999
 21
7.19
  0
LINE
  5
BC
100
AcDbEntity
  8
engrave
  6
ByLayer
 62
  256
370
   -1
100
AcDbLine
 10
8.029999999999994
 20
7.180000000000001
 11
15.02999999999999
 21
7.180000000000001
  0
LINE
  5
BD
100
AcDbEntity
  8
engrave
  6
ByLayer
 62
  256
370
   -1
100
AcDbLine
 10
8.029999999999994
 20
7.170000000000001
 11
15.02999999999999
 21
7.170000000000001
  0
LINE
  5
BE
100
AcDbEntity
  8
engrave
  6
ByLayer
 62
  256
370
   -1
100
AcDbLine
 10
8.029999999999994
 20
7.160000000000001
 11
15.02999999999999
 21
7.160000000000001
  0
LINE
  5
BF
100
AcDbEntity
  8
engrave
  6
ByLayer
 62
  256
370
   -1
100
AcDbLine
 10
8.029999999999994
 20
7.15
 11
15.02999999999999
 21
7.15
  0
LINE
  5
C0
100
AcDbEntity
  8
engrave
  6
ByLayer
 62
  256
370
   -1
100
AcDbLine
 10
8.029999999999994
 20
7.140000000000001
 11
15.02999999999999
 21
7.140000000000001
  0
LINE
  5
C1
100
AcDbEntity
  8
engrave
  6
ByLayer
 62
  256
370
   -1
100
AcDbLine
 10
8.029999999999994
 20
7.130000000000001
 11
15.02999999999999
 21
7.130000000000001
  0
LINE
  5
C2
100
AcDbEntity
  8
engrave
  6
ByLayer
 62
  256
370
   -1
100
AcDbLine
 10
8.029999999999994
 20
7.120000000000001
 11
15.02999999999999
 21
7.120000000000001
  0
LINE
  5
C3
100
AcDbEntity
  8
engrave
  6
ByLayer
 62
  256
370
   -1
100
AcDbLine
 10
8.029999999999994
 20
7.110000000000001
 11
15.02999999999999
 21
7.110000000000001
  0
LINE
  5
C4
100
AcDbEntity
  8
engrave
  6
ByLayer
 62
  256
370
   -1
100
AcDbLine
 10
8.029999999999994
 20
7.100000000000001
 11
15.02999999999999
 21
7.100000000000001
  0
LINE
  5
C5
100
AcDbEntity
  8
engrave
  6
ByLayer
 62
  256
370
   -1
100
AcDbLine
 10
8.029999999999994
 20
7.090000000000001
 11
15.02999999999999
 21
7.090000000000001
  0
LINE
  5
C6
100
AcDbEntity
  8
engrave
  6
ByLayer
 62
  256
370
   -1
100
AcDbLine
 10
8.029999999999994
 20
7.080000000000001
 11
15.02999999999999
 21
7.080000000000001
  0
LINE
  5
C7
100
AcDbEntity
  8
engrave
  6
ByLayer
 62
  256
370
   -1
100
AcDbLine
 10
8.029999999999994
 20
7.070000000000001
 11
15.02999999999999
 21
7.070000000000001
  0
LINE
  5
C8
100
AcDbEntity
  8
engrave
  6
ByLayer
 62
  256
370
   -1
100
AcDbLine
 10
8.029999999999994
 20
7.06
 11
15.02999999999999
 21
7.06
  0
LINE
  5
C9
100
AcDbEntity
  8
engrave
  6
ByLayer
 62
  256
370
   -1
100
AcDbLine
 10
8.029999999999994
 20
7.050000000000001
 11
15.02999999999999
 21
7.050000000000001
  0
LINE
  5
CA
100
AcDbEntity
  8
engrave
  6
ByLayer
 62
  256
370
   -1
100
AcDbLine
 10
8.029999999999994
 20
7.040000000000001
 11
15.02999999999999
 21
7.040000000000001
  0
LINE
  5
CB
100
AcDbEntity
  8
engrave
  6
ByLayer
 62
  256
370
   -1
100
AcDbLine
 10
8.029999999999994
 20
7.030000000000001
 11
15.02999999999999
 21
7.030000000000001
  0
LINE
  5
CC
100
AcDbEntity
  8
engrave
  6
ByLayer
 62
  256
370
   -1
100
AcDbLine
 10
8.029999999999994
 20
7.02
 11
15.02999999999999
 21
7.02
  0
LINE
  5
CD
100
AcDbEntity
  8
engrave
  6
ByLayer
 62
  256
370
   -1
100
AcDbLine
 10
8.029999999999994
 20
7.010000000000001
 11
15.02999999999999
 21
7.010000000000001
  0
LINE
  5
CE
100
AcDbEntity
  8
engrave
  6
ByLayer
 62
  256
370
   -1
100
AcDbLine
 10
8.029999999999994
 20
7.000000000000001
 11
15.02999999999999
 21
7.000000000000001
  0
LINE
  5
CF
100
AcDbEntity
  8
engrave
  6
ByLayer
 62
  256
370
   -1
100
AcDbLine
 10
8.029999999999994
 20
6.990000000000001
 11
15.02999999999999
 21
6.990000000000001
  0
LINE
  5
D0
100
AcDbEntity
  8
engrave
  6
ByLayer
 62
  256
370
   -1
100
AcDbLine
 10
8.029999999999994
 20
6.98
 11
15.02999999999999
 21
6.98
  0
LINE
  5
D1
100
AcDbEntity
  8
engrave
  6
ByLayer
 62
  256
370
   -1
100
AcDbLine
 10
8.029999999999994
 20
6.970000000000001
 11
15.02999999999999
 21
6.970000000000001
  0
LINE
  5
D2
100
AcDbEntity
  8
engrave
  6
ByLayer
 62
  256
370
   -1
100
AcDbLine
 10
8.029999999999994
 20
6.960000000000001
 11
15.02999999999999
 21
6.960000000000001
  0
LINE
  5
D3
100
AcDbEntity
  8
engrave
  6
ByLayer
 62
  256
370
   -1
100
AcDbLine
 10
8.029999999999994
 20
6.950000000000001
 11
15.02999999999999
 21
6.950000000000001
  0
LINE
  5
D4
100
AcDbEntity
  8
engrave
  6
ByLayer
 62
  256
370
   -1
100
AcDbLine
 10
8.029999999999994
 20
6.94
 11
15.02999999999999
 21
6.94
  0
LINE
  5
D5
100
AcDbEntity
  8
engrave
  6
ByLayer
 62
  256
370
   -1
100
AcDbLine
 10
8.029999999999994
 20
6.930000000000001
 11
15.02999999999999
 21
6.930000000000001
  0
LINE
  5
D6
100
AcDbEntity
  8
engrave
  6
ByLayer
 62
  256
370
   -1
100
AcDbLine
 10
8.029999999999994
 20
6.920000000000001
 11
15.02999999999999
 21
6.920000000000001
  0
LINE
  5
D7
100
AcDbEntity
  8
engrave
  6
ByLayer
 62
  256
370
   -1
100
AcDbLine
 10
8.029999999999994
 20
6.910000000000001
 11
15.02999999999999
 21
6.910000000000001
  0
LINE
  5
D8
100
AcDbEntity
  8
engrave
  6
ByLayer
 62
  256
370
   -1
100
AcDbLine
 10
8.029999999999994
 20
6.9
 11
15.02999999999999
 21
6.9
  0
LINE
  5
D9
100
AcDbEntity
  8
engrave
  6
ByLayer
 62
  256
370
   -1
100
AcDbLine
 10
8.029999999999994
 20
6.890000000000001
 11
15.02999999999999
 21
6.890000000000001
  0
LINE
  5
DA
100
AcDbEntity
  8
engrave
  6
ByLayer
 62
  256
370
   -1
100
AcDbLine
 10
8.029999999999994
 20
6.880000000000001
 11
15.02999999999999
 21
6.880000000000001
  0
LINE
  5
DB
100
AcDbEntity
  8
engrave
  6
ByLayer
 62
  256
370
   -1
100
AcDbLine
 10
8.029999999999994
 20
6.870000000000001
 11
15.02999999999999
 21
6.870000000000001
  0
LINE
  5
DC
100
AcDbEntity
  8
engrave
  6
ByLayer
 62
  256
370
   -1
100
AcDbLine
 10
8.029999999999994
 20
6.860000000000001
 11
15.02999999999999
 21
6.860000000000001
  0
LINE
  5
DD
100
AcDbEntity
  8
engrave
  6
ByLayer
 62
  256
370
   -1
100
AcDbLine
 10
8.029999999999994
 20
6.850000000000001
 11
15.02999999999999
 21
6.850000000000001
  0
LINE
  5
DE
100
AcDbEntity
  8
engrave
  6
ByLayer
 62
  256
370
   -1
100
AcDbLine
 10
8.029999999999994
 20
6.840000000000001
 11
15.02999999999999
 21
6.840000000000001
  0
LINE
  5
DF
100
AcDbEntity
  8
engrave
  6
ByLayer
 62
  256
370
   -1
100
AcDbLine
 10
8.029999999999994
 20
6.830000000000001
 11
15.02999999999999
 21
6.830000000000001
  0
LINE
  5
E0
100
AcDbEntity
  8
engrave
  6
ByLayer
 62
  256
370
   -1
100
AcDbLine
 10
8.029999999999994
 20
6.820000000000001
 11
15.02999999999999
 21
6.820000000000001
  0
LINE
  5
E1
100
AcDbEntity
  8
engrave
  6
ByLayer
 62
  256
370
   -1
100
AcDbLine
 10
8.029999999999994
 20
6.81
 11
15.02999999999999
 21
6.81
  0
LINE
  5
E2
100
AcDbEntity
  8
engrave
  6
ByLayer
 62
  256
370
   -1
100
AcDbLine
 10
8.029999999999994
 20
6.800000000000001
 11
15.02999999999999
 21
6.800000000000001
  0
LINE
  5
E3
100
AcDbEntity
  8
engrave
  6
ByLayer
 62
  256
370
   -1
100
AcDbLine
 10
8.029999999999994
 20
6.790000000000001
 11
15.02999999999999
 21
6.790000000000001
  0
LINE
  5
E4
100
AcDbEntity
  8
engrave
  6
ByLayer
 62
  256
370
   -1
100
AcDbLine
 10
8.029999999999994
 20
6.780000000000001
 11
15.02999999999999
 21
6.780000000000001
  0
LINE
  5
E5
100
AcDbEntity
  8
engrave
  6
ByLayer
 62
  256
370
   -1
100
AcDbLine
 10
8.029999999999994
 20
6.77
 11
15.02999999999999
 21
6.77
  0
LINE
  5
E6
100
AcDbEntity
  8
engrave
  6
ByLayer
 62
  256
370
   -1
100
AcDbLine
 10
8.029999999999994
 20
6.760000000000001
 11
15.02999999999999
 21
6.760000000000001
  0
LINE
  5
E7
100
AcDbEntity
  8
engrave
  6
ByLayer
 62
  256
370
   -1
100
AcDbLine
 10
8.029999999999994
 20
6.750000000000001
 11
15.02999999999999
 21
6.750000000000001
  0
LINE
  5
E8
100
AcDbEntity
  8
engrave
  6
ByLayer
 62
  256
370
   -1
100
AcDbLine
 10
8.029999999999994
 20
6.740000000000001
 11
15.02999999999999
 21
6.740000000000001
  0
LINE
  5
E9
100
AcDbEntity
  8
engrave
  6
ByLayer
 62
  256
370
   -1
100
AcDbLine
 10
8.029999999999994
 20
6.73
 11
15.02999999999999
 21
6.73
  0
LINE
  5
EA
100
AcDbEntity
  8
engrave
  6
ByLayer
 62
  256
370
   -1
100
AcDbLine
 10
8.029999999999994
 20
6.720000000000001
 11
15.02999999999999
 21
6.720000000000001
  0
LINE
  5
EB
100
AcDbEntity
  8
engrave
  6
ByLayer
 62
  256
370
   -1
100
AcDbLine
 10
8.029999999999994
 20
6.710000000000001
 11
15.02999999999999
 21
6.710000000000001
  0
LINE
  5
EC
100
AcDbEntity
  8
engrave
  6
ByLayer
 62
  256
370
   -1
100
AcDbLine
 10
8.029999999999994
 20
6.700000000000001
 11
15.02999999999999
 21
6.700000000000001
  0
LINE
  5
ED
100
AcDbEntity
  8
engrave
  6
ByLayer
 62
  256
370
   -1
100
AcDbLine
 10
8.029999999999994
 20
6.69
 11
15.02999999999999
 21
6.69
  0
LINE
  5
EE
100
AcDbEntity
  8
engrave
  6
ByLayer
 62
  256
370
   -1
100
AcDbLine
 10
8.029999999999994
 20
6.680000000000001
 11
15.02999999999999
 21
6.680000000000001
  0
LINE
  5
EF
100
AcDbEntity
  8
engrave
  6
ByLayer
 62
  256
370
   -1
100
AcDbLine
 10
8.029999999999994
 20
6.670000000000001
 11
15.02999999999999
 21
6.670000000000001
  0
LINE
  5
F0
100
AcDbEntity
  8
engrave
  6
ByLayer
 62
  256
370
   -1
100
AcDbLine
 10
8.029999999999994
 20
6.660000000000001
 11
15.02999999999999
 21
6.660000000000001
  0
LINE
  5
F1
100
AcDbEntity
  8
engrave
  6
ByLayer
 62
  256
370
   -1
100
AcDbLine
 10
8.029999999999994
 20
6.65
 11
15.02999999999999
 21
6.65
  0
LINE
  5
F2
100
AcDbEntity
  8
engrave
  6
ByLayer
 62
  256
370
   -1
100
AcDbLine
 10
8.029999999999994
 20
6.640000000000001
 11
15.02999999999999
 21
6.640000000000001
  0
LINE
  5
F3
100
AcDbEntity
  8
engrave
  6
ByLayer
 62
  256
370
   -1
100
AcDbLine
 10
8.029999999999994
 20
6.630000000000001
 11
15.02999999999999
 21
6.630000000000001
  0
LINE
  5
F4
100
AcDbEntity
  8
engrave
  6
ByLayer
 62
  256
370
   -1
100
AcDbLine
 10
8.029999999999994
 20
6.620000000000001
 11
15.02999999999999
 21
6.620000000000001
  0
LINE
  5
F5
100
AcDbEntity
  8
engrave
  6
ByLayer
 62
  256
370
   -1
100
AcDbLine
 10
8.029999999999994
 20
6.610000000000001
 11
15.02999999999999
 21
6.610000000000001
  0
LINE
  5
F6
100
AcDbEntity
  8
engrave
  6
ByLayer
 62
  256
370
   -1
100
AcDbLine
 10
8.029999999999994
 20
6.600000000000001
 11
15.02999999999999
 21
6.600000000000001
  0
LINE
  5
F7
100
AcDbEntity
  8
engrave
  6
ByLayer
 62
  256
370
   -1
100
AcDbLine
 10
8.029999999999994
 20
6.590000000000001
 11
15.02999999999999
 21
6.590000000000001
  0
LINE
  5
F8
100
AcDbEntity
  8
engrave
  6
ByLayer
 62
  256
370
   -1
100
AcDbLine
 10
8.029999999999994
 20
6.580000000000001
 11
15.02999999999999
 21
6.580000000000001
  0
LINE
  5
F9
100
AcDbEntity
  8
engrave
  6
ByLayer
 62
  256
370
   -1
100
AcDbLine
 10
8.029999999999994
 20
6.57
 11
15.02999999999999
 21
6.57
  0
LINE
  5
FA
100
AcDbEntity
  8
engrave
  6
ByLayer
 62
  256
370
   -1
100
AcDbLine
 10
8.029999999999994
 20
6.56
 11
15.02999999999999
 21
6.56
  0
LINE
  5
FB
100
AcDbEntity
  8
engrave
  6
ByLayer
 62
  256
370
   -1
100
AcDbLine
 10
8.029999999999994
 20
6.550000000000001
 11
15.02999999999999
 21
6.550000000000001
  0
LINE
  5
FC
100
AcDbEntity
  8
engrave
  6
ByLayer
 62
  256
370
   -1
100
AcDbLine
 10
8.029999999999994
 20
6.540000000000001
 11
15.02999999999999
 21
6.540000000000001
  0
LINE
  5
FD
100
AcDbEntity
  8
engrave
  6
ByLayer
 62
  256
370
   -1
100
AcDbLine
 10
8.029999999999994
 20
6.530000000000001
 11
15.02999999999999
 21
6.530000000000001
  0
LINE
  5
FE
100
AcDbEntity
  8
engrave
  6
ByLayer
 62
  256
370
   -1
100
AcDbLine
 10
8.029999999999994
 20
6.52
 11
15.02999999999999
 21
6.52
  0
LINE
  5
FF
100
AcDbEntity
  8
engrave
  6
ByLayer
 62
  256
370
   -1
100
AcDbLine
 10
8.029999999999994
 20
6.510000000000001
 11
15.02999999999999
 21
6.510000000000001
  0
LINE
  5
100
100
AcDbEntity
  8
engrave
  6
ByLayer
 62
  256
370
   -1
100
AcDbLine
 10
8.029999999999994
 20
6.500000000000001
 11
15.02999999999999
 21
6.500000000000001
  0
LINE
  5
101
100
AcDbEntity
  8
engrave
  6
ByLayer
 62
  256
370
   -1
100
AcDbLine
 10
8.029999999999994
 20
6.490000000000001
 11
15.02999999999999
 21
6.490000000000001
  0
LINE
  5
102
100
AcDbEntity
  8
engrave
  6
ByLayer
 62
  256
370
   -1
100
AcDbLine
 10
8.029999999999994
 20
6.48
 11
15.02999999999999
 21
6.48
  0
LINE
  5
103
100
AcDbEntity
  8
engrave
  6
ByLayer
 62
  256
370
   -1
100
AcDbLine
 10
8.029999999999994
 20
6.470000000000001
 11
15.02999999999999
 21
6.470000000000001
  0
LINE
  5
104
100
AcDbEntity
  8
engrave
  6
ByLayer
 62
  256
370
   -1
100
AcDbLine
 10
8.029999999999994
 20
6.460000000000001
 11
15.02999999999999
 21
6.460000000000001
  0
LINE
  5
105
100
AcDbEntity
  8
engrave
  6
ByLayer
 62
  256
370
   -1
100
AcDbLine
 10
8.029999999999994
 20
6.450000000000001
 11
15.02999999999999
 21
6.450000000000001
  0
LINE
  5
106
100
AcDbEntity
  8
engrave
  6
ByLayer
 62
  256
370
   -1
100
AcDbLine
 10
8.029999999999994
 20
6.44
 11
15.02999999999999
 21
6.44
  0
LINE
  5
107
100
AcDbEntity
  8
engrave
  6
ByLayer
 62
  256
370
   -1
100
AcDbLine
 10
8.029999999999994
 20
6.430000000000001
 11
15.02999999999999
 21
6.430000000000001
  0
LINE
  5
108
100
AcDbEntity
  8
engrave
  6
ByLayer
 62
  256
370
   -1
100
AcDbLine
 10
8.029999999999994
 20
6.420000000000001
 11
15.02999999999999
 21
6.420000000000001
  0
LINE
  5
109
100
AcDbEntity
  8
engrave
  6
ByLayer
 62
  256
370
   -1
100
AcDbLine
 10
8.029999999999994
 20
6.410000000000001
 11
15.02999999999999
 21
6.410000000000001
  0
LINE
  5
10A
100
AcDbEntity
  8
engrave
  6
ByLayer
 62
  256
370
   -1
100
AcDbLine
 10
8.029999999999994
 20
6.4
 11
15.02999999999999
 21
6.4
  0
LINE
  5
10B
100
AcDbEntity
  8
engrave
  6
ByLayer
 62
  256
370
   -1
100
AcDbLine
 10
8.029999999999994
 20
6.390000000000001
 11
15.02999999999999
 21
6.390000000000001
  0
LINE
  5
10C
100
AcDbEntity
  8
engrave
  6
ByLayer
 62
  256
370
   -1
100
AcDbLine
 10
8.029999999999994
 20
6.380000000000001
 11
15.02999999999999
 21
6.380000000000001
  0
LINE
  5
10D
100
AcDbEntity
  8
engrave
  6
ByLayer
 62
  256
370
   -1
100
AcDbLine
 10
8.029999999999994
 20
6.370000000000001
 11
15.02999999999999
 21
6.370000000000001
  0
LINE
  5
10E
100
AcDbEntity
  8
engrave
  6
ByLayer
 62
  256
370
   -1
100
AcDbLine
 10
8.029999999999994
 20
6.360000000000001
 11
15.02999999999999
 21
6.360000000000001
  0
LINE
  5
10F
100
AcDbEntity
  8
engrave
  6
ByLayer
 62
  256
370
   -1
100
AcDbLine
 10
8.029999999999994
 20
6.350000000000001
 11
15.02999999999999
 21
6.350000000000001
  0
LINE
  5
110
100
AcDbEntity
  8
engrave
  6
ByLayer
 62
  256
370
   -1
100
AcDbLine
 10
8.029999999999994
 20
6.340000000000001
 11
15.02999999999999
 21
6.340000000000001
  0
LINE
  5
111
100
AcDbEntity
  8
engrave
  6
ByLayer
 62
  256
370
   -1
100
AcDbLine
 10
8.029999999999994
 20
6.330000000000001
 11
15.02999999999999
 21
6.330000000000001
  0
LINE
  5
112
100
AcDbEntity
  8
engrave
  6
ByLayer
 62
  256
370
   -1
100
AcDbLine
 10
8.029999999999994
 20
6.32
 11
15.02999999999999
 21
6.32
  0
LINE
  5
113
100
AcDbEntity
  8
engrave
  6
ByLayer
 62
  256
370
   -1
100
AcDbLine
 10
8.029999999999994
 20
6.31
 11
15.02999999999999
 21
6.31
  0
LINE
  5
114
100
AcDbEntity
  8
engrave
  6
ByLayer
 62
  256
370
   -1
100
AcDbLine
 10
8.029999999999994
 20
6.300000000000001
 11
15.02999999999999
 21
6.300000000000001
  0
LINE
  5
115
100
AcDbEntity
  8
engrave
  6
ByLayer
 62
  256
370
   -1
100
AcDbLine
 10
8.029999999999994
 20
6.290000000000001
 11
15.02999999999999
 21
6.290000000000001
  0
LINE
  5
116
100
AcDbEntity
  8
engrave
  6
ByLayer
 62
  256
370
   -1
100
AcDbLine
 10
8.029999999999994
 20
6.280000000000001
 11
15.02999999999999
 21
6.280000000000001
  0
LINE
  5
117
100
AcDbEntity
  8
engrave
  6
ByLayer
 62
  256
370
   -1
100
AcDbLine
 10
8.029999999999994
 20
6.27
 11
15.02999999999999
 21
6.27
  0
LINE
  5
118
100
AcDbEntity
  8
engrave
  6
ByLayer
 62
  256
370
   -1
100
AcDbLine
 10
8.029999999999994
 20
6.260000000000001
 11
15.02999999999999
 21
6.260000000000001
  0
LINE
  5
119
100
AcDbEntity
  8
engrave
  6
ByLayer
 62
  256
370
   -1
100
AcDbLine
 10
8.029999999999994
 20
6.250000000000001
 11
15.02999999999999
 21
6.250000000000001
  0
LINE
  5
11A
100
AcDbEntity
  8
engrave
  6
ByLayer
 62
  256
370
   -1
100
AcDbLine
 10
8.029999999999994
 20
6.240000000000001
 11
15.02999999999999
 21
6.240000000000001
  0
LINE
  5
11B
100
AcDbEntity
  8
engrave
  6
ByLayer
 62
  256
370
   -1
100
AcDbLine
 10
8.029999999999994
 20
6.23
 11
15.02999999999999
 21
6.23
  0
LINE
  5
11C
100
AcDbEntity
  8
engrave
  6
ByLayer
 62
  256
370
   -1
100
AcDbLine
 10
8.029999999999994
 20
6.220000000000001
 11
15.02999999999999
 21
6.220000000000001
  0
LINE
  5
11D
100
AcDbEntity
  8
engrave
  6
ByLayer
 62
  256
370
   -1
100
AcDbLine
 10
8.029999999999994
 20
6.210000000000001
 11
15.02999999999999
 21
6.210000000000001
  0
LINE
  5
11E
100
AcDbEntity
  8
engrave
  6
ByLayer
 62
  256
370
   -1
100
AcDbLine
 10
8.029999999999994
 20
6.200000000000001
 11
15.02999999999999
 21
6.200000000000001
  0
LINE
  5
11F
100
AcDbEntity
  8
engrave
  6
ByLayer
 62
  256
370
   -1
100
AcDbLine
 10
8.029999999999994
 20
6.19
 11
15.02999999999999
 21
6.19
  0
LINE
  5
120
100
AcDbEntity
  8
engrave
  6
ByLayer
 62
  256
370
   -1
100
AcDbLine
 10
8.029999999999994
 20
6.180000000000001
 11
15.02999999999999
 21
6.180000000000001
  0
LINE
  5
121
100
AcDbEntity
  8
engrave
  6
ByLayer
 62
  256
370
   -1
100
AcDbLine
 10
8.029999999999994
 20
6.170000000000001
 11
15.02999999999999
 21
6.170000000000001
  0
LINE
  5
122
100
AcDbEntity
  8
engrave
  6
ByLayer
 62
  256
370
   -1
100
AcDbLine
 10
8.029999999999994
 20
6.160000000000001
 11
15.02999999999999
 21
6.160000000000001
  0
LINE
  5
123
100
AcDbEntity
  8
engrave
  6
ByLayer
 62
  256
370
   -1
100
AcDbLine
 10
8.029999999999994
 20
6.15
 11
15.02999999999999
 21
6.15
  0
LINE
  5
124
100
AcDbEntity
  8
engrave
  6
ByLayer
 62
  256
370
   -1
100
AcDbLine
 10
8.029999999999994
 20
6.140000000000001
 11
15.02999999999999
 21
6.140000000000001
  0
LINE
  5
125
100
AcDbEntity
  8
engrave
  6
ByLayer
 62
  256
370
   -1
100
AcDbLine
 10
8.029999999999994
 20
6.130000000000001
 11
15.02999999999999
 21
6.130000000000001
  0
LINE
  5
126
100
AcDbEntity
  8
engrave
  6
ByLayer
 62
  256
370
   -1
100
AcDbLine
 10
8.029999999999994
 20
6.120000000000001
 11
15.02999999999999
 21
6.120000000000001
  0
LINE
  5
127
100
AcDbEntity
  8
engrave
  6
ByLayer
 62
  256
370
   -1
100
AcDbLine
 10
8.029999999999994
 20
6.110000000000001
 11
15.02999999999999
 21
6.110000000000001
  0
LINE
  5
128
100
AcDbEntity
  8
engrave
  6
ByLayer
 62
  256
370
   -1
100
AcDbLine
 10
8.029999999999994
 20
6.100000000000001
 11
15.02999999999999
 21
6.100000000000001
  0
LINE
  5
129
100
AcDbEntity
  8
engrave
  6
ByLayer
 62
  256
370
   -1
100
AcDbLine
 10
8.029999999999994
 20
6.090000000000001
 11
15.02999999999999
 21
6.090000000000001
  0
LINE
  5
12A
100
AcDbEntity
  8
engrave
  6
ByLayer
 62
  256
370
   -1
100
AcDbLine
 10
8.029999999999994
 20
6.080000000000001
 11
15.02999999999999
 21
6.080000000000001
  0
LINE
  5
12B
100
AcDbEntity
  8
engrave
  6
ByLayer
 62
  256
370
   -1
100
AcDbLine
 10
8.029999999999994
 20
6.070000000000001
 11
15.02999999999999
 21
6.070000000000001
  0
LINE
  5
12C
100
AcDbEntity
  8
engrave
  6
ByLayer
 62
  256
370
   -1
100
AcDbLine
 10
8.029999999999994
 20
6.06
 11
15.02999999999999
 21
6.06
  0
LINE
  5
12D
100
AcDbEntity
  8
engrave
  6
ByLayer
 62
  256
370
   -1
100
AcDbLine
 10
8.029999999999994
 20
6.050000000000001
 11
15.02999999999999
 21
6.050000000000001
  0
LINE
  5
12E
100
AcDbEntity
  8
engrave
  6
ByLayer
 62
  256
370
   -1
100
AcDbLine
 10
8.029999999999994
 20
6.040000000000001
 11
15.02999999999999
 21
6.040000000000001
  0
LINE
  5
12F
100
AcDbEntity
  8
engrave
  6
ByLayer
 62
  256
370
   -1
100
AcDbLine
 10
8.029999999999994
 20
6.030000000000001
 11
15.02999999999999
 21
6.030000000000001
  0
LINE
  5
130
100
AcDbEntity
  8
engrave
  6
ByLayer
 62
  256
370
   -1
100
AcDbLine
 10
8.029999999999994
 20
6.02
 11
15.02999999999999
 21
6.02
  0
LINE
  5
131
100
AcDbEntity
  8
engrave
  6
ByLayer
 62
  256
370
   -1
100
AcDbLine
 10
8.029999999999994
 20
6.010000000000001
 11
15.02999999999999
 21
6.010000000000001
  0
LINE
  5
132
100
AcDbEntity
  8
engrave
  6
ByLayer
 62
  256
370
   -1
100
AcDbLine
 10
8.029999999999994
 20
6.000000000000001
 11
15.02999999999999
 21
6.000000000000001
  0
LINE
  5
133
100
AcDbEntity
  8
engrave
  6
ByLayer
 62
  256
370
   -1
100
AcDbLine
 10
8.029999999999994
 20
5.990000000000001
 11
15.02999999999999
 21
5.990000000000001
  0
LINE
  5
134
100
AcDbEntity
  8
engrave
  6
ByLayer
 62
  256
370
   -1
100
AcDbLine
 10
8.029999999999994
 20
5.98
 11
15.02999999999999
 21
5.98
  0
LINE
  5
135
100
AcDbEntity
  8
engrave
  6
ByLayer
 62
  256
370
   -1
100
AcDbLine
 10
8.029999999999994
 20
5.970000000000001
 11
15.02999999999999
 21
5.970000000000001
  0
LINE
  5
136
100
AcDbEntity
  8
engrave
  6
ByLayer
 62
  256
370
   -1
100
AcDbLine
 10
8.029999999999994
 20
5.960000000000001
 11
15.02999999999999
 21
5.960000000000001
  0
LINE
  5
137
100
AcDbEntity
  8
engrave
  6
ByLayer
 62
  256
370
   -1
100
AcDbLine
 10
8.029999999999994
 20
5.950000000000001
 11
15.02999999999999
 21
5.950000000000001
  0
LINE
  5
138
100
AcDbEntity
  8
engrave
  6
ByLayer
 62
  256
370
   -1
100
AcDbLine
 10
8.029999999999994
 20
5.94
 11
15.02999999999999
 21
5.94
  0
LINE
  5
139
100
AcDbEntity
  8
engrave
  6
ByLayer
 62
  256
370
   -1
100
AcDbLine
 10
8.029999999999994
 20
5.930000000000001
 11
15.02999999999999
 21
5.930000000000001
  0
LINE
  5
13A
100
AcDbEntity
  8
engrave
  6
ByLayer
 62
  256
370
   -1
100
AcDbLine
 10
8.029999999999994
 20
5.920000000000001
 11
15.02999999999999
 21
5.920000000000001
  0
LINE
  5
13B
100
AcDbEntity
  8
engrave
  6
ByLayer
 62
  256
370
   -1
100
AcDbLine
 10
8.029999999999994
 20
5.910000000000001
 11
15.02999999999999
 21
5.910000000000001
  0
LINE
  5
13C
100
AcDbEntity
  8
engrave
  6
ByLayer
 62
  256
370
   -1
100
AcDbLine
 10
8.029999999999994
 20
5.9
 11
15.02999999999999
 21
5.9
  0
LINE
  5
13D
100
AcDbEntity
  8
engrave
  6
ByLayer
 62
  256
370
   -1
100
AcDbLine
 10
8.029999999999994
 20
5.890000000000001
 11
15.02999999999999
 21
5.890000000000001
  0
LINE
  5
13E
100
AcDbEntity
  8
engrave
  6
ByLayer
 62
  256
370
   -1
100
AcDbLine
 10
8.029999999999994
 20
5.880000000000001
 11
15.02999999999999
 21
5.880000000000001
  0
LINE
  5
13F
100
AcDbEntity
  8
engrave
  6
ByLayer
 62
  256
370
   -1
100
AcDbLine
 10
8.029999999999994
 20
5.870000000000001
 11
15.02999999999999
 21
5.870000000000001
  0
LINE
  5
140
100
AcDbEntity
  8
engrave
  6
ByLayer
 62
  256
370
   -1
100
AcDbLine
 10
8.029999999999994
 20
5.860000000000001
 11
15.02999999999999
 21
5.860000000000001
  0
LINE
  5
141
100
AcDbEntity
  8
engrave
  6
ByLayer
 62
  256
370
   -1
100
AcDbLine
 10
8.029999999999994
 20
5.850000000000001
 11
15.02999999999999
 21
5.850000000000001
  0
LINE
  5
142
100
AcDbEntity
  8
engrave
  6
ByLayer
 62
  256
370
   -1
100
AcDbLine
 10
8.029999999999994
 20
5.840000000000001
 11
15.02999999999999
 21
5.840000000000001
  0
LINE
  5
143
100
AcDbEntity
  8
engrave
  6
ByLayer
 62
  256
370
   -1
100
AcDbLine
 10
8.029999999999994
 20
5.830000000000001
 11
15.02999999999999
 21
5.830000000000001
  0
LINE
  5
144
100
AcDbEntity
  8
engrave
  6
ByLayer
 62
  256
370
   -1
100
AcDbLine
 10
8.029999999999994
 20
5.820000000000001
 11
15.02999999999999
 21
5.820000000000001
  0
LINE
  5
145
100
AcDbEntity
  8
engrave
  6
ByLayer
 62
  256
370
   -1
100
AcDbLine
 10
8.029999999999994
 20
5.81
 11
15.02999999999999
 21
5.81
  0
LINE
  5
146
100
AcDbEntity
  8
engrave
  6
ByLayer
 62
  256
370
   -1
100
AcDbLine
 10
8.029999999999994
 20
5.800000000000001
 11
15.02999999999999
 21
5.800000000000001
  0
LINE
  5
147
100
AcDbEntity
  8
engrave
  6
ByLayer
 62
  256
370
   -1
100
AcDbLine
 10
8.029999999999994
 20
5.790000000000001
 11
15.02999999999999
 21
5.790000000000001
  0
LINE
  5
148
100
AcDbEntity
  8
engrave
  6
ByLayer
 62
  256
370
   -1
100
AcDbLine
 10
8.029999999999994
 20
5.780000000000001
 11
15.02999999999999
 21
5.780000000000001
  0
LINE
  5
149
100
AcDbEntity
  8
engrave
  6
ByLayer
 62
  256
370
   -1
100
AcDbLine
 10
8.029999999999994
 20
5.77
 11
15.02999999999999
 21
5.77
  0
LINE
  5
14A
100
AcDbEntity
  8
engrave
  6
ByLayer
 62
  256
370
   -1
100
AcDbLine
 10
8.029999999999994
 20
5.760000000000001
 11
15.02999999999999
 21
5.760000000000001
  0
LINE
  5
14B
100
AcDbEntity
  8
engrave
  6
ByLayer
 62
  256
370
   -1
100
AcDbLine
 10
8.029999999999994
 20
5.750000000000001
 11
15.02999999999999
 21
5.750000000000001
  0
LINE
  5
14C
100
AcDbEntity
  8
engrave
  6
ByLayer
 62
  256
370
   -1
100
AcDbLine
 10
8.029999999999994
 20
5.740000000000001
 11
15.02999999999999
 21
5.740000000000001
  0
LINE
  5
14D
100
AcDbEntity
  8
engrave
  6
ByLayer
 62
  256
370
   -1
100
AcDbLine
 10
8.029999999999994
 20
5.73
 11
15.02999999999999
 21
5.73
  0
LINE
  5
14E
100
AcDbEntity
  8
engrave
  6
ByLayer
 62
  256
370
   -1
100
AcDbLine
 10
8.029999999999994
 20
5.720000000000001
 11
15.02999999999999
 21
5.720000000000001
  0
LINE
  5
14F
100
AcDbEntity
  8
engrave
  6
ByLayer
 62
  256
370
   -1
100
AcDbLine
 10
8.029999999999994
 20
5.710000000000001
 11
15.02999999999999
 21
5.710000000000001
  0
LINE
  5
150
100
AcDbEntity
  8
engrave
  6
ByLayer
 62
  256
370
   -1
100
AcDbLine
 10
8.029999999999994
 20
5.700000000000001
 11
15.02999999999999
 21
5.700000000000001
  0
LINE
  5
151
100
AcDbEntity
  8
engrave
  6
ByLayer
 62
  256
370
   -1
100
AcDbLine
 10
8.029999999999994
 20
5.69
 11
15.02999999999999
 21
5.69
  0
LINE
  5
152
100
AcDbEntity
  8
engrave
  6
ByLayer
 62
  256
370
   -1
100
AcDbLine
 10
8.029999999999994
 20
5.680000000000001
 11
15.02999999999999
 21
5.680000000000001
  0
LINE
  5
153
100
AcDbEntity
  8
engrave
  6
ByLayer
 62
  256
370
   -1
100
AcDbLine
 10
8.029999999999994
 20
5.670000000000001
 11
15.02999999999999
 21
5.670000000000001
  0
LINE
  5
154
100
AcDbEntity
  8
engrave
  6
ByLayer
 62
  256
370
   -1
100
AcDbLine
 10
8.029999999999994
 20
5.660000000000001
 11
15.02999999999999
 21
5.660000000000001
  0
LINE
  5
155
100
AcDbEntity
  8
engrave
  6
ByLayer
 62
  256
370
   -1
100
AcDbLine
 10
8.029999999999994
 20
5.65
 11
15.02999999999999
 21
5.65
  0
LINE
  5
156
100
AcDbEntity
  8
engrave
  6
ByLayer
 62
  256
370
   -1
100
AcDbLine
 10
8.029999999999994
 20
5.640000000000001
 11
15.02999999999999
 21
5.640000000000001
  0
LINE
  5
157
100
AcDbEntity
  8
engrave
  6
ByLayer
 62
  256
370
   -1
100
AcDbLine
 10
8.029999999999994
 20
5.630000000000001
 11
15.02999999999999
 21
5.630000000000001
  0
LINE
  5
158
100
AcDbEntity
  8
engrave
  6
ByLayer
 62
  256
370
   -1
100
AcDbLine
 10
8.029999999999994
 20
5.620000000000001
 11
15.02999999999999
 21
5.620000000000001
  0
LINE
  5
159
100
AcDbEntity
  8
engrave
  6
ByLayer
 62
  256
370
   -1
100
AcDbLine
 10
8.029999999999994
 20
5.610000000000001
 11
15.02999999999999
 21
5.610000000000001
  0
LINE
  5
15A
100
AcDbEntity
  8
engrave
  6
ByLayer
 62
  256
370
   -1
100
AcDbLine
 10
8.029999999999994
 20
5.600000000000001
 11
15.02999999999999
 21
5.600000000000001
  0
LINE
  5
15B
100
AcDbEntity
  8
engrave
  6
ByLayer
 62
  256
370
   -1
100
AcDbLine
 10
8.029999999999994
 20
5.590000000000001
 11
15.02999999999999
 21
5.590000000000001
  0
LINE
  5
15C
100
AcDbEntity
  8
engrave
  6
ByLayer
 62
  256
370
   -1
100
AcDbLine
 10
8.029999999999994
 20
5.580000000000001
 11
15.02999999999999
 21
5.580000000000001
  0
LINE
  5
15D
100
AcDbEntity
  8
engrave
  6
ByLayer
 62
  256
370
   -1
100
AcDbLine
 10
8.029999999999994
 20
5.57
 11
15.02999999999999
 21
5.57
  0
LINE
  5
15E
100
AcDbEntity
  8
engrave
  6
ByLayer
 62
  256
370
   -1
100
AcDbLine
 10
8.029999999999994
 20
5.56
 11
15.02999999999999
 21
5.56
  0
LINE
  5
15F
100
AcDbEntity
  8
engrave
  6
ByLayer
 62
  256
370
   -1
100
AcDbLine
 10
8.029999999999994
 20
5.550000000000001
 11
15.02999999999999
 21
5.550000000000001
  0
LINE
  5
160
100
AcDbEntity
  8
engrave
  6
ByLayer
 62
  256
370
   -1
100
AcDbLine
 10
8.029999999999994
 20
5.540000000000001
 11
15.02999999999999
 21
5.540000000000001
  0
LINE
  5
161
100
AcDbEntity
  8
engrave
  6
ByLayer
 62
  256
370
   -1
100
AcDbLine
 10
8.029999999999994
 20
5.530000000000001
 11
15.02999999999999
 21
5.530000000000001
  0
LINE
  5
162
100
AcDbEntity
  8
engrave
  6
ByLayer
 62
  256
370
   -1
100
AcDbLine
 10
8.029999999999994
 20
5.52
 11
15.02999999999999
 21
5.52
  0
LINE
  5
163
100
AcDbEntity
  8
engrave
  6
ByLayer
 62
  256
370
   -1
100
AcDbLine
 10
8.029999999999994
 20
5.510000000000001
 11
15.02999999999999
 21
5.510000000000001
  0
LINE
  5
164
100
AcDbEntity
  8
engrave
  6
ByLayer
 62
  256
370
   -1
100
AcDbLine
 10
8.029999999999994
 20
5.500000000000001
 11
15.02999999999999
 21
5.500000000000001
  0
LINE
  5
165
100
AcDbEntity
  8
engrave
  6
ByLayer
 62
  256
370
   -1
100
AcDbLine
 10
8.029999999999994
 20
5.490000000000001
 11
15.02999999999999
 21
5.490000000000001
  0
LINE
  5
166
100
AcDbEntity
  8
engrave
  6
ByLayer
 62
  256
370
   -1
100
AcDbLine
 10
8.029999999999994
 20
5.48
 11
15.02999999999999
 21
5.48
  0
LINE
  5
167
100
AcDbEntity
  8
engrave
  6
ByLayer
 62
  256
370
   -1
100
AcDbLine
 10
8.029999999999994
 20
5.470000000000001
 11
15.02999999999999
 21
5.470000000000001
  0
LINE
  5
168
100
AcDbEntity
  8
engrave
  6
ByLayer
 62
  256
370
   -1
100
AcDbLine
 10
8.029999999999994
 20
5.460000000000001
 11
15.02999999999999
 21
5.460000000000001
  0
LINE
  5
169
100
AcDbEntity
  8
engrave
  6
ByLayer
 62
  256
370
   -1
100
AcDbLine
 10
8.029999999999994
 20
5.450000000000001
 11
15.02999999999999
 21
5.450000000000001
  0
LINE
  5
16A
100
AcDbEntity
  8
engrave
  6
ByLayer
 62
  256
370
   -1
100
AcDbLine
 10
8.029999999999994
 20
5.44
 11
15.02999999999999
 21
5.44
  0
LINE
  5
16B
100
AcDbEntity
  8
engrave
  6
ByLayer
 62
  256
370
   -1
100
AcDbLine
 10
8.029999999999994
 20
5.430000000000001
 11
15.02999999999999
 21
5.430000000000001
  0
LINE
  5
16C
100
AcDbEntity
  8
engrave
  6
ByLayer
 62
  256
370
   -1
100
AcDbLine
 10
8.029999999999994
 20
5.420000000000001
 11
15.02999999999999
 21
5.420000000000001
  0
LINE
  5
16D
100
AcDbEntity
  8
engrave
  6
ByLayer
 62
  256
370
   -1
100
AcDbLine
 10
8.029999999999994
 20
5.410000000000001
 11
15.02999999999999
 21
5.410000000000001
  0
LINE
  5
16E
100
AcDbEntity
  8
engrave
  6
ByLayer
 62
  256
370
   -1
100
AcDbLine
 10
8.029999999999994
 20
5.4
 11
15.02999999999999
 21
5.4
  0
LINE
  5
16F
100
AcDbEntity
  8
engrave
  6
ByLayer
 62
  256
370
   -1
100
AcDbLine
 10
8.029999999999994
 20
5.390000000000001
 11
15.02999999999999
 21
5.390000000000001
  0
LINE
  5
170
100
AcDbEntity
  8
engrave
  6
ByLayer
 62
  256
370
   -1
100
AcDbLine
 10
8.029999999999994
 20
5.380000000000001
 11
15.02999999999999
 21
5.380000000000001
  0
LINE
  5
171
100
AcDbEntity
  8
engrave
  6
ByLayer
 62
  256
370
   -1
100
AcDbLine
 10
8.029999999999994
 20
5.370000000000001
 11
15.02999999999999
 21
5.370000000000001
  0
LINE
  5
172
100
AcDbEntity
  8
engrave
  6
ByLayer
 62
  256
370
   -1
100
AcDbLine
 10
8.029999999999994
 20
5.360000000000001
 11
15.02999999999999
 21
5.360000000000001
  0
LINE
  5
173
100
AcDbEntity
  8
engrave
  6
ByLayer
 62
  256
370
   -1
100
AcDbLine
 10
8.029999999999994
 20
5.350000000000001
 11
15.02999999999999
 21
5.350000000000001
  0
LINE
  5
174
100
AcDbEntity
  8
engrave
  6
ByLayer
 62
  256
370
   -1
100
AcDbLine
 10
8.029999999999994
 20
5.340000000000001
 11
15.02999999999999
 21
5.340000000000001
  0
LINE
  5
175
100
AcDbEntity
  8
engrave
  6
ByLayer
 62
  256
370
   -1
100
AcDbLine
 10
8.029999999999994
 20
5.330000000000001
 11
15.02999999999999
 21
5.330000000000001
  0
LINE
  5
176
100
AcDbEntity
  8
engrave
  6
ByLayer
 62
  256
370
   -1
100
AcDbLine
 10
8.029999999999994
 20
5.32
 11
15.02999999999999
 21
5.32
  0
LINE
  5
177
100
AcDbEntity
  8
engrave
  6
ByLayer
 62
  256
370
   -1
100
AcDbLine
 10
8.029999999999994
 20
5.31
 11
15.02999999999999
 21
5.31
  0
LINE
  5
178
100
AcDbEntity
  8
engrave
  6
ByLayer
 62
  256
370
   -1
100
AcDbLine
 10
8.029999999999994
 20
5.300000000000001
 11
15.02999999999999
 21
5.300000000000001
  0
LINE
  5
179
100
AcDbEntity
  8
engrave
  6
ByLayer
 62
  256
370
   -1
100
AcDbLine
 10
8.029999999999994
 20
5.290000000000001
 11
15.02999999999999
 21
5.290000000000001
  0
LINE
  5
17A
100
AcDbEntity
  8
engrave
  6
ByLayer
 62
  256
370
   -1
100
AcDbLine
 10
8.029999999999994
 20
5.280000000000001
 11
15.02999999999999
 21
5.280000000000001
  0
LINE
  5
17B
100
AcDbEntity
  8
engrave
  6
ByLayer
 62
  256
370
   -1
100
AcDbLine
 10
8.029999999999994
 20
5.27
 11
15.02999999999999
 21
5.27
  0
LINE
  5
17C
100
AcDbEntity
  8
engrave
  6
ByLayer
 62
  256
370
   -1
100
AcDbLine
 10
8.029999999999994
 20
5.260000000000001
 11
15.02999999999999
 21
5.260000000000001
  0
LINE
  5
17D
100
AcDbEntity
  8
engrave
  6
ByLayer
 62
  256
370
   -1
100
AcDbLine
 10
8.029999999999994
 20
5.250000000000001
 11
15.02999999999999
 21
5.250000000000001
  0
LINE
  5
17E
100
AcDbEntity
  8
engrave
  6
ByLayer
 62
  256
370
   -1
100
AcDbLine
 10
8.029999999999994
 20
5.240000000000001
 11
15.02999999999999
 21
5.240000000000001
  0
LINE
  5
17F
100
AcDbEntity
  8
engrave
  6
ByLayer
 62
  256
370
   -1
100
AcDbLine
 10
8.029999999999994
 20
5.23
 11
15.02999999999999
 21
5.23
  0
LINE
  5
180
100
AcDbEntity
  8
engrave
  6
ByLayer
 62
  256
370
   -1
100
AcDbLine
 10
8.029999999999994
 20
5.220000000000001
 11
15.02999999999999
 21
5.220000000000001
  0
LINE
  5
181
100
AcDbEntity
  8
engrave
  6
ByLayer
 62
  256
370
   -1
100
AcDbLine
 10
8.029999999999994
 20
5.210000000000001
 11
15.02999999999999
 21
5.210000000000001
  0
LINE
  5
182
100
AcDbEntity
  8
engrave
  6
ByLayer
 62
  256
370
   -1
100
AcDbLine
 10
8.029999999999994
 20
5.200000000000001
 11
15.02999999999999
 21
5.200000000000001
  0
LINE
  5
183
100
AcDbEntity
  8
engrave
  6
ByLayer
 62
  256
370
   -1
100
AcDbLine
 10
8.029999999999994
 20
5.19
 11
15.02999999999999
 21
5.19
  0
LINE
  5
184
100
AcDbEntity
  8
engrave
  6
ByLayer
 62
  256
370
   -1
100
AcDbLine
 10
8.029999999999994
 20
5.180000000000001
 11
15.02999999999999
 21
5.180000000000001
  0
LINE
  5
185
100
AcDbEntity
  8
engrave
  6
ByLayer
 62
  256
370
   -1
100
AcDbLine
 10
8.029999999999994
 20
5.170000000000001
 11
15.02999999999999
 21
5.170000000000001
  0
LINE
  5
186
100
AcDbEntity
  8
engrave
  6
ByLayer
 62
  256
370
   -1
100
AcDbLine
 10
8.029999999999994
 20
5.160000000000001
 11
15.02999999999999
 21
5.160000000000001
  0
LINE
  5
187
100
AcDbEntity
  8
engrave
  6
ByLayer
 62
  256
370
   -1
100
AcDbLine
 10
8.029999999999994
 20
5.15
 11
15.02999999999999
 21
5.15
  0
LINE
  5
188
100
AcDbEntity
  8
engrave
  6
ByLayer
 62
  256
370
   -1
100
AcDbLine
 10
8.029999999999994
 20
5.140000000000001
 11
15.02999999999999
 21
5.140000000000001
  0
LINE
  5
189
100
AcDbEntity
  8
engrave
  6
ByLayer
 62
  256
370
   -1
100
AcDbLine
 10
8.029999999999994
 20
5.130000000000001
 11
15.02999999999999
 21
5.130000000000001
  0
LINE
  5
18A
100
AcDbEntity
  8
engrave
  6
ByLayer
 62
  256
370
   -1
100
AcDbLine
 10
8.029999999999994
 20
5.120000000000001
 11
15.02999999999999
 21
5.120000000000001
  0
LINE
  5
18B
100
AcDbEntity
  8
engrave
  6
ByLayer
 62
  256
370
   -1
100
AcDbLine
 10
8.029999999999994
 20
5.110000000000001
 11
15.02999999999999
 21
5.110000000000001
  0
LINE
  5
18C
100
AcDbEntity
  8
engrave
  6
ByLayer
 62
  256
370
   -1
100
AcDbLine
 10
8.029999999999994
 20
5.100000000000001
 11
15.02999999999999
 21
5.100000000000001
  0
LINE
  5
18D
100
AcDbEntity
  8
engrave
  6
ByLayer
 62
  256
370
   -1
100
AcDbLine
 10
8.029999999999994
 20
5.090000000000001
 11
15.02999999999999
 21
5.090000000000001
  0
LINE
  5
18E
100
AcDbEntity
  8
engrave
  6
ByLayer
 62
  256
370
   -1
100
AcDbLine
 10
8.029999999999994
 20
5.080000000000001
 11
15.02999999999999
 21
5.080000000000001
  0
LINE
  5
18F
100
AcDbEntity
  8
engrave
  6
ByLayer
 62
  256
370
   -1
100
AcDbLine
 10
8.029999999999994
 20
5.070000000000001
 11
15.02999999999999
 21
5.070000000000001
  0
LINE
  5
190
100
AcDbEntity
  8
engrave
  6
ByLayer
 62
  256
370
   -1
100
AcDbLine
 10
8.029999999999994
 20
5.06
 11
15.02999999999999
 21
5.06
  0
LINE
  5
191
100
AcDbEntity
  8
engrave
  6
ByLayer
 62
  256
370
   -1
100
AcDbLine
 10
8.029999999999994
 20
5.050000000000001
 11
15.02999999999999
 21
5.050000000000001
  0
LINE
  5
192
100
AcDbEntity
  8
engrave
  6
ByLayer
 62
  256
370
   -1
100
AcDbLine
 10
8.029999999999994
 20
5.040000000000001
 11
15.02999999999999
 21
5.040000000000001
  0
LINE
  5
193
100
AcDbEntity
  8
engrave
  6
ByLayer
 62
  256
370
   -1
100
AcDbLine
 10
8.029999999999994
 20
5.030000000000001
 11
15.02999999999999
 21
5.030000000000001
  0
LINE
  5
194
100
AcDbEntity
  8
engrave
  6
ByLayer
 62
  256
370
   -1
100
AcDbLine
 10
8.029999999999994
 20
5.02
 11
15.02999999999999
 21
5.02
  0
LINE
  5
195
100
AcDbEntity
  8
engrave
  6
ByLayer
 62
  256
370
   -1
100
AcDbLine
 10
8.029999999999994
 20
5.010000000000001
 11
15.02999999999999
 21
5.010000000000001
  0
LINE
  5
196
100
AcDbEntity
  8
engrave
  6
ByLayer
 62
  256
370
   -1
100
AcDbLine
 10
8.029999999999994
 20
5.000000000000001
 11
15.02999999999999
 21
5.000000000000001
  0
LINE
  5
197
100
AcDbEntity
  8
engrave
  6
ByLayer
 62
  256
370
   -1
100
AcDbLine
 10
8.029999999999994
 20
4.990000000000001
 11
15.02999999999999
 21
4.990000000000001
  0
LINE
  5
198
100
AcDbEntity
  8
engrave
  6
ByLayer
 62
  256
370
   -1
100
AcDbLine
 10
8.029999999999994
 20
4.98
 11
15.02999999999999
 21
4.98
  0
LINE
  5
199
100
AcDbEntity
  8
engrave
  6
ByLayer
 62
  256
370
   -1
100
AcDbLine
 10
8.029999999999994
 20
4.970000000000001
 11
15.02999999999999
 21
4.970000000000001
  0
LINE
  5
19A
100
AcDbEntity
  8
engrave
  6
ByLayer
 62
  256
370
   -1
100
AcDbLine
 10
8.029999999999994
 20
4.960000000000001
 11
15.02999999999999
 21
4.960000000000001
  0
LINE
  5
19B
100
AcDbEntity
  8
engrave
  6
ByLayer
 62
  256
370
   -1
100
AcDbLine
 10
8.029999999999994
 20
4.950000000000001
 11
15.02999999999999
 21
4.950000000000001
  0
LINE
  5
19C
100
AcDbEntity
  8
engrave
  6
ByLayer
 62
  256
370
   -1
100
AcDbLine
 10
8.029999999999994
 20
4.94
 11
15.02999999999999
 21
4.94
  0
LINE
  5
19D
100
AcDbEntity
  8
engrave
  6
ByLayer
 62
  256
370
   -1
100
AcDbLine
 10
8.029999999999994
 20
4.930000000000001
 11
15.02999999999999
 21
4.930000000000001
  0
LINE
  5
19E
100
AcDbEntity
  8
engrave
  6
ByLayer
 62
  256
370
   -1
100
AcDbLine
 10
8.029999999999994
 20
4.920000000000001
 11
15.02999999999999
 21
4.920000000000001
  0
LINE
  5
19F
100
AcDbEntity
  8
engrave
  6
ByLayer
 62
  256
370
   -1
100
AcDbLine
 10
8.029999999999994
 20
4.910000000000001
 11
15.02999999999999
 21
4.910000000000001
  0
LINE
  5
1A0
100
AcDbEntity
  8
engrave
  6
ByLayer
 62
  256
370
   -1
100
AcDbLine
 10
8.029999999999994
 20
4.9
 11
15.02999999999999
 21
4.9
  0
LINE
  5
1A1
100
AcDbEntity
  8
engrave
  6
ByLayer
 62
  256
370
   -1
100
AcDbLine
 10
8.029999999999994
 20
4.890000000000001
 11
15.02999999999999
 21
4.890000000000001
  0
LINE
  5
1A2
100
AcDbEntity
  8
engrave
  6
ByLayer
 62
  256
370
   -1
100
AcDbLine
 10
8.029999999999994
 20
4.880000000000001
 11
15.02999999999999
 21
4.880000000000001
  0
LINE
  5
1A3
100
AcDbEntity
  8
engrave
  6
ByLayer
 62
  256
370
   -1
100
AcDbLine
 10
8.029999999999994
 20
4.870000000000001
 11
15.02999999999999
 21
4.870000000000001
  0
LINE
  5
1A4
100
AcDbEntity
  8
engrave
  6
ByLayer
 62
  256
370
   -1
100
AcDbLine
 10
8.029999999999994
 20
4.860000000000001
 11
15.02999999999999
 21
4.860000000000001
  0
LINE
  5
1A5
100
AcDbEntity
  8
engrave
  6
ByLayer
 62
  256
370
   -1
100
AcDbLine
 10
8.029999999999994
 20
4.850000000000001
 11
15.02999999999999
 21
4.850000000000001
  0
LINE
  5
1A6
100
AcDbEntity
  8
engrave
  6
ByLayer
 62
  256
370
   -1
100
AcDbLine
 10
8.029999999999994
 20
4.840000000000001
 11
15.02999999999999
 21
4.840000000000001
  0
LINE
  5
1A7
100
AcDbEntity
  8
engrave
  6
ByLayer
 62
  256
370
   -1
100
AcDbLine
 10
8.029999999999994
 20
4.830000000000001
 11
15.02999999999999
 21
4.830000000000001
  0
LINE
  5
1A8
100
AcDbEntity
  8
engrave
  6
ByLayer
 62
  256
370
   -1
100
AcDbLine
 10
8.029999999999994
 20
4.820000000000001
 11
15.02999999999999
 21
4.820000000000001
  0
LINE
  5
1A9
100
AcDbEntity
  8
engrave
  6
ByLayer
 62
  256
370
   -1
100
AcDbLine
 10
8.029999999999994
 20
4.81
 11
15.02999999999999
 21
4.81
  0
LINE
  5
1AA
100
AcDbEntity
  8
engrave
  6
ByLayer
 62
  256
370
   -1
100
AcDbLine
 10
8.029999999999994
 20
4.800000000000001
 11
15.02999999999999
 21
4.800000000000001
  0
LINE
  5
1AB
100
AcDbEntity
  8
engrave
  6
ByLayer
 62
  256
370
   -1
100
AcDbLine
 10
8.029999999999994
 20
4.790000000000001
 11
15.02999999999999
 21
4.790000000000001
  0
LINE
  5
1AC
100
AcDbEntity
  8
engrave
  6
ByLayer
 62
  256
370
   -1
100
AcDbLine
 10
8.029999999999994
 20
4.780000000000001
 11
15.02999999999999
 21
4.780000000000001
  0
LINE
  5
1AD
100
AcDbEntity
  8
engrave
  6
ByLayer
 62
  256
370
   -1
100
AcDbLine
 10
8.029999999999994
 20
4.77
 11
15.02999999999999
 21
4.77
  0
LINE
  5
1AE
100
AcDbEntity
  8
engrave
  6
ByLayer
 62
  256
370
   -1
100
AcDbLine
 10
8.029999999999994
 20
4.760000000000001
 11
15.02999999999999
 21
4.760000000000001
  0
LINE
  5
1AF
100
AcDbEntity
  8
engrave
  6
ByLayer
 62
  256
370
   -1
100
AcDbLine
 10
8.029999999999994
 20
4.750000000000001
 11
15.02999999999999
 21
4.750000000000001
  0
LINE
  5
1B0
100
AcDbEntity
  8
engrave
  6
ByLayer
 62
  256
370
   -1
100
AcDbLine
 10
8.029999999999994
 20
4.740000000000001
 11
15.02999999999999
 21
4.740000000000001
  0
LINE
  5
1B1
100
AcDbEntity
  8
engrave
  6
ByLayer
 62
  256
370
   -1
100
AcDbLine
 10
8.029999999999994
 20
4.73
 11
15.02999999999999
 21
4.73
  0
LINE
  5
1B2
100
AcDbEntity
  8
engrave
  6
ByLayer
 62
  256
370
   -1
100
AcDbLine
 10
8.029999999999994
 20
4.720000000000001
 11
15.02999999999999
 21
4.720000000000001
  0
LINE
  5
1B3
100
AcDbEntity
  8
engrave
  6
ByLayer
 62
  256
370
   -1
100
AcDbLine
 10
8.029999999999994
 20
4.710000000000001
 11
15.02999999999999
 21
4.710000000000001
  0
LINE
  5
1B4
100
AcDbEntity
  8
engrave
  6
ByLayer
 62
  256
370
   -1
100
AcDbLine
 10
8.029999999999994
 20
4.700000000000001
 11
15.02999999999999
 21
4.700000000000001
  0
LINE
  5
1B5
100
AcDbEntity
  8
engrave
  6
ByLayer
 62
  256
370
   -1
100
AcDbLine
 10
8.029999999999994
 20
4.69
 11
15.02999999999999
 21
4.69
  0
LINE
  5
1B6
100
AcDbEntity
  8
engrave
  6
ByLayer
 62
  256
370
   -1
100
AcDbLine
 10
8.029999999999994
 20
4.680000000000001
 11
15.02999999999999
 21
4.680000000000001
  0
LINE
  5
1B7
100
AcDbEntity
  8
engrave
  6
ByLayer
 62
  256
370
   -1
100
AcDbLine
 10
8.029999999999994
 20
4.670000000000001
 11
15.02999999999999
 21
4.670000000000001
  0
LINE
  5
1B8
100
AcDbEntity
  8
engrave
  6
ByLayer
 62
  256
370
   -1
100
AcDbLine
 10
8.029999999999994
 20
4.660000000000001
 11
15.02999999999999
 21
4.660000000000001
  0
LINE
  5
1B9
100
AcDbEntity
  8
engrave
  6
ByLayer
 62
  256
370
   -1
100
AcDbLine
 10
8.029999999999994
 20
4.65
 11
15.02999999999999
 21
4.65
  0
LINE
  5
1BA
100
AcDbEntity
  8
engrave
  6
ByLayer
 62
  256
370
   -1
100
AcDbLine
 10
8.029999999999994
 20
4.640000000000001
 11
15.02999999999999
 21
4.640000000000001
  0
LINE
  5
1BB
100
AcDbEntity
  8
engrave
  6
ByLayer
 62
  256
370
   -1
100
AcDbLine
 10
8.029999999999994
 20
4.630000000000001
 11
15.02999999999999
 21
4.630000000000001
  0
LINE
  5
1BC
100
AcDbEntity
  8
engrave
  6
ByLayer
 62
  256
370
   -1
100
AcDbLine
 10
8.029999999999994
 20
4.620000000000001
 11
15.02999999999999
 21
4.620000000000001
  0
LINE
  5
1BD
100
AcDbEntity
  8
engrave
  6
ByLayer
 62
  256
370
   -1
100
AcDbLine
 10
8.029999999999994
 20
4.610000000000001
 11
15.02999999999999
 21
4.610000000000001
  0
LINE
  5
1BE
100
AcDbEntity
  8
engrave
  6
ByLayer
 62
  256
370
   -1
100
AcDbLine
 10
8.029999999999994
 20
4.600000000000001
 11
15.02999999999999
 21
4.600000000000001
  0
LINE
  5
1BF
100
AcDbEntity
  8
engrave
  6
ByLayer
 62
  256
370
   -1
100
AcDbLine
 10
8.029999999999994
 20
4.590000000000001
 11
15.02999999999999
 21
4.590000000000001
  0
LINE
  5
1C0
100
AcDbEntity
  8
engrave
  6
ByLayer
 62
  256
370
   -1
100
AcDbLine
 10
8.029999999999994
 20
4.580000000000001
 11
15.02999999999999
 21
4.580000000000001
  0
LINE
  5
1C1
100
AcDbEntity
  8
engrave
  6
ByLayer
 62
  256
370
   -1
100
AcDbLine
 10
8.029999999999994
 20
4.57
 11
15.02999999999999
 21
4.57
  0
LINE
  5
1C2
100
AcDbEntity
  8
engrave
  6
ByLayer
 62
  256
370
   -1
100
AcDbLine
 10
8.029999999999994
 20
4.56
 11
15.02999999999999
 21
4.56
  0
LINE
  5
1C3
100
AcDbEntity
  8
engrave
  6
ByLayer
 62
  256
370
   -1
100
AcDbLine
 10
8.029999999999994
 20
4.550000000000001
 11
15.02999999999999
 21
4.550000000000001
  0
LINE
  5
1C4
100
AcDbEntity
  8
engrave
  6
ByLayer
 62
  256
370
   -1
100
AcDbLine
 10
8.029999999999994
 20
4.540000000000001
 11
15.02999999999999
 21
4.540000000000001
  0
LINE
  5
1C5
100
AcDbEntity
  8
engrave
  6
ByLayer
 62
  256
370
   -1
100
AcDbLine
 10
8.029999999999994
 20
4.530000000000001
 11
15.02999999999999
 21
4.530000000000001
  0
LINE
  5
1C6
100
AcDbEntity
  8
engrave
  6
ByLayer
 62
  256
370
   -1
100
AcDbLine
 10
8.029999999999994
 20
4.52
 11
15.02999999999999
 21
4.52
  0
LINE
  5
1C7
100
AcDbEntity
  8
engrave
  6
ByLayer
 62
  256
370
   -1
100
AcDbLine
 10
8.029999999999994
 20
4.510000000000001
 11
15.02999999999999
 21
4.510000000000001
  0
LINE
  5
1C8
100
AcDbEntity
  8
engrave
  6
ByLayer
 62
  256
370
   -1
100
AcDbLine
 10
8.029999999999994
 20
4.500000000000001
 11
15.02999999999999
 21
4.500000000000001
  0
LINE
  5
1C9
100
AcDbEntity
  8
engrave
  6
ByLayer
 62
  256
370
   -1
100
AcDbLine
 10
8.029999999999994
 20
4.490000000000001
 11
15.02999999999999
 21
4.490000000000001
  0
LINE
  5
1CA
100
AcDbEntity
  8
engrave
  6
ByLayer
 62
  256
370
   -1
100
AcDbLine
 10
8.029999999999994
 20
4.48
 11
15.02999999999999
 21
4.48
  0
LINE
  5
1CB
100
AcDbEntity
  8
engrave
  6
ByLayer
 62
  256
370
   -1
100
AcDbLine
 10
8.029999999999994
 20
4.470000000000001
 11
15.02999999999999
 21
4.470000000000001
  0
LINE
  5
1CC
100
AcDbEntity
  8
engrave
  6
ByLayer
 62
  256
370
   -1
100
AcDbLine
 10
8.029999999999994
 20
4.460000000000001
 11
15.02999999999999
 21
4.460000000000001
  0
LINE
  5
1CD
100
AcDbEntity
  8
engrave
  6
ByLayer
 62
  256
370
   -1
100
AcDbLine
 10
8.029999999999994
 20
4.450000000000001
 11
15.02999999999999
 21
4.450000000000001
  0
LINE
  5
1CE
100
AcDbEntity
  8
engrave
  6
ByLayer
 62
  256
370
   -1
100
AcDbLine
 10
8.029999999999994
 20
4.44
 11
15.02999999999999
 21
4.44
  0
LINE
  5
1CF
100
AcDbEntity
  8
engrave
  6
ByLayer
 62
  256
370
   -1
100
AcDbLine
 10
8.029999999999994
 20
4.430000000000001
 11
15.02999999999999
 21
4.430000000000001
  0
LINE
  5
1D0
100
AcDbEntity
  8
engrave
  6
ByLayer
 62
  256
370
   -1
100
AcDbLine
 10
8.029999999999994
 20
4.420000000000001
 11
15.02999999999999
 21
4.420000000000001
  0
LINE
  5
1D1
100
AcDbEntity
  8
engrave
  6
ByLayer
 62
  256
370
   -1
100
AcDbLine
 10
8.029999999999994
 20
4.410000000000001
 11
15.02999999999999
 21
4.410000000000001
  0
LINE
  5
1D2
100
AcDbEntity
  8
engrave
  6
ByLayer
 62
  256
370
   -1
100
AcDbLine
 10
8.029999999999994
 20
4.4
 11
15.02999999999999
 21
4.4
  0
LINE
  5
1D3
100
AcDbEntity
  8
engrave
  6
ByLayer
 62
  256
370
   -1
100
AcDbLine
 10
8.029999999999994
 20
4.390000000000001
 11
15.02999999999999
 21
4.390000000000001
  0
LINE
  5
1D4
100
AcDbEntity
  8
engrave
  6
ByLayer
 62
  256
370
   -1
100
AcDbLine
 10
8.029999999999994
 20
4.380000000000001
 11
15.02999999999999
 21
4.380000000000001
  0
LINE
  5
1D5
100
AcDbEntity
  8
engrave
  6
ByLayer
 62
  256
370
   -1
100
AcDbLine
 10
8.029999999999994
 20
4.370000000000001
 11
15.02999999999999
 21
4.370000000000001
  0
LINE
  5
1D6
100
AcDbEntity
  8
engrave
  6
ByLayer
 62
  256
370
   -1
100
AcDbLine
 10
8.029999999999994
 20
4.360000000000001
 11
15.02999999999999
 21
4.360000000000001
  0
LINE
  5
1D7
100
AcDbEntity
  8
engrave
  6
ByLayer
 62
  256
370
   -1
100
AcDbLine
 10
8.029999999999994
 20
4.350000000000001
 11
15.02999999999999
 21
4.350000000000001
  0
LINE
  5
1D8
100
AcDbEntity
  8
engrave
  6
ByLayer
 62
  256
370
   -1
100
AcDbLine
 10
8.029999999999994
 20
4.340000000000001
 11
15.02999999999999
 21
4.340000000000001
  0
LINE
  5
1D9
100
AcDbEntity
  8
engrave
  6
ByLayer
 62
  256
370
   -1
100
AcDbLine
 10
8.029999999999994
 20
4.330000000000001
 11
15.02999999999999
 21
4.330000000000001
  0
LINE
  5
1DA
100
AcDbEntity
  8
engrave
  6
ByLayer
 62
  256
370
   -1
100
AcDbLine
 10
8.029999999999994
 20
4.32
 11
15.02999999999999
 21
4.32
  0
LINE
  5
1DB
100
AcDbEntity
  8
engrave
  6
ByLayer
 62
  256
370
   -1
100
AcDbLine
 10
8.029999999999994
 20
4.31
 11
15.02999999999999
 21
4.31
  0
LINE
  5
1DC
100
AcDbEntity
  8
engrave
  6
ByLayer
 62
  256
370
   -1
100
AcDbLine
 10
8.029999999999994
 20
4.300000000000001
 11
15.02999999999999
 21
4.300000000000001
  0
LINE
  5
1DD
100
AcDbEntity
  8
engrave
  6
ByLayer
 62
  256
370
   -1
100
AcDbLine
 10
8.029999999999994
 20
4.290000000000001
 11
15.02999999999999
 21
4.290000000000001
  0
LINE
  5
1DE
100
AcDbEntity
  8
engrave
  6
ByLayer
 62
  256
370
   -1
100
AcDbLine
 10
8.029999999999994
 20
4.280000000000001
 11
15.02999999999999
 21
4.280000000000001
  0
LINE
  5
1DF
100
AcDbEntity
  8
engrave
  6
ByLayer
 62
  256
370
   -1
100
AcDbLine
 10
8.029999999999994
 20
4.27
 11
15.02999999999999
 21
4.27
  0
LINE
  5
1E0
100
AcDbEntity
  8
engrave
  6
ByLayer
 62
  256
370
   -1
100
AcDbLine
 10
8.029999999999994
 20
4.260000000000001
 11
15.02999999999999
 21
4.260000000000001
  0
LINE
  5
1E1
100
AcDbEntity
  8
engrave
  6
ByLayer
 62
  256
370
   -1
100
AcDbLine
 10
8.029999999999994
 20
4.250000000000001
 11
15.02999999999999
 21
4.250000000000001
  0
LINE
  5
1E2
100
AcDbEntity
  8
engrave
  6
ByLayer
 62
  256
370
   -1
100
AcDbLine
 10
8.029999999999994
 20
4.240000000000001
 11
15.02999999999999
 21
4.240000000000001
  0
LINE
  5
1E3
100
AcDbEntity
  8
engrave
  6
ByLayer
 62
  256
370
   -1
100
AcDbLine
 10
8.029999999999994
 20
4.23
 11
15.02999999999999
 21
4.23
  0
LINE
  5
1E4
100
AcDbEntity
  8
engrave
  6
ByLayer
 62
  256
370
   -1
100
AcDbLine
 10
8.029999999999994
 20
4.220000000000001
 11
15.02999999999999
 21
4.220000000000001
  0
LINE
  5
1E5
100
AcDbEntity
  8
engrave
  6
ByLayer
 62
  256
370
   -1
100
AcDbLine
 10
8.029999999999994
 20
4.210000000000001
 11
15.02999999999999
 21
4.210000000000001
  0
LINE
  5
1E6
100
AcDbEntity
  8
engrave
  6
ByLayer
 62
  256
370
   -1
100
AcDbLine
 10
8.029999999999994
 20
4.200000000000001
 11
15.02999999999999
 21
4.200000000000001
  0
LINE
  5
1E7
100
AcDbEntity
  8
engrave
  6
ByLayer
 62
  256
370
   -1
100
AcDbLine
 10
8.029999999999994
 20
4.19
 11
15.02999999999999
 21
4.19
  0
LINE
  5
1E8
100
AcDbEntity
  8
engrave
  6
ByLayer
 62
  256
370
   -1
100
AcDbLine
 10
8.029999999999994
 20
4.180000000000001
 11
15.02999999999999
 21
4.180000000000001
  0
LINE
  5
1E9
100
AcDbEntity
  8
engrave
  6
ByLayer
 62
  256
370
   -1
100
AcDbLine
 10
8.029999999999994
 20
4.170000000000001
 11
15.02999999999999
 21
4.170000000000001
  0
LINE
  5
1EA
100
AcDbEntity
  8
engrave
  6
ByLayer
 62
  256
370
   -1
100
AcDbLine
 10
8.029999999999994
 20
4.160000000000001
 11
15.02999999999999
 21
4.160000000000001
  0
LINE
  5
1EB
100
AcDbEntity
  8
engrave
  6
ByLayer
 62
  256
370
   -1
100
AcDbLine
 10
8.029999999999994
 20
4.15
 11
15.02999999999999
 21
4.15
  0
LINE
  5
1EC
100
AcDbEntity
  8
engrave
  6
ByLayer
 62
  256
370
   -1
100
AcDbLine
 10
8.029999999999994
 20
4.140000000000001
 11
15.02999999999999
 21
4.140000000000001
  0
LINE
  5
1ED
100
AcDbEntity
  8
engrave
  6
ByLayer
 62
  256
370
   -1
100
AcDbLine
 10
8.029999999999994
 20
4.130000000000001
 11
15.02999999999999
 21
4.130000000000001
  0
LINE
  5
1EE
100
AcDbEntity
  8
engrave
  6
ByLayer
 62
  256
370
   -1
100
AcDbLine
 10
8.029999999999994
 20
4.120000000000001
 11
15.02999999999999
 21
4.120000000000001
  0
LINE
  5
1EF
100
AcDbEntity
  8
engrave
  6
ByLayer
 62
  256
370
   -1
100
AcDbLine
 10
8.029999999999994
 20
4.110000000000001
 11
15.02999999999999
 21
4.110000000000001
  0
LINE
  5
1F0
100
AcDbEntity
  8
engrave
  6
ByLayer
 62
  256
370
   -1
100
AcDbLine
 10
8.029999999999994
 20
4.100000000000001
 11
15.02999999999999
 21
4.100000000000001
  0
LINE
  5
1F1
100
AcDbEntity
  8
engrave
  6
ByLayer
 62
  256
370
   -1
100
AcDbLine
 10
8.029999999999994
 20
4.090000000000001
 11
15.02999999999999
 21
4.090000000000001
  0
LINE
  5
1F2
100
AcDbEntity
  8
engrave
  6
ByLayer
 62
  256
370
   -1
100
AcDbLine
 10
8.029999999999994
 20
4.080000000000001
 11
15.02999999999999
 21
4.080000000000001
  0
LINE
  5
1F3
100
AcDbEntity
  8
engrave
  6
ByLayer
 62
  256
370
   -1
100
AcDbLine
 10
8.029999999999994
 20
4.070000000000001
 11
15.02999999999999
 21
4.070000000000001
  0
LINE
  5
1F4
100
AcDbEntity
  8
engrave
  6
ByLayer
 62
  256
370
   -1
100
AcDbLine
 10
8.029999999999994
 20
4.06
 11
15.02999999999999
 21
4.06
  0
LINE
  5
1F5
100
AcDbEntity
  8
engrave
  6
ByLayer
 62
  256
370
   -1
100
AcDbLine
 10
8.029999999999994
 20
4.050000000000001
 11
15.02999999999999
 21
4.050000000000001
  0
LINE
  5
1F6
100
AcDbEntity
  8
engrave
  6
ByLayer
 62
  256
370
   -1
100
AcDbLine
 10
8.029999999999994
 20
4.040000000000001
 11
15.02999999999999
 21
4.040000000000001
  0
LINE
  5
1F7
100
AcDbEntity
  8
engrave
  6
ByLayer
 62
  256
370
   -1
100
AcDbLine
 10
8.029999999999994
 20
4.030000000000001
 11
15.02999999999999
 21
4.030000000000001
  0
LINE
  5
1F8
100
AcDbEntity
  8
engrave
  6
ByLayer
 62
  256
370
   -1
100
AcDbLine
 10
8.029999999999994
 20
4.02
 11
15.02999999999999
 21
4.02
  0
LINE
  5
1F9
100
AcDbEntity
  8
engrave
  6
ByLayer
 62
  256
370
   -1
100
AcDbLine
 10
8.029999999999994
 20
4.010000000000001
 11
15.02999999999999
 21
4.010000000000001
  0
LINE
  5
1FA
100
AcDbEntity
  8
engrave
  6
ByLayer
 62
  256
370
   -1
100
AcDbLine
 10
8.029999999999994
 20
4.000000000000001
 11
15.02999999999999
 21
4.000000000000001
  0
LINE
  5
1FB
100
AcDbEntity
  8
engrave
  6
ByLayer
 62
  256
370
   -1
100
AcDbLine
 10
8.029999999999994
 20
3.990000000000001
 11
15.02999999999999
 21
3.990000000000001
  0
LINE
  5
1FC
100
AcDbEntity
  8
engrave
  6
ByLayer
 62
  256
370
   -1
100
AcDbLine
 10
8.029999999999994
 20
3.980000000000001
 11
15.02999999999999
 21
3.980000000000001
  0
LINE
  5
1FD
100
AcDbEntity
  8
engrave
  6
ByLayer
 62
  256
370
   -1
100
AcDbLine
 10
8.029999999999994
 20
3.970000000000001
 11
15.02999999999999
 21
3.970000000000001
  0
LINE
  5
1FE
100
AcDbEntity
  8
engrave
  6
ByLayer
 62
  256
370
   -1
100
AcDbLine
 10
8.029999999999994
 20
3.960000000000001
 11
15.02999999999999
 21
3.960000000000001
  0
LINE
  5
1FF
100
AcDbEntity
  8
engrave
  6
ByLayer
 62
  256
370
   -1
100
AcDbLine
 10
8.029999999999994
 20
3.950000000000001
 11
15.02999999999999
 21
3.950000000000001
  0
LINE
  5
200
100
AcDbEntity
  8
engrave
  6
ByLayer
 62
  256
370
   -1
100
AcDbLine
 10
8.029999999999994
 20
3.940000000000001
 11
15.02999999999999
 21
3.940000000000001
  0
LINE
  5
201
100
AcDbEntity
  8
engrave
  6
ByLayer
 62
  256
370
   -1
100
AcDbLine
 10
8.029999999999994
 20
3.930000000000001
 11
15.02999999999999
 21
3.930000000000001
  0
LINE
  5
202
100
AcDbEntity
  8
engrave
  6
ByLayer
 62
  256
370
   -1
100
AcDbLine
 10
8.029999999999994
 20
3.920000000000001
 11
15.02999999999999
 21
3.920000000000001
  0
LINE
  5
203
100
AcDbEntity
  8
engrave
  6
ByLayer
 62
  256
370
   -1
100
AcDbLine
 10
8.029999999999994
 20
3.910000000000001
 11
15.02999999999999
 21
3.910000000000001
  0
LINE
  5
204
100
AcDbEntity
  8
engrave
  6
ByLayer
 62
  256
370
   -1
100
AcDbLine
 10
8.029999999999994
 20
3.900000000000001
 11
15.02999999999999
 21
3.900000000000001
  0
LINE
  5
205
100
AcDbEntity
  8
engrave
  6
ByLayer
 62
  256
370
   -1
100
AcDbLine
 10
8.029999999999994
 20
3.890000000000001
 11
15.02999999999999
 21
3.890000000000001
  0
LINE
  5
206
100
AcDbEntity
  8
engrave
  6
ByLayer
 62
  256
370
   -1
100
AcDbLine
 10
8.029999999999994
 20
3.880000000000001
 11
15.02999999999999
 21
3.880000000000001
  0
LINE
  5
207
100
AcDbEntity
  8
engrave
  6
ByLayer
 62
  256
370
   -1
100
AcDbLine
 10
8.029999999999994
 20
3.870000000000001
 11
15.02999999999999
 21
3.870000000000001
  0
LINE
  5
208
100
AcDbEntity
  8
engrave
  6
ByLayer
 62
  256
370
   -1
100
AcDbLine
 10
8.029999999999994
 20
3.860000000000001
 11
15.02999999999999
 21
3.860000000000001
  0
LINE
  5
209
100
AcDbEntity
  8
engrave
  6
ByLayer
 62
  256
370
   -1
100
AcDbLine
 10
8.029999999999994
 20
3.850000000000001
 11
15.02999999999999
 21
3.850000000000001
  0
LINE
  5
20A
100
AcDbEntity
  8
engrave
  6
ByLayer
 62
  256
370
   -1
100
AcDbLine
 10
8.029999999999994
 20
3.840000000000001
 11
15.02999999999999
 21
3.840000000000001
  0
LINE
  5
20B
100
AcDbEntity
  8
engrave
  6
ByLayer
 62
  256
370
   -1
100
AcDbLine
 10
8.029999999999994
 20
3.830000000000001
 11
15.02999999999999
 21
3.830000000000001
  0
LINE
  5
20C
100
AcDbEntity
  8
engrave
  6
ByLayer
 62
  256
370
   -1
100
AcDbLine
 10
8.029999999999994
 20
3.820000000000001
 11
15.02999999999999
 21
3.820000000000001
  0
LINE
  5
20D
100
AcDbEntity
  8
engrave
  6
ByLayer
 62
  256
370
   -1
100
AcDbLine
 10
8.029999999999994
 20
3.810000000000001
 11
15.02999999999999
 21
3.810000000000001
  0
LINE
  5
20E
100
AcDbEntity
  8
engrave
  6
ByLayer
 62
  256
370
   -1
100
AcDbLine
 10
8.029999999999994
 20
3.800000000000001
 11
15.02999999999999
 21
3.800000000000001
  0
LINE
  5
20F
100
AcDbEntity
  8
engrave
  6
ByLayer
 62
  256
370
   -1
100
AcDbLine
 10
8.029999999999994
 20
3.790000000000001
 11
15.02999999999999
 21
3.790000000000001
  0
LINE
  5
210
100
AcDbEntity
  8
engrave
  6
ByLayer
 62
  256
370
   -1
100
AcDbLine
 10
8.029999999999994
 20
3.780000000000001
 11
15.02999999999999
 21
3.780000000000001
  0
LINE
  5
211
100
AcDbEntity
  8
engrave
  6
ByLayer
 62
  256
370
   -1
100
AcDbLine
 10
8.029999999999994
 20
3.770000000000001
 11
15.02999999999999
 21
3.770000000000001
  0
LINE
  5
212
100
AcDbEntity
  8
engrave
  6
ByLayer
 62
  256
370
   -1
100
AcDbLine
 10
8.029999999999994
 20
3.760000000000001
 11
15.02999999999999
 21
3.760000000000001
  0
LINE
  5
213
100
AcDbEntity
  8
engrave
  6
ByLayer
 62
  256
370
   -1
100
AcDbLine
 10
8.029999999999994
 20
3.750000000000001
 11
15.02999999999999
 21
3.750000000000001
  0
LINE
  5
214
100
AcDbEntity
  8
engrave
  6
ByLayer
 62
  256
370
   -1
100
AcDbLine
 10
8.029999999999994
 20
3.740000000000001
 11
15.02999999999999
 21
3.740000000000001
  0
LINE
  5
215
100
AcDbEntity
  8
engrave
  6
ByLayer
 62
  256
370
   -1
100
AcDbLine
 10
8.029999999999994
 20
3.730000000000001
 11
15.02999999999999
 21
3.730000000000001
  0
LINE
  5
216
100
AcDbEntity
  8
engrave
  6
ByLayer
 62
  256
370
   -1
100
AcDbLine
 10
8.029999999999994
 20
3.720000000000001
 11
15.02999999999999
 21
3.720000000000001
  0
LINE
  5
217
100
AcDbEntity
  8
engrave
  6
ByLayer
 62
  256
370
   -1
100
AcDbLine
 10
8.029999999999994
 20
3.710000000000001
 11
15.02999999999999
 21
3.710000000000001
  0
LINE
  5
218
100
AcDbEntity
  8
engrave
  6
ByLayer
 62
  256
370
   -1
100
AcDbLine
 10
8.029999999999994
 20
3.700000000000001
 11
15.02999999999999
 21
3.700000000000001
  0
LINE
  5
219
100
AcDbEntity
  8
engrave
  6
ByLayer
 62
  256
370
   -1
100
AcDbLine
 10
8.029999999999994
 20
3.690000000000001
 11
15.02999999999999
 21
3.690000000000001
  0
LINE
  5
21A
100
AcDbEntity
  8
engrave
  6
ByLayer
 62
  256
370
   -1
100
AcDbLine
 10
8.029999999999994
 20
3.680000000000001
 11
15.02999999999999
 21
3.680000000000001
  0
LINE
  5
21B
100
AcDbEntity
  8
engrave
  6
ByLayer
 62
  256
370
   -1
100
AcDbLine
 10
8.029999999999994
 20
3.670000000000001
 11
15.02999999999999
 21
3.670000000000001
  0
LINE
  5
21C
100
AcDbEntity
  8
engrave
  6
ByLayer
 62
  256
370
   -1
100
AcDbLine
 10
8.029999999999994
 20
3.660000000000001
 11
15.02999999999999
 21
3.660000000000001
  0
LINE
  5
21D
100
AcDbEntity
  8
engrave
  6
ByLayer
 62
  256
370
   -1
100
AcDbLine
 10
8.029999999999994
 20
3.650000000000001
 11
15.02999999999999
 21
3.650000000000001
  0
LINE
  5
21E
100
AcDbEntity
  8
engrave
  6
ByLayer
 62
  256
370
   -1
100
AcDbLine
 10
8.029999999999994
 20
3.640000000000001
 11
15.02999999999999
 21
3.640000000000001
  0
LINE
  5
21F
100
AcDbEntity
  8
engrave
  6
ByLayer
 62
  256
370
   -1
100
AcDbLine
 10
8.029999999999994
 20
3.630000000000001
 11
15.02999999999999
 21
3.630000000000001
  0
LINE
  5
220
100
AcDbEntity
  8
engrave
  6
ByLayer
 62
  256
370
   -1
100
AcDbLine
 10
8.029999999999994
 20
3.620000000000001
 11
15.02999999999999
 21
3.620000000000001
  0
LINE
  5
221
100
AcDbEntity
  8
engrave
  6
ByLayer
 62
  256
370
   -1
100
AcDbLine
 10
8.029999999999994
 20
3.610000000000001
 11
15.02999999999999
 21
3.610000000000001
  0
LINE
  5
222
100
AcDbEntity
  8
engrave
  6
ByLayer
 62
  256
370
   -1
100
AcDbLine
 10
8.029999999999994
 20
3.600000000000001
 11
15.02999999999999
 21
3.600000000000001
  0
LINE
  5
223
100
AcDbEntity
  8
engrave
  6
ByLayer
 62
  256
370
   -1
100
AcDbLine
 10
8.029999999999994
 20
3.590000000000001
 11
15.02999999999999
 21
3.590000000000001
  0
LINE
  5
224
100
AcDbEntity
  8
engrave
  6
ByLayer
 62
  256
370
   -1
100
AcDbLine
 10
8.029999999999994
 20
3.580000000000001
 11
15.02999999999999
 21
3.580000000000001
  0
LINE
  5
225
100
AcDbEntity
  8
engrave
  6
ByLayer
 62
  256
370
   -1
100
AcDbLine
 10
8.029999999999994
 20
3.570000000000001
 11
15.02999999999999
 21
3.570000000000001
  0
LINE
  5
226
100
AcDbEntity
  8
engrave
  6
ByLayer
 62
  256
370
   -1
100
AcDbLine
 10
8.029999999999994
 20
3.56
 11
15.02999999999999
 21
3.56
  0
LINE
  5
227
100
AcDbEntity
  8
engrave
  6
ByLayer
 62
  256
370
   -1
100
AcDbLine
 10
8.029999999999994
 20
3.550000000000001
 11
15.02999999999999
 21
3.550000000000001
  0
LINE
  5
228
100
AcDbEntity
  8
engrave
  6
ByLayer
 62
  256
370
   -1
100
AcDbLine
 10
8.029999999999994
 20
3.540000000000001
 11
15.02999999999999
 21
3.540000000000001
  0
LINE
  5
229
100
AcDbEntity
  8
engrave
  6
ByLayer
 62
  256
370
   -1
100
AcDbLine
 10
8.029999999999994
 20
3.530000000000001
 11
15.02999999999999
 21
3.530000000000001
  0
LINE
  5
22A
100
AcDbEntity
  8
engrave
  6
ByLayer
 62
  256
370
   -1
100
AcDbLine
 10
8.029999999999994
 20
3.520000000000001
 11
15.02999999999999
 21
3.520000000000001
  0
LINE
  5
22B
100
AcDbEntity
  8
engrave
  6
ByLayer
 62
  256
370
   -1
100
AcDbLine
 10
8.029999999999994
 20
3.510000000000001
 11
15.02999999999999
 21
3.510000000000001
  0
LINE
  5
22C
100
AcDbEntity
  8
engrave
  6
ByLayer
 62
  256
370
   -1
100
AcDbLine
 10
8.029999999999994
 20
3.500000000000001
 11
15.02999999999999
 21
3.500000000000001
  0
LINE
  5
22D
100
AcDbEntity
  8
engrave
  6
ByLayer
 62
  256
370
   -1
100
AcDbLine
 10
8.029999999999994
 20
3.490000000000001
 11
15.02999999999999
 21
3.490000000000001
  0
LINE
  5
22E
100
AcDbEntity
  8
engrave
  6
ByLayer
 62
  256
370
   -1
100
AcDbLine
 10
8.029999999999994
 20
3.480000000000001
 11
15.02999999999999
 21
3.480000000000001
  0
LINE
  5
22F
100
AcDbEntity
  8
engrave
  6
ByLayer
 62
  256
370
   -1
100
AcDbLine
 10
8.029999999999994
 20
3.470000000000001
 11
15.02999999999999
 21
3.470000000000001
  0
LINE
  5
230
100
AcDbEntity
  8
engrave
  6
ByLayer
 62
  256
370
   -1
100
AcDbLine
 10
8.029999999999994
 20
3.460000000000001
 11
15.02999999999999
 21
3.460000000000001
  0
LINE
  5
231
100
AcDbEntity
  8
engrave
  6
ByLayer
 62
  256
370
   -1
100
AcDbLine
 10
8.029999999999994
 20
3.450000000000001
 11
15.02999999999999
 21
3.450000000000001
  0
LINE
  5
232
100
AcDbEntity
  8
engrave
  6
ByLayer
 62
  256
370
   -1
100
AcDbLine
 10
8.029999999999994
 20
3.440000000000001
 11
15.02999999999999
 21
3.440000000000001
  0
LINE
  5
233
100
AcDbEntity
  8
engrave
  6
ByLayer
 62
  256
370
   -1
100
AcDbLine
 10
8.029999999999994
 20
3.430000000000001
 11
15.02999999999999
 21
3.430000000000001
  0
LINE
  5
234
100
AcDbEntity
  8
engrave
  6
ByLayer
 62
  256
370
   -1
100
AcDbLine
 10
8.029999999999994
 20
3.420000000000001
 11
15.02999999999999
 21
3.420000000000001
  0
LINE
  5
235
100
AcDbEntity
  8
engrave
  6
ByLayer
 62
  256
370
   -1
100
AcDbLine
 10
8.029999999999994
 20
3.410000000000001
 11
15.02999999999999
 21
3.410000000000001
  0
LINE
  5
236
100
AcDbEntity
  8
engrave
  6
ByLayer
 62
  256
370
   -1
100
AcDbLine
 10
8.029999999999994
 20
3.400000000000001
 11
15.02999999999999
 21
3.400000000000001
  0
LINE
  5
237
100
AcDbEntity
  8
engrave
  6
ByLayer
 62
  256
370
   -1
100
AcDbLine
 10
8.029999999999994
 20
3.390000000000001
 11
15.02999999999999
 21
3.390000000000001
  0
LINE
  5
238
100
AcDbEntity
  8
engrave
  6
ByLayer
 62
  256
370
   -1
100
AcDbLine
 10
8.029999999999994
 20
3.380000000000001
 11
15.02999999999999
 21
3.380000000000001
  0
LINE
  5
239
100
AcDbEntity
  8
engrave
  6
ByLayer
 62
  256
370
   -1
100
AcDbLine
 10
8.029999999999994
 20
3.370000000000001
 11
15.02999999999999
 21
3.370000000000001
  0
LINE
  5
23A
100
AcDbEntity
  8
engrave
  6
ByLayer
 62
  256
370
   -1
100
AcDbLine
 10
8.029999999999994
 20
3.360000000000001
 11
15.02999999999999
 21
3.360000000000001
  0
LINE
  5
23B
100
AcDbEntity
  8
engrave
  6
ByLayer
 62
  256
370
   -1
100
AcDbLine
 10
8.029999999999994
 20
3.350000000000001
 11
15.02999999999999
 21
3.350000000000001
  0
LINE
  5
23C
100
AcDbEntity
  8
engrave
  6
ByLayer
 62
  256
370
   -1
100
AcDbLine
 10
8.029999999999994
 20
3.340000000000001
 11
15.02999999999999
 21
3.340000000000001
  0
LINE
  5
23D
100
AcDbEntity
  8
engrave
  6
ByLayer
 62
  256
370
   -1
100
AcDbLine
 10
8.029999999999994
 20
3.330000000000001
 11
15.02999999999999
 21
3.330000000000001
  0
LINE
  5
23E
100
AcDbEntity
  8
engrave
  6
ByLayer
 62
  256
370
   -1
100
AcDbLine
 10
8.029999999999994
 20
3.320000000000001
 11
15.02999999999999
 21
3.320000000000001
  0
LINE
  5
23F
100
AcDbEntity
  8
engrave
  6
ByLayer
 62
  256
370
   -1
100
AcDbLine
 10
8.029999999999994
 20
3.31
 11
15.02999999999999
 21
3.31
  0
LINE
  5
240
100
AcDbEntity
  8
engrave
  6
ByLayer
 62
  256
370
   -1
100
AcDbLine
 10
8.029999999999994
 20
3.300000000000001
 11
15.02999999999999
 21
3.300000000000001
  0
LINE
  5
241
100
AcDbEntity
  8
engrave
  6
ByLayer
 62
  256
370
   -1
100
AcDbLine
 10
8.029999999999994
 20
3.290000000000001
 11
15.02999999999999
 21
3.290000000000001
  0
LINE
  5
242
100
AcDbEntity
  8
engrave
  6
ByLayer
 62
  256
370
   -1
100
AcDbLine
 10
8.029999999999994
 20
3.280000000000001
 11
15.02999999999999
 21
3.280000000000001
  0
LINE
  5
243
100
AcDbEntity
  8
engrave
  6
ByLayer
 62
  256
370
   -1
100
AcDbLine
 10
8.029999999999994
 20
3.270000000000001
 11
15.02999999999999
 21
3.270000000000001
  0
LINE
  5
244
100
AcDbEntity
  8
engrave
  6
ByLayer
 62
  256
370
   -1
100
AcDbLine
 10
8.029999999999994
 20
3.260000000000001
 11
15.02999999999999
 21
3.260000000000001
  0
LINE
  5
245
100
AcDbEntity
  8
engrave
  6
ByLayer
 62
  256
370
   -1
100
AcDbLine
 10
8.029999999999994
 20
3.250000000000001
 11
15.02999999999999
 21
3.250000000000001
  0
LINE
  5
246
100
AcDbEntity
  8
engrave
  6
ByLayer
 62
  256
370
   -1
100
AcDbLine
 10
8.029999999999994
 20
3.240000000000001
 11
15.02999999999999
 21
3.240000000000001
  0
LINE
  5
247
100
AcDbEntity
  8
engrave
  6
ByLayer
 62
  256
370
   -1
100
AcDbLine
 10
8.029999999999994
 20
3.230000000000001
 11
15.02999999999999
 21
3.230000000000001
  0
LINE
  5
248
100
AcDbEntity
  8
engrave
  6
ByLayer
 62
  256
370
   -1
100
AcDbLine
 10
8.029999999999994
 20
3.220000000000001
 11
15.02999999999999
 21
3.220000000000001
  0
LINE
  5
249
100
AcDbEntity
  8
engrave
  6
ByLayer
 62
  256
370
   -1
100
AcDbLine
 10
8.029999999999994
 20
3.210000000000001
 11
15.02999999999999
 21
3.210000000000001
  0
LINE
  5
24A
100
AcDbEntity
  8
engrave
  6
ByLayer
 62
  256
370
   -1
100
AcDbLine
 10
8.029999999999994
 20
3.200000000000001
 11
15.02999999999999
 21
3.200000000000001
  0
LINE
  5
24B
100
AcDbEntity
  8
engrave
  6
ByLayer
 62
  256
370
   -1
100
AcDbLine
 10
8.029999999999994
 20
3.190000000000001
 11
15.02999999999999
 21
3.190000000000001
  0
LINE
  5
24C
100
AcDbEntity
  8
engrave
  6
ByLayer
 62
  256
370
   -1
100
AcDbLine
 10
8.029999999999994
 20
3.180000000000001
 11
15.02999999999999
 21
3.180000000000001
  0
LINE
  5
24D
100
AcDbEntity
  8
engrave
  6
ByLayer
 62
  256
370
   -1
100
AcDbLine
 10
8.029999999999994
 20
3.170000000000001
 11
15.02999999999999
 21
3.170000000000001
  0
LINE
  5
24E
100
AcDbEntity
  8
engrave
  6
ByLayer
 62
  256
370
   -1
100
AcDbLine
 10
8.029999999999994
 20
3.160000000000001
 11
15.02999999999999
 21
3.160000000000001
  0
LINE
  5
24F
100
AcDbEntity
  8
engrave
  6
ByLayer
 62
  256
370
   -1
100
AcDbLine
 10
8.029999999999994
 20
3.150000000000001
 11
15.02999999999999
 21
3.150000000000001
  0
LINE
  5
250
100
AcDbEntity
  8
engrave
  6
ByLayer
 62
  256
370
   -1
100
AcDbLine
 10
8.029999999999994
 20
3.140000000000001
 11
15.02999999999999
 21
3.140000000000001
  0
LINE
  5
251
100
AcDbEntity
  8
engrave
  6
ByLayer
 62
  256
370
   -1
100
AcDbLine
 10
8.029999999999994
 20
3.130000000000001
 11
15.02999999999999
 21
3.130000000000001
  0
LINE
  5
252
100
AcDbEntity
  8
engrave
  6
ByLayer
 62
  256
370
   -1
100
AcDbLine
 10
8.029999999999994
 20
3.120000000000001
 11
15.02999999999999
 21
3.120000000000001
  0
LINE
  5
253
100
AcDbEntity
  8
engrave
  6
ByLayer
 62
  256
370
   -1
100
AcDbLine
 10
8.029999999999994
 20
3.110000000000001
 11
15.02999999999999
 21
3.110000000000001
  0
LINE
  5
254
100
AcDbEntity
  8
engrave
  6
ByLayer
 62
  256
370
   -1
100
AcDbLine
 10
8.029999999999994
 20
3.100000000000001
 11
15.02999999999999
 21
3.100000000000001
  0
LINE
  5
255
100
AcDbEntity
  8
engrave
  6
ByLayer
 62
  256
370
   -1
100
AcDbLine
 10
8.029999999999994
 20
3.090000000000001
 11
15.02999999999999
 21
3.090000000000001
  0
LINE
  5
256
100
AcDbEntity
  8
engrave
  6
ByLayer
 62
  256
370
   -1
100
AcDbLine
 10
8.029999999999994
 20
3.080000000000001
 11
15.02999999999999
 21
3.080000000000001
  0
LINE
  5
257
100
AcDbEntity
  8
engrave
  6
ByLayer
 62
  256
370
   -1
100
AcDbLine
 10
8.029999999999994
 20
3.070000000000001
 11
15.02999999999999
 21
3.070000000000001
  0
LINE
  5
258
100
AcDbEntity
  8
engrave
  6
ByLayer
 62
  256
370
   -1
100
AcDbLine
 10
8.029999999999994
 20
3.060000000000001
 11
15.02999999999999
 21
3.060000000000001
  0
LINE
  5
259
100
AcDbEntity
  8
engrave
  6
ByLayer
 62
  256
370
   -1
100
AcDbLine
 10
8.029999999999994
 20
3.050000000000001
 11
15.02999999999999
 21
3.050000000000001
  0
LINE
  5
25A
100
AcDbEntity
  8
engrave
  6
ByLayer
 62
  256
370
   -1
100
AcDbLine
 10
8.029999999999994
 20
3.040000000000001
 11
15.02999999999999
 21
3.040000000000001
  0
LINE
  5
25B
100
AcDbEntity
  8
engrave
  6
ByLayer
 62
  256
370
   -1
100
AcDbLine
 10
8.029999999999994
 20
3.030000000000001
 11
15.02999999999999
 21
3.030000000000001
  0
LINE
  5
25C
100
AcDbEntity
  8
engrave
  6
ByLayer
 62
  256
370
   -1
100
AcDbLine
 10
8.029999999999994
 20
3.020000000000001
 11
15.02999999999999
 21
3.020000000000001
  0
LINE
  5
25D
100
AcDbEntity
  8
engrave
  6
ByLayer
 62
  256
370
   -1
100
AcDbLine
 10
8.029999999999994
 20
3.010000000000001
 11
15.02999999999999
 21
3.010000000000001
  0
LINE
  5
25E
100
AcDbEntity
  8
engrave
  6
ByLayer
 62
  256
370
   -1
100
AcDbLine
 10
8.029999999999994
 20
3.000000000000001
 11
15.02999999999999
 21
3.000000000000001
  0
LINE
  5
25F
100
AcDbEntity
  8
engrave
  6
ByLayer
 62
  256
370
   -1
100
AcDbLine
 10
8.029999999999994
 20
2.990000000000001
 11
15.02999999999999
 21
2.990000000000001
  0
LINE
  5
260
100
AcDbEntity
  8
engrave
  6
ByLayer
 62
  256
370
   -1
100
AcDbLine
 10
8.029999999999994
 20
2.980000000000001
 11
15.02999999999999
 21
2.980000000000001
  0
LINE
  5
261
100
AcDbEntity
  8
engrave
  6
ByLayer
 62
  256
370
   -1
100
AcDbLine
 10
8.029999999999994
 20
2.970000000000001
 11
15.02999999999999
 21
2.970000000000001
  0
LINE
  5
262
100
AcDbEntity
  8
engrave
  6
ByLayer
 62
  256
370
   -1
100
AcDbLine
 10
8.029999999999994
 20
2.960000000000001
 11
15.02999999999999
 21
2.960000000000001
  0
LINE
  5
263
100
AcDbEntity
  8
engrave
  6
ByLayer
 62
  256
370
   -1
100
AcDbLine
 10
8.029999999999994
 20
2.950000000000001
 11
15.02999999999999
 21
2.950000000000001
  0
LINE
  5
264
100
AcDbEntity
  8
engrave
  6
ByLayer
 62
  256
370
   -1
100
AcDbLine
 10
8.029999999999994
 20
2.940000000000001
 11
15.02999999999999
 21
2.940000000000001
  0
LINE
  5
265
100
AcDbEntity
  8
engrave
  6
ByLayer
 62
  256
370
   -1
100
AcDbLine
 10
8.029999999999994
 20
2.930000000000001
 11
15.02999999999999
 21
2.930000000000001
  0
LINE
  5
266
100
AcDbEntity
  8
engrave
  6
ByLayer
 62
  256
370
   -1
100
AcDbLine
 10
8.029999999999994
 20
2.920000000000001
 11
15.02999999999999
 21
2.920000000000001
  0
LINE
  5
267
100
AcDbEntity
  8
engrave
  6
ByLayer
 62
  256
370
   -1
100
AcDbLine
 10
8.029999999999994
 20
2.910000000000001
 11
15.02999999999999
 21
2.910000000000001
  0
LINE
  5
268
100
AcDbEntity
  8
engrave
  6
ByLayer
 62
  256
370
   -1
100
AcDbLine
 10
8.029999999999994
 20
2.900000000000001
 11
15.02999999999999
 21
2.900000000000001
  0
LINE
  5
269
100
AcDbEntity
  8
engrave
  6
ByLayer
 62
  256
370
   -1
100
AcDbLine
 10
8.029999999999994
 20
2.890000000000001
 11
15.02999999999999
 21
2.890000000000001
  0
LINE
  5
26A
100
AcDbEntity
  8
engrave
  6
ByLayer
 62
  256
370
   -1
100
AcDbLine
 10
8.029999999999994
 20
2.880000000000001
 11
15.02999999999999
 21
2.880000000000001
  0
LINE
  5
26B
100
AcDbEntity
  8
engrave
  6
ByLayer
 62
  256
370
   -1
100
AcDbLine
 10
8.029999999999994
 20
2.870000000000001
 11
15.02999999999999
 21
2.870000000000001
  0
LINE
  5
26C
100
AcDbEntity
  8
engrave
  6
ByLayer
 62
  256
370
   -1
100
AcDbLine
 10
8.029999999999994
 20
2.860000000000001
 11
15.02999999999999
 21
2.860000000000001
  0
LINE
  5
26D
100
AcDbEntity
  8
engrave
  6
ByLayer
 62
  256
370
   -1
100
AcDbLine
 10
8.029999999999994
 20
2.850000000000001
 11
15.02999999999999
 21
2.850000000000001
  0
LINE
  5
26E
100
AcDbEntity
  8
engrave
  6
ByLayer
 62
  256
370
   -1
100
AcDbLine
 10
8.029999999999994
 20
2.840000000000001
 11
15.02999999999999
 21
2.840000000000001
  0
LINE
  5
26F
100
AcDbEntity
  8
engrave
  6
ByLayer
 62
  256
370
   -1
100
AcDbLine
 10
8.029999999999994
 20
2.830000000000001
 11
15.02999999999999
 21
2.830000000000001
  0
LINE
  5
270
100
AcDbEntity
  8
engrave
  6
ByLayer
 62
  256
370
   -1
100
AcDbLine
 10
8.029999999999994
 20
2.820000000000001
 11
15.02999999999999
 21
2.820000000000001
  0
LINE
  5
271
100
AcDbEntity
  8
engrave
  6
ByLayer
 62
  256
370
   -1
100
AcDbLine
 10
8.029999999999994
 20
2.810000000000001
 11
15.02999999999999
 21
2.810000000000001
  0
LINE
  5
272
100
AcDbEntity
  8
engrave
  6
ByLayer
 62
  256
370
   -1
100
AcDbLine
 10
8.029999999999994
 20
2.800000000000001
 11
15.02999999999999
 21
2.800000000000001
  0
LINE
  5
273
100
AcDbEntity
  8
engrave
  6
ByLayer
 62
  256
370
   -1
100
AcDbLine
 10
8.029999999999994
 20
2.790000000000001
 11
15.02999999999999
 21
2.790000000000001
  0
LINE
  5
274
100
AcDbEntity
  8
engrave
  6
ByLayer
 62
  256
370
   -1
100
AcDbLine
 10
8.029999999999994
 20
2.780000000000001
 11
15.02999999999999
 21
2.780000000000001
  0
LINE
  5
275
100
AcDbEntity
  8
engrave
  6
ByLayer
 62
  256
370
   -1
100
AcDbLine
 10
8.029999999999994
 20
2.770000000000001
 11
15.02999999999999
 21
2.770000000000001
  0
LINE
  5
276
100
AcDbEntity
  8
engrave
  6
ByLayer
 62
  256
370
   -1
100
AcDbLine
 10
8.029999999999994
 20
2.760000000000001
 11
15.02999999999999
 21
2.760000000000001
  0
LINE
  5
277
100
AcDbEntity
  8
engrave
  6
ByLayer
 62
  256
370
   -1
100
AcDbLine
 10
8.029999999999994
 20
2.750000000000001
 11
15.02999999999999
 21
2.750000000000001
  0
LINE
  5
278
100
AcDbEntity
  8
engrave
  6
ByLayer
 62
  256
370
   -1
100
AcDbLine
 10
8.029999999999994
 20
2.740000000000001
 11
15.02999999999999
 21
2.740000000000001
  0
LINE
  5
279
100
AcDbEntity
  8
engrave
  6
ByLayer
 62
  256
370
   -1
100
AcDbLine
 10
8.029999999999994
 20
2.730000000000001
 11
15.02999999999999
 21
2.730000000000001
  0
LINE
  5
27A
100
AcDbEntity
  8
engrave
  6
ByLayer
 62
  256
370
   -1
100
AcDbLine
 10
8.029999999999994
 20
2.720000000000001
 11
15.02999999999999
 21
2.720000000000001
  0
LINE
  5
27B
100
AcDbEntity
  8
engrave
  6
ByLayer
 62
  256
370
   -1
100
AcDbLine
 10
8.029999999999994
 20
2.710000000000001
 11
15.02999999999999
 21
2.710000000000001
  0
LINE
  5
27C
100
AcDbEntity
  8
engrave
  6
ByLayer
 62
  256
370
   -1
100
AcDbLine
 10
8.029999999999994
 20
2.700000000000001
 11
15.02999999999999
 21
2.700000000000001
  0
LINE
  5
27D
100
AcDbEntity
  8
engrave
  6
ByLayer
 62
  256
370
   -1
100
AcDbLine
 10
8.029999999999994
 20
2.690000000000001
 11
15.02999999999999
 21
2.690000000000001
  0
LINE
  5
27E
100
AcDbEntity
  8
engrave
  6
ByLayer
 62
  256
370
   -1
100
AcDbLine
 10
8.029999999999994
 20
2.680000000000001
 11
15.02999999999999
 21
2.680000000000001
  0
LINE
  5
27F
100
AcDbEntity
  8
engrave
  6
ByLayer
 62
  256
370
   -1
100
AcDbLine
 10
8.029999999999994
 20
2.670000000000001
 11
15.02999999999999
 21
2.670000000000001
  0
LINE
  5
280
100
AcDbEntity
  8
engrave
  6
ByLayer
 62
  256
370
   -1
100
AcDbLine
 10
8.029999999999994
 20
2.660000000000001
 11
15.02999999999999
 21
2.660000000000001
  0
LINE
  5
281
100
AcDbEntity
  8
engrave
  6
ByLayer
 62
  256
370
   -1
100
AcDbLine
 10
8.029999999999994
 20
2.650000000000001
 11
15.02999999999999
 21
2.650000000000001
  0
LINE
  5
282
100
AcDbEntity
  8
engrave
  6
ByLayer
 62
  256
370
   -1
100
AcDbLine
 10
8.029999999999994
 20
2.640000000000001
 11
15.02999999999999
 21
2.640000000000001
  0
LINE
  5
283
100
AcDbEntity
  8
engrave
  6
ByLayer
 62
  256
370
   -1
100
AcDbLine
 10
8.029999999999994
 20
2.630000000000001
 11
15.02999999999999
 21
2.630000000000001
  0
LINE
  5
284
100
AcDbEntity
  8
engrave
  6
ByLayer
 62
  256
370
   -1
100
AcDbLine
 10
8.029999999999994
 20
2.620000000000001
 11
15.02999999999999
 21
2.620000000000001
  0
LINE
  5
285
100
AcDbEntity
  8
engrave
  6
ByLayer
 62
  256
370
   -1
100
AcDbLine
 10
8.029999999999994
 20
2.610000000000001
 11
15.02999999999999
 21
2.610000000000001
  0
LINE
  5
286
100
AcDbEntity
  8
engrave
  6
ByLayer
 62
  256
370
   -1
100
AcDbLine
 10
8.029999999999994
 20
2.600000000000001
 11
15.02999999999999
 21
2.600000000000001
  0
LINE
  5
287
100
AcDbEntity
  8
engrave
  6
ByLayer
 62
  256
370
   -1
100
AcDbLine
 10
8.029999999999994
 20
2.590000000000001
 11
15.02999999999999
 21
2.590000000000001
  0
LINE
  5
288
100
AcDbEntity
  8
engrave
  6
ByLayer
 62
  256
370
   -1
100
AcDbLine
 10
8.029999999999994
 20
2.580000000000001
 11
15.02999999999999
 21
2.580000000000001
  0
LINE
  5
289
100
AcDbEntity
  8
engrave
  6
ByLayer
 62
  256
370
   -1
100
AcDbLine
 10
8.029999999999994
 20
2.570000000000001
 11
15.02999999999999
 21
2.570000000000001
  0
LINE
  5
28A
100
AcDbEntity
  8
engrave
  6
ByLayer
 62
  256
370
   -1
100
AcDbLine
 10
8.029999999999994
 20
2.56
 11
15.02999999999999
 21
2.56
  0
LINE
  5
28B
100
AcDbEntity
  8
engrave
  6
ByLayer
 62
  256
370
   -1
100
AcDbLine
 10
8.029999999999994
 20
2.550000000000001
 11
15.02999999999999
 21
2.550000000000001
  0
LINE
  5
28C
100
AcDbEntity
  8
engrave
  6
ByLayer
 62
  256
370
   -1
100
AcDbLine
 10
8.029999999999994
 20
2.540000000000001
 11
15.02999999999999
 21
2.540000000000001
  0
LINE
  5
28D
100
AcDbEntity
  8
engrave
  6
ByLayer
 62
  256
370
   -1
100
AcDbLine
 10
8.029999999999994
 20
2.530000000000001
 11
15.02999999999999
 21
2.530000000000001
  0
LINE
  5
28E
100
AcDbEntity
  8
engrave
  6
ByLayer
 62
  256
370
   -1
100
AcDbLine
 10
8.029999999999994
 20
2.520000000000001
 11
15.02999999999999
 21
2.520000000000001
  0
LINE
  5
28F
100
AcDbEntity
  8
engrave
  6
ByLayer
 62
  256
370
   -1
100
AcDbLine
 10
8.029999999999994
 20
2.510000000000001
 11
15.02999999999999
 21
2.510000000000001
  0
LINE
  5
290
100
AcDbEntity
  8
engrave
  6
ByLayer
 62
  256
370
   -1
100
AcDbLine
 10
8.029999999999994
 20
2.500000000000001
 11
15.02999999999999
 21
2.500000000000001
  0
LINE
  5
291
100
AcDbEntity
  8
engrave
  6
ByLayer
 62
  256
370
   -1
100
AcDbLine
 10
8.029999999999994
 20
2.490000000000001
 11
15.02999999999999
 21
2.490000000000001
  0
LINE
  5
292
100
AcDbEntity
  8
engrave
  6
ByLayer
 62
  256
370
   -1
100
AcDbLine
 10
8.029999999999994
 20
2.480000000000001
 11
15.02999999999999
 21
2.480000000000001
  0
LINE
  5
293
100
AcDbEntity
  8
engrave
  6
ByLayer
 62
  256
370
   -1
100
AcDbLine
 10
8.029999999999994
 20
2.470000000000001
 11
15.02999999999999
 21
2.470000000000001
  0
LINE
  5
294
100
AcDbEntity
  8
engrave
  6
ByLayer
 62
  256
370
   -1
100
AcDbLine
 10
8.029999999999994
 20
2.460000000000001
 11
15.02999999999999
 21
2.460000000000001
  0
LINE
  5
295
100
AcDbEntity
  8
engrave
  6
ByLayer
 62
  256
370
   -1
100
AcDbLine
 10
8.029999999999994
 20
2.450000000000001
 11
15.02999999999999
 21
2.450000000000001
  0
LINE
  5
296
100
AcDbEntity
  8
engrave
  6
ByLayer
 62
  256
370
   -1
100
AcDbLine
 10
8.029999999999994
 20
2.440000000000001
 11
15.02999999999999
 21
2.440000000000001
  0
LINE
  5
297
100
AcDbEntity
  8
engrave
  6
ByLayer
 62
  256
370
   -1
100
AcDbLine
 10
8.029999999999994
 20
2.430000000000001
 11
15.02999999999999
 21
2.430000000000001
  0
LINE
  5
298
100
AcDbEntity
  8
engrave
  6
ByLayer
 62
  256
370
   -1
100
AcDbLine
 10
8.029999999999994
 20
2.420000000000001
 11
15.02999999999999
 21
2.420000000000001
  0
LINE
  5
299
100
AcDbEntity
  8
engrave
  6
ByLayer
 62
  256
370
   -1
100
AcDbLine
 10
8.029999999999994
 20
2.410000000000001
 11
15.02999999999999
 21
2.410000000000001
  0
LINE
  5
29A
100
AcDbEntity
  8
engrave
  6
ByLayer
 62
  256
370
   -1
100
AcDbLine
 10
8.029999999999994
 20
2.400000000000001
 11
15.02999999999999
 21
2.400000000000001
  0
LINE
  5
29B
100
AcDbEntity
  8
engrave
  6
ByLayer
 62
  256
370
   -1
100
AcDbLine
 10
8.029999999999994
 20
2.390000000000001
 11
15.02999999999999
 21
2.390000000000001
  0
LINE
  5
29C
100
AcDbEntity
  8
engrave
  6
ByLayer
 62
  256
370
   -1
100
AcDbLine
 10
8.029999999999994
 20
2.380000000000001
 11
15.02999999999999
 21
2.380000000000001
  0
LINE
  5
29D
100
AcDbEntity
  8
engrave
  6
ByLayer
 62
  256
370
   -1
100
AcDbLine
 10
8.029999999999994
 20
2.370000000000001
 11
15.02999999999999
 21
2.370000000000001
  0
LINE
  5
29E
100
AcDbEntity
  8
engrave
  6
ByLayer
 62
  256
370
   -1
100
AcDbLine
 10
8.029999999999994
 20
2.360000000000001
 11
15.02999999999999
 21
2.360000000000001
  0
LINE
  5
29F
100
AcDbEntity
  8
engrave
  6
ByLayer
 62
  256
370
   -1
100
AcDbLine
 10
8.029999999999994
 20
2.350000000000001
 11
15.02999999999999
 21
2.350000000000001
  0
LINE
  5
2A0
100
AcDbEntity
  8
engrave
  6
ByLayer
 62
  256
370
   -1
100
AcDbLine
 10
8.029999999999994
 20
2.340000000000001
 11
15.02999999999999
 21
2.340000000000001
  0
LINE
  5
2A1
100
AcDbEntity
  8
engrave
  6
ByLayer
 62
  256
370
   -1
100
AcDbLine
 10
8.029999999999994
 20
2.330000000000001
 11
15.02999999999999
 21
2.330000000000001
  0
LINE
  5
2A2
100
AcDbEntity
  8
engrave
  6
ByLayer
 62
  256
370
   -1
100
AcDbLine
 10
8.029999999999994
 20
2.320000000000001
 11
15.02999999999999
 21
2.320000000000001
  0
LINE
  5
2A3
100
AcDbEntity
  8
engrave
  6
ByLayer
 62
  256
370
   -1
100
AcDbLine
 10
8.029999999999994
 20
2.31
 11
15.02999999999999
 21
2.31
  0
LINE
  5
2A4
100
AcDbEntity
  8
engrave
  6
ByLayer
 62
  256
370
   -1
100
AcDbLine
 10
8.029999999999994
 20
2.300000000000001
 11
15.02999999999999
 21
2.300000000000001
  0
LINE
  5
2A5
100
AcDbEntity
  8
engrave
  6
ByLayer
 62
  256
370
   -1
100
AcDbLine
 10
8.029999999999994
 20
2.290000000000001
 11
15.02999999999999
 21
2.290000000000001
  0
LINE
  5
2A6
100
AcDbEntity
  8
engrave
  6
ByLayer
 62
  256
370
   -1
100
AcDbLine
 10
8.029999999999994
 20
2.280000000000001
 11
15.02999999999999
 21
2.280000000000001
  0
LINE
  5
2A7
100
AcDbEntity
  8
engrave
  6
ByLayer
 62
  256
370
   -1
100
AcDbLine
 10
8.029999999999994
 20
2.270000000000001
 11
15.02999999999999
 21
2.270000000000001
  0
LINE
  5
2A8
100
AcDbEntity
  8
engrave
  6
ByLayer
 62
  256
370
   -1
100
AcDbLine
 10
8.029999999999994
 20
2.260000000000001
 11
15.02999999999999
 21
2.260000000000001
  0
LINE
  5
2A9
100
AcDbEntity
  8
engrave
  6
ByLayer
 62
  256
370
   -1
100
AcDbLine
 10
8.029999999999994
 20
2.250000000000001
 11
15.02999999999999
 21
2.250000000000001
  0
LINE
  5
2AA
100
AcDbEntity
  8
engrave
  6
ByLayer
 62
  256
370
   -1
100
AcDbLine
 10
8.029999999999994
 20
2.240000000000001
 11
15.02999999999999
 21
2.240000000000001
  0
LINE
  5
2AB
100
AcDbEntity
  8
engrave
  6
ByLayer
 62
  256
370
   -1
100
AcDbLine
 10
8.029999999999994
 20
2.230000000000001
 11
15.02999999999999
 21
2.230000000000001
  0
LINE
  5
2AC
100
AcDbEntity
  8
engrave
  6
ByLayer
 62
  256
370
   -1
100
AcDbLine
 10
8.029999999999994
 20
2.220000000000001
 11
15.02999999999999
 21
2.220000000000001
  0
LINE
  5
2AD
100
AcDbEntity
  8
engrave
  6
ByLayer
 62
  256
370
   -1
100
AcDbLine
 10
8.029999999999994
 20
2.210000000000001
 11
15.02999999999999
 21
2.210000000000001
  0
LINE
  5
2AE
100
AcDbEntity
  8
engrave
  6
ByLayer
 62
  256
370
   -1
100
AcDbLine
 10
8.029999999999994
 20
2.200000000000001
 11
15.02999999999999
 21
2.200000000000001
  0
LINE
  5
2AF
100
AcDbEntity
  8
engrave
  6
ByLayer
 62
  256
370
   -1
100
AcDbLine
 10
8.029999999999994
 20
2.190000000000001
 11
15.02999999999999
 21
2.190000000000001
  0
LINE
  5
2B0
100
AcDbEntity
  8
engrave
  6
ByLayer
 62
  256
370
   -1
100
AcDbLine
 10
8.029999999999994
 20
2.180000000000001
 11
15.02999999999999
 21
2.180000000000001
  0
LINE
  5
2B1
100
AcDbEntity
  8
engrave
  6
ByLayer
 62
  256
370
   -1
100
AcDbLine
 10
8.029999999999994
 20
2.170000000000001
 11
15.02999999999999
 21
2.170000000000001
  0
LINE
  5
2B2
100
AcDbEntity
  8
engrave
  6
ByLayer
 62
  256
370
   -1
100
AcDbLine
 10
8.029999999999994
 20
2.160000000000001
 11
15.02999999999999
 21
2.160000000000001
  0
LINE
  5
2B3
100
AcDbEntity
  8
engrave
  6
ByLayer
 62
  256
370
   -1
100
AcDbLine
 10
8.029999999999994
 20
2.150000000000001
 11
15.02999999999999
 21
2.150000000000001
  0
LINE
  5
2B4
100
AcDbEntity
  8
engrave
  6
ByLayer
 62
  256
370
   -1
100
AcDbLine
 10
8.029999999999994
 20
2.140000000000001
 11
15.02999999999999
 21
2.140000000000001
  0
LINE
  5
2B5
100
AcDbEntity
  8
engrave
  6
ByLayer
 62
  256
370
   -1
100
AcDbLine
 10
8.029999999999994
 20
2.130000000000001
 11
15.02999999999999
 21
2.130000000000001
  0
LINE
  5
2B6
100
AcDbEntity
  8
engrave
  6
ByLayer
 62
  256
370
   -1
100
AcDbLine
 10
8.029999999999994
 20
2.120000000000001
 11
15.02999999999999
 21
2.120000000000001
  0
LINE
  5
2B7
100
AcDbEntity
  8
engrave
  6
ByLayer
 62
  256
370
   -1
100
AcDbLine
 10
8.029999999999994
 20
2.110000000000001
 11
15.02999999999999
 21
2.110000000000001
  0
LINE
  5
2B8
100
AcDbEntity
  8
engrave
  6
ByLayer
 62
  256
370
   -1
100
AcDbLine
 10
8.029999999999994
 20
2.100000000000001
 11
15.02999999999999
 21
2.100000000000001
  0
LINE
  5
2B9
100
AcDbEntity
  8
engrave
  6
ByLayer
 62
  256
370
   -1
100
AcDbLine
 10
8.029999999999994
 20
2.090000000000001
 11
15.02999999999999
 21
2.090000000000001
  0
LINE
  5
2BA
100
AcDbEntity
  8
engrave
  6
ByLayer
 62
  256
370
   -1
100
AcDbLine
 10
8.029999999999994
 20
2.080000000000001
 11
15.02999999999999
 21
2.080000000000001
  0
LINE
  5
2BB
100
AcDbEntity
  8
engrave
  6
ByLayer
 62
  256
370
   -1
100
AcDbLine
 10
8.029999999999994
 20
2.070000000000001
 11
15.02999999999999
 21
2.070000000000001
  0
LINE
  5
2BC
100
AcDbEntity
  8
engrave
  6
ByLayer
 62
  256
370
   -1
100
AcDbLine
 10
8.029999999999994
 20
2.060000000000001
 11
15.02999999999999
 21
2.060000000000001
  0
LINE
  5
2BD
100
AcDbEntity
  8
engrave
  6
ByLayer
 62
  256
370
   -1
100
AcDbLine
 10
8.029999999999994
 20
2.050000000000001
 11
15.02999999999999
 21
2.050000000000001
  0
LINE
  5
2BE
100
AcDbEntity
  8
engrave
  6
ByLayer
 62
  256
370
   -1
100
AcDbLine
 10
8.029999999999994
 20
2.040000000000001
 11
15.02999999999999
 21
2.040000000000001
  0
LINE
  5
2BF
100
AcDbEntity
  8
engrave
  6
ByLayer
 62
  256
370
   -1
100
AcDbLine
 10
8.029999999999994
 20
2.030000000000001
 11
15.02999999999999
 21
2.030000000000001
  0
LINE
  5
2C0
100
AcDbEntity
  8
engrave
  6
ByLayer
 62
  256
370
   -1
100
AcDbLine
 10
8.029999999999994
 20
2.020000000000001
 11
15.02999999999999
 21
2.020000000000001
  0
LINE
  5
2C1
100
AcDbEntity
  8
engrave
  6
ByLayer
 62
  256
370
   -1
100
AcDbLine
 10
8.029999999999994
 20
2.010000000000001
 11
15.02999999999999
 21
2.010000000000001
  0
LINE
  5
2C2
100
AcDbEntity
  8
engrave
  6
ByLayer
 62
  256
370
   -1
100
AcDbLine
 10
8.029999999999994
 20
2.000000000000001
 11
15.02999999999999
 21
2.000000000000001
  0
LINE
  5
2C3
100
AcDbEntity
  8
engrave
  6
ByLayer
 62
  256
370
   -1
100
AcDbLine
 10
8.029999999999994
 20
1.990000000000001
 11
15.02999999999999
 21
1.990000000000001
  0
LINE
  5
2C4
100
AcDbEntity
  8
engrave
  6
ByLayer
 62
  256
370
   -1
100
AcDbLine
 10
8.029999999999994
 20
1.980000000000001
 11
15.02999999999999
 21
1.980000000000001
  0
LINE
  5
2C5
100
AcDbEntity
  8
engrave
  6
ByLayer
 62
  256
370
   -1
100
AcDbLine
 10
8.029999999999994
 20
1.970000000000001
 11
15.02999999999999
 21
1.970000000000001
  0
LINE
  5
2C6
100
AcDbEntity
  8
engrave
  6
ByLayer
 62
  256
370
   -1
100
AcDbLine
 10
8.029999999999994
 20
1.960000000000001
 11
15.02999999999999
 21
1.960000000000001
  0
LINE
  5
2C7
100
AcDbEntity
  8
engrave
  6
ByLayer
 62
  256
370
   -1
100
AcDbLine
 10
8.029999999999994
 20
1.950000000000001
 11
15.02999999999999
 21
1.950000000000001
  0
LINE
  5
2C8
100
AcDbEntity
  8
engrave
  6
ByLayer
 62
  256
370
   -1
100
AcDbLine
 10
8.029999999999994
 20
1.940000000000001
 11
15.02999999999999
 21
1.940000000000001
  0
LINE
  5
2C9
100
AcDbEntity
  8
engrave
  6
ByLayer
 62
  256
370
   -1
100
AcDbLine
 10
8.029999999999994
 20
1.930000000000001
 11
15.02999999999999
 21
1.930000000000001
  0
LINE
  5
2CA
100
AcDbEntity
  8
engrave
  6
ByLayer
 62
  256
370
   -1
100
AcDbLine
 10
8.029999999999994
 20
1.920000000000001
 11
15.02999999999999
 21
1.920000000000001
  0
LINE
  5
2CB
100
AcDbEntity
  8
engrave
  6
ByLayer
 62
  256
370
   -1
100
AcDbLine
 10
8.029999999999994
 20
1.910000000000001
 11
15.02999999999999
 21
1.910000000000001
  0
LINE
  5
2CC
100
AcDbEntity
  8
engrave
  6
ByLayer
 62
  256
370
   -1
100
AcDbLine
 10
8.029999999999994
 20
1.900000000000001
 11
15.02999999999999
 21
1.900000000000001
  0
LINE
  5
2CD
100
AcDbEntity
  8
engrave
  6
ByLayer
 62
  256
370
   -1
100
AcDbLine
 10
8.029999999999994
 20
1.890000000000001
 11
15.02999999999999
 21
1.890000000000001
  0
LINE
  5
2CE
100
AcDbEntity
  8
engrave
  6
ByLayer
 62
  256
370
   -1
100
AcDbLine
 10
8.029999999999994
 20
1.880000000000001
 11
15.02999999999999
 21
1.880000000000001
  0
LINE
  5
2CF
100
AcDbEntity
  8
engrave
  6
ByLayer
 62
  256
370
   -1
100
AcDbLine
 10
8.029999999999994
 20
1.870000000000001
 11
15.02999999999999
 21
1.870000000000001
  0
LINE
  5
2D0
100
AcDbEntity
  8
engrave
  6
ByLayer
 62
  256
370
   -1
100
AcDbLine
 10
8.029999999999994
 20
1.860000000000001
 11
15.02999999999999
 21
1.860000000000001
  0
LINE
  5
2D1
100
AcDbEntity
  8
engrave
  6
ByLayer
 62
  256
370
   -1
100
AcDbLine
 10
8.029999999999994
 20
1.850000000000001
 11
15.02999999999999
 21
1.850000000000001
  0
LINE
  5
2D2
100
AcDbEntity
  8
engrave
  6
ByLayer
 62
  256
370
   -1
100
AcDbLine
 10
8.029999999999994
 20
1.840000000000001
 11
15.02999999999999
 21
1.840000000000001
  0
LINE
  5
2D3
100
AcDbEntity
  8
engrave
  6
ByLayer
 62
  256
370
   -1
100
AcDbLine
 10
8.029999999999994
 20
1.830000000000001
 11
15.02999999999999
 21
1.830000000000001
  0
LINE
  5
2D4
100
AcDbEntity
  8
engrave
  6
ByLayer
 62
  256
370
   -1
100
AcDbLine
 10
8.029999999999994
 20
1.820000000000001
 11
15.02999999999999
 21
1.820000000000001
  0
LINE
  5
2D5
100
AcDbEntity
  8
engrave
  6
ByLayer
 62
  256
370
   -1
100
AcDbLine
 10
8.029999999999994
 20
1.810000000000001
 11
15.02999999999999
 21
1.810000000000001
  0
LINE
  5
2D6
100
AcDbEntity
  8
engrave
  6
ByLayer
 62
  256
370
   -1
100
AcDbLine
 10
8.029999999999994
 20
1.800000000000001
 11
15.02999999999999
 21
1.800000000000001
  0
LINE
  5
2D7
100
AcDbEntity
  8
engrave
  6
ByLayer
 62
  256
370
   -1
100
AcDbLine
 10
8.029999999999994
 20
1.790000000000001
 11
15.02999999999999
 21
1.790000000000001
  0
LINE
  5
2D8
100
AcDbEntity
  8
engrave
  6
ByLayer
 62
  256
370
   -1
100
AcDbLine
 10
8.029999999999994
 20
1.780000000000001
 11
15.02999999999999
 21
1.780000000000001
  0
LINE
  5
2D9
100
AcDbEntity
  8
engrave
  6
ByLayer
 62
  256
370
   -1
100
AcDbLine
 10
8.029999999999994
 20
1.770000000000001
 11
15.02999999999999
 21
1.770000000000001
  0
LINE
  5
2DA
100
AcDbEntity
  8
engrave
  6
ByLayer
 62
  256
370
   -1
100
AcDbLine
 10
8.029999999999994
 20
1.760000000000001
 11
15.02999999999999
 21
1.760000000000001
  0
LINE
  5
2DB
100
AcDbEntity
  8
engrave
  6
ByLayer
 62
  256
370
   -1
100
AcDbLine
 10
8.029999999999994
 20
1.750000000000001
 11
15.02999999999999
 21
1.750000000000001
  0
LINE
  5
2DC
100
AcDbEntity
  8
engrave
  6
ByLayer
 62
  256
370
   -1
100
AcDbLine
 10
8.029999999999994
 20
1.740000000000001
 11
15.02999999999999
 21
1.740000000000001
  0
LINE
  5
2DD
100
AcDbEntity
  8
engrave
  6
ByLayer
 62
  256
370
   -1
100
AcDbLine
 10
8.029999999999994
 20
1.730000000000001
 11
15.02999999999999
 21
1.730000000000001
  0
LINE
  5
2DE
100
AcDbEntity
  8
engrave
  6
ByLayer
 62
  256
370
   -1
100
AcDbLine
 10
8.029999999999994
 20
1.720000000000001
 11
15.02999999999999
 21
1.720000000000001
  0
LINE
  5
2DF
100
AcDbEntity
  8
engrave
  6
ByLayer
 62
  256
370
   -1
100
AcDbLine
 10
8.029999999999994
 20
1.710000000000001
 11
15.02999999999999
 21
1.710000000000001
  0
LINE
  5
2E0
100
AcDbEntity
  8
engrave
  6
ByLayer
 62
  256
370
   -1
100
AcDbLine
 10
8.029999999999994
 20
1.700000000000001
 11
15.02999999999999
 21
1.700000000000001
  0
LINE
  5
2E1
100
AcDbEntity
  8
engrave
  6
ByLayer
 62
  256
370
   -1
100
AcDbLine
 10
8.029999999999994
 20
1.690000000000001
 11
15.02999999999999
 21
1.690000000000001
  0
LINE
  5
2E2
100
AcDbEntity
  8
engrave
  6
ByLayer
 62
  256
370
   -1
100
AcDbLine
 10
8.029999999999994
 20
1.680000000000001
 11
15.02999999999999
 21
1.680000000000001
  0
LINE
  5
2E3
100
AcDbEntity
  8
engrave
  6
ByLayer
 62
  256
370
   -1
100
AcDbLine
 10
8.029999999999994
 20
1.670000000000001
 11
15.02999999999999
 21
1.670000000000001
  0
LINE
  5
2E4
100
AcDbEntity
  8
engrave
  6
ByLayer
 62
  256
370
   -1
100
AcDbLine
 10
8.029999999999994
 20
1.660000000000001
 11
15.02999999999999
 21
1.660000000000001
  0
LINE
  5
2E5
100
AcDbEntity
  8
engrave
  6
ByLayer
 62
  256
370
   -1
100
AcDbLine
 10
8.029999999999994
 20
1.650000000000001
 11
15.02999999999999
 21
1.650000000000001
  0
LINE
  5
2E6
100
AcDbEntity
  8
engrave
  6
ByLayer
 62
  256
370
   -1
100
AcDbLine
 10
8.029999999999994
 20
1.640000000000001
 11
15.02999999999999
 21
1.640000000000001
  0
LINE
  5
2E7
100
AcDbEntity
  8
engrave
  6
ByLayer
 62
  256
370
   -1
100
AcDbLine
 10
8.029999999999994
 20
1.630000000000001
 11
15.02999999999999
 21
1.630000000000001
  0
LINE
  5
2E8
100
AcDbEntity
  8
engrave
  6
ByLayer
 62
  256
370
   -1
100
AcDbLine
 10
8.029999999999994
 20
1.620000000000001
 11
15.02999999999999
 21
1.620000000000001
  0
LINE
  5
2E9
100
AcDbEntity
  8
engrave
  6
ByLayer
 62
  256
370
   -1
100
AcDbLine
 10
8.029999999999994
 20
1.610000000000001
 11
15.02999999999999
 21
1.610000000000001
  0
LINE
  5
2EA
100
AcDbEntity
  8
engrave
  6
ByLayer
 62
  256
370
   -1
100
AcDbLine
 10
8.029999999999994
 20
1.600000000000001
 11
15.02999999999999
 21
1.600000000000001
  0
LINE
  5
2EB
100
AcDbEntity
  8
engrave
  6
ByLayer
 62
  256
370
   -1
100
AcDbLine
 10
8.029999999999994
 20
1.590000000000001
 11
15.02999999999999
 21
1.590000000000001
  0
LINE
  5
2EC
100
AcDbEntity
  8
engrave
  6
ByLayer
 62
  256
370
   -1
100
AcDbLine
 10
8.029999999999994
 20
1.580000000000001
 11
15.02999999999999
 21
1.580000000000001
  0
LINE
  5
2ED
100
AcDbEntity
  8
engrave
  6
ByLayer
 62
  256
370
   -1
100
AcDbLine
 10
8.029999999999994
 20
1.570000000000001
 11
15.02999999999999
 21
1.570000000000001
  0
LINE
  5
2EE
100
AcDbEntity
  8
engrave
  6
ByLayer
 62
  256
370
   -1
100
AcDbLine
 10
8.029999999999994
 20
1.560000000000001
 11
15.02999999999999
 21
1.560000000000001
  0
LINE
  5
2EF
100
AcDbEntity
  8
engrave
  6
ByLayer
 62
  256
370
   -1
100
AcDbLine
 10
8.029999999999994
 20
1.550000000000001
 11
15.02999999999999
 21
1.550000000000001
  0
LINE
  5
2F0
100
AcDbEntity
  8
engrave
  6
ByLayer
 62
  256
370
   -1
100
AcDbLine
 10
8.029999999999994
 20
1.540000000000001
 11
15.02999999999999
 21
1.540000000000001
  0
LINE
  5
2F1
100
AcDbEntity
  8
engrave
  6
ByLayer
 62
  256
370
   -1
100
AcDbLine
 10
8.029999999999994
 20
1.530000000000001
 11
15.02999999999999
 21
1.530000000000001
  0
LINE
  5
2F2
100
AcDbEntity
  8
engrave
  6
ByLayer
 62
  256
370
   -1
100
AcDbLine
 10
8.029999999999994
 20
1.520000000000001
 11
15.02999999999999
 21
1.520000000000001
  0
LINE
  5
2F3
100
AcDbEntity
  8
engrave
  6
ByLayer
 62
  256
370
   -1
100
AcDbLine
 10
8.029999999999994
 20
1.510000000000001
 11
15.02999999999999
 21
1.510000000000001
  0
LINE
  5
2F4
100
AcDbEntity
  8
engrave
  6
ByLayer
 62
  256
370
   -1
100
AcDbLine
 10
8.029999999999994
 20
1.500000000000001
 11
15.02999999999999
 21
1.500000000000001
  0
LINE
  5
2F5
100
AcDbEntity
  8
engrave
  6
ByLayer
 62
  256
370
   -1
100
AcDbLine
 10
8.029999999999994
 20
1.490000000000001
 11
15.02999999999999
 21
1.490000000000001
  0
LINE
  5
2F6
100
AcDbEntity
  8
engrave
  6
ByLayer
 62
  256
370
   -1
100
AcDbLine
 10
8.029999999999994
 20
1.480000000000001
 11
15.02999999999999
 21
1.480000000000001
  0
LINE
  5
2F7
100
AcDbEntity
  8
engrave
  6
ByLayer
 62
  256
370
   -1
100
AcDbLine
 10
8.029999999999994
 20
1.470000000000001
 11
15.02999999999999
 21
1.470000000000001
  0
LINE
  5
2F8
100
AcDbEntity
  8
engrave
  6
ByLayer
 62
  256
370
   -1
100
AcDbLine
 10
8.029999999999994
 20
1.460000000000001
 11
15.02999999999999
 21
1.460000000000001
  0
LINE
  5
2F9
100
AcDbEntity
  8
engrave
  6
ByLayer
 62
  256
370
   -1
100
AcDbLine
 10
8.029999999999994
 20
1.450000000000001
 11
15.02999999999999
 21
1.450000000000001
  0
LINE
  5
2FA
100
AcDbEntity
  8
engrave
  6
ByLayer
 62
  256
370
   -1
100
AcDbLine
 10
8.029999999999994
 20
1.440000000000001
 11
15.02999999999999
 21
1.440000000000001
  0
LINE
  5
2FB
100
AcDbEntity
  8
engrave
  6
ByLayer
 62
  256
370
   -1
100
AcDbLine
 10
8.029999999999994
 20
1.430000000000001
 11
15.02999999999999
 21
1.430000000000001
  0
LINE
  5
2FC
100
AcDbEntity
  8
engrave
  6
ByLayer
 62
  256
370
   -1
100
AcDbLine
 10
8.029999999999994
 20
1.420000000000001
 11
15.02999999999999
 21
1.420000000000001
  0
LINE
  5
2FD
100
AcDbEntity
  8
engrave
  6
ByLayer
 62
  256
370
   -1
100
AcDbLine
 10
8.029999999999994
 20
1.410000000000001
 11
15.02999999999999
 21
1.410000000000001
  0
LINE
  5
2FE
100
AcDbEntity
  8
engrave
  6
ByLayer
 62
  256
370
   -1
100
AcDbLine
 10
8.029999999999994
 20
1.400000000000001
 11
15.02999999999999
 21
1.400000000000001
  0
LINE
  5
2FF
100
AcDbEntity
  8
engrave
  6
ByLayer
 62
  256
370
   -1
100
AcDbLine
 10
8.029999999999994
 20
1.390000000000001
 11
15.02999999999999
 21
1.390000000000001
  0
LINE
  5
300
100
AcDbEntity
  8
engrave
  6
ByLayer
 62
  256
370
   -1
100
AcDbLine
 10
8.029999999999994
 20
1.380000000000001
 11
15.02999999999999
 21
1.380000000000001
  0
LINE
  5
301
100
AcDbEntity
  8
engrave
  6
ByLayer
 62
  256
370
   -1
100
AcDbLine
 10
8.029999999999994
 20
1.370000000000001
 11
15.02999999999999
 21
1.370000000000001
  0
LINE
  5
302
100
AcDbEntity
  8
engrave
  6
ByLayer
 62
  256
370
   -1
100
AcDbLine
 10
8.029999999999994
 20
1.360000000000001
 11
15.02999999999999
 21
1.360000000000001
  0
LINE
  5
303
100
AcDbEntity
  8
engrave
  6
ByLayer
 62
  256
370
   -1
100
AcDbLine
 10
8.029999999999994
 20
1.350000000000001
 11
15.02999999999999
 21
1.350000000000001
  0
LINE
  5
304
100
AcDbEntity
  8
engrave
  6
ByLayer
 62
  256
370
   -1
100
AcDbLine
 10
8.029999999999994
 20
1.340000000000001
 11
15.02999999999999
 21
1.340000000000001
  0
LINE
  5
305
100
AcDbEntity
  8
engrave
  6
ByLayer
 62
  256
370
   -1
100
AcDbLine
 10
8.029999999999994
 20
1.330000000000001
 11
15.02999999999999
 21
1.330000000000001
  0
LINE
  5
306
100
AcDbEntity
  8
engrave
  6
ByLayer
 62
  256
370
   -1
100
AcDbLine
 10
8.029999999999994
 20
1.320000000000001
 11
15.02999999999999
 21
1.320000000000001
  0
LINE
  5
307
100
AcDbEntity
  8
engrave
  6
ByLayer
 62
  256
370
   -1
100
AcDbLine
 10
8.029999999999994
 20
1.310000000000001
 11
15.02999999999999
 21
1.310000000000001
  0
LINE
  5
308
100
AcDbEntity
  8
engrave
  6
ByLayer
 62
  256
370
   -1
100
AcDbLine
 10
8.029999999999994
 20
1.300000000000001
 11
15.02999999999999
 21
1.300000000000001
  0
LINE
  5
309
100
AcDbEntity
  8
engrave
  6
ByLayer
 62
  256
370
   -1
100
AcDbLine
 10
8.029999999999994
 20
1.290000000000001
 11
15.02999999999999
 21
1.290000000000001
  0
LINE
  5
30A
100
AcDbEntity
  8
engrave
  6
ByLayer
 62
  256
370
   -1
100
AcDbLine
 10
8.029999999999994
 20
1.280000000000001
 11
15.02999999999999
 21
1.280000000000001
  0
LINE
  5
30B
100
AcDbEntity
  8
engrave
  6
ByLayer
 62
  256
370
   -1
100
AcDbLine
 10
8.029999999999994
 20
1.270000000000001
 11
15.02999999999999
 21
1.270000000000001
  0
LINE
  5
30C
100
AcDbEntity
  8
engrave
  6
ByLayer
 62
  256
370
   -1
100
AcDbLine
 10
8.029999999999994
 20
1.260000000000001
 11
15.02999999999999
 21
1.260000000000001
  0
LINE
  5
30D
100
AcDbEntity
  8
engrave
  6
ByLayer
 62
  256
370
   -1
100
AcDbLine
 10
8.029999999999994
 20
1.250000000000001
 11
15.02999999999999
 21
1.250000000000001
  0
LINE
  5
30E
100
AcDbEntity
  8
engrave
  6
ByLayer
 62
  256
370
   -1
100
AcDbLine
 10
8.029999999999994
 20
1.240000000000001
 11
15.02999999999999
 21
1.240000000000001
  0
LINE
  5
30F
100
AcDbEntity
  8
engrave
  6
ByLayer
 62
  256
370
   -1
100
AcDbLine
 10
8.029999999999994
 20
1.230000000000001
 11
15.02999999999999
 21
1.230000000000001
  0
LINE
  5
310
100
AcDbEntity
  8
engrave
  6
ByLayer
 62
  256
370
   -1
100
AcDbLine
 10
8.029999999999994
 20
1.220000000000001
 11
15.02999999999999
 21
1.220000000000001
  0
LINE
  5
311
100
AcDbEntity
  8
engrave
  6
ByLayer
 62
  256
370
   -1
100
AcDbLine
 10
8.029999999999994
 20
1.210000000000001
 11
15.02999999999999
 21
1.210000000000001
  0
LINE
  5
312
100
AcDbEntity
  8
engrave
  6
ByLayer
 62
  256
370
   -1
100
AcDbLine
 10
8.029999999999994
 20
1.200000000000001
 11
15.02999999999999
 21
1.200000000000001
  0
LINE
  5
313
100
AcDbEntity
  8
engrave
  6
ByLayer
 62
  256
370
   -1
100
AcDbLine
 10
8.029999999999994
 20
1.190000000000001
 11
15.02999999999999
 21
1.190000000000001
  0
LINE
  5
314
100
AcDbEntity
  8
engrave
  6
ByLayer
 62
  256
370
   -1
100
AcDbLine
 10
8.029999999999994
 20
1.180000000000001
 11
15.02999999999999
 21
1.180000000000001
  0
LINE
  5
315
100
AcDbEntity
  8
engrave
  6
ByLayer
 62
  256
370
   -1
100
AcDbLine
 10
8.029999999999994
 20
1.170000000000001
 11
15.02999999999999
 21
1.170000000000001
  0
LINE
  5
316
100
AcDbEntity
  8
engrave
  6
ByLayer
 62
  256
370
   -1
100
AcDbLine
 10
8.029999999999994
 20
1.160000000000001
 11
15.02999999999999
 21
1.160000000000001
  0
LINE
  5
317
100
AcDbEntity
  8
engrave
  6
ByLayer
 62
  256
370
   -1
100
AcDbLine
 10
8.029999999999994
 20
1.150000000000001
 11
15.02999999999999
 21
1.150000000000001
  0
LINE
  5
318
100
AcDbEntity
  8
engrave
  6
ByLayer
 62
  256
370
   -1
100
AcDbLine
 10
8.029999999999994
 20
1.140000000000001
 11
15.02999999999999
 21
1.140000000000001
  0
LINE
  5
319
100
AcDbEntity
  8
engrave
  6
ByLayer
 62
  256
370
   -1
100
AcDbLine
 10
8.029999999999994
 20
1.130000000000001
 11
15.02999999999999
 21
1.130000000000001
  0
ENDSEC
  0
SECTION
  2
OBJECTS
  0
DICTIONARY
  5
C
330
0
100
AcDbDictionary
281
    1
  3
ACAD_GROUP
350
D
  0
DICTIONARY
  5
D
330
C
100
AcDbDictionary
281
    1
  0
ENDSEC
  0
EOF
